<?xml version="1.0" encoding="UTF-8"?> <svg xmlns="http://www.w3.org/2000/svg" width="84" height="109" viewBox="0 0 84 109" fill="none"><g clip-path="url(#clip0_329_141)"><path d="M75.6183 67.3184C75.3485 67.3184 75.0788 67.3295 74.8127 67.3555C75.0788 67.3295 75.3448 67.3184 75.6183 67.3184C70.9917 67.3184 67.2372 63.5521 67.2372 58.9027C67.2372 54.257 63.4863 50.4869 58.856 50.4869C54.2257 50.4869 50.4748 54.2532 50.4748 58.9027C50.4748 60.7914 49.854 62.5317 48.8082 63.938C48.7269 64.0456 48.6456 64.1532 48.5606 64.2571C48.132 64.7766 47.6442 65.2442 47.1083 65.6486C45.7115 66.6987 43.9746 67.3221 42.0937 67.3221C37.4671 67.3221 33.7125 63.5558 33.7125 58.9064C33.7125 58.1791 33.8049 57.4741 33.9749 56.8025C34.0451 56.5353 34.1264 56.2681 34.2188 56.0121C34.4997 55.2403 34.8914 54.5204 35.3755 53.871C35.6157 53.5482 35.8817 53.2402 36.1663 52.9545C36.4508 52.6688 36.7538 52.4053 37.079 52.1604C37.2934 51.9972 37.5188 51.8488 37.7479 51.7077C37.977 51.5667 38.2172 51.4369 38.4611 51.3181C38.705 51.1994 38.9563 51.0918 39.2113 50.999C40.1093 50.6688 41.0812 50.4869 42.0937 50.4869C46.7203 50.4869 50.4748 46.7206 50.4748 42.0712C50.4748 37.4218 54.2257 33.6555 58.856 33.6555C63.4826 33.6555 67.2372 29.8892 67.2372 25.2398C67.2372 20.5903 63.4863 16.824 58.856 16.824C54.2257 16.824 50.4748 13.0577 50.4748 8.40831C50.4748 3.75888 46.724 0 42.0974 0C37.4708 0 33.7162 3.7663 33.7162 8.41573C33.7162 13.0652 29.9654 16.8315 25.3351 16.8315C20.7084 16.8315 16.9539 13.0652 16.9539 8.41573C16.9539 3.7663 13.2031 0 8.57647 0C3.94983 0 0.195312 3.7663 0.195312 8.41573C0.195312 13.0652 3.94614 16.8315 8.57647 16.8315C13.2068 16.8315 16.9576 20.5978 16.9576 25.2472C16.9576 29.8966 20.7084 33.6629 25.3388 33.6629C29.9691 33.6629 33.7199 29.8966 33.7199 25.2472C33.7199 20.5978 37.4708 16.8315 42.1011 16.8315C46.7314 16.8315 50.4822 20.5978 50.4822 25.2472C50.4822 29.8966 46.7314 33.6629 42.1011 33.6629C37.4744 33.6629 33.7199 37.4292 33.7199 42.0786C33.7199 46.7281 29.9691 50.4944 25.3388 50.4944C20.7084 50.4944 16.9576 54.2607 16.9576 58.9101C16.9576 63.5595 20.7084 67.3258 25.3388 67.3258C29.9654 67.3258 33.7199 71.0921 33.7199 75.7415C33.7199 80.391 37.4708 84.1573 42.1011 84.1573C46.7314 84.1573 50.4822 80.391 50.4822 75.7415C50.4822 75.671 50.4822 75.6005 50.4859 75.5263C50.4859 75.4521 50.4859 75.3779 50.4896 75.3074C50.4896 75.248 50.497 75.1887 50.5044 75.1293C50.5118 75.0439 50.5155 74.9623 50.5229 74.8807C50.5451 74.6729 50.5746 74.4651 50.6116 74.261C50.6485 74.0495 50.6929 73.8417 50.7446 73.6376C50.7779 73.5152 50.8111 73.3927 50.8481 73.274C50.8481 73.2628 50.8555 73.2517 50.8592 73.2406C50.8813 73.1664 50.9072 73.0959 50.9331 73.0254C50.9516 72.966 50.97 72.9066 50.9922 72.851C51.007 72.8101 51.0255 72.7693 51.0402 72.7285C51.0735 72.6432 51.1068 72.5541 51.1437 72.4688C51.1659 72.4168 51.1917 72.3649 51.2139 72.3092C51.2472 72.2387 51.2767 72.1645 51.31 72.094C51.3174 72.0754 51.3285 72.0606 51.3359 72.042C51.5059 71.6932 51.698 71.3556 51.916 71.0365C51.9345 71.0105 51.953 70.9845 51.9715 70.9585C52.1784 70.658 52.4038 70.3723 52.6477 70.1014C52.6847 70.0606 52.7216 70.0197 52.7586 69.9826C53.1873 69.5262 53.6603 69.1143 54.1813 68.7655C54.1924 68.7581 54.2072 68.7507 54.2183 68.7396C54.6063 68.4798 55.0165 68.2535 55.4451 68.0605C55.5486 68.0123 55.6558 67.9678 55.763 67.9269C55.9625 67.8453 56.1658 67.7711 56.3727 67.708C56.5427 67.6561 56.7201 67.6078 56.8937 67.567C57.5257 67.4149 58.1834 67.3295 58.8634 67.3295C63.49 67.3295 67.2445 71.0958 67.2445 75.7453C67.2445 75.6859 67.2445 75.6265 67.2482 75.5671C67.2482 75.6265 67.2445 75.6859 67.2445 75.7453C67.2445 80.391 70.9954 84.161 75.6257 84.161C80.256 84.161 84.0069 80.3947 84.0069 75.7453C84.0069 71.0958 80.256 67.3295 75.6257 67.3295L75.6183 67.3184Z" fill="#221E1F"></path><path d="M58.8567 50.4906C63.4855 50.4906 67.2379 46.7228 67.2379 42.0749C67.2379 37.427 63.4855 33.6592 58.8567 33.6592C54.228 33.6592 50.4756 37.427 50.4756 42.0749C50.4756 46.7228 54.228 50.4906 58.8567 50.4906Z" fill="white"></path><path d="M8.57662 13.3914C11.3135 13.3914 13.5321 11.1636 13.5321 8.41542C13.5321 5.66727 11.3135 3.43945 8.57662 3.43945C5.83976 3.43945 3.62109 5.66727 3.62109 8.41542C3.62109 11.1636 5.83976 13.3914 8.57662 13.3914Z" fill="#00A999"></path><path d="M25.3354 29.826C28.0723 29.826 30.2909 27.5981 30.2909 24.85C30.2909 22.1018 28.0723 19.874 25.3354 19.874C22.5985 19.874 20.3799 22.1018 20.3799 24.85C20.3799 27.5981 22.5985 29.826 25.3354 29.826Z" fill="#00A999"></path><path d="M42.0981 30.2195C44.835 30.2195 47.0536 27.9917 47.0536 25.2435C47.0536 22.4954 44.835 20.2676 42.0981 20.2676C39.3612 20.2676 37.1426 22.4954 37.1426 25.2435C37.1426 27.9917 39.3612 30.2195 42.0981 30.2195Z" fill="#00A999"></path><path d="M42.0981 47.0506C44.835 47.0506 47.0536 44.8227 47.0536 42.0746C47.0536 39.3264 44.835 37.0986 42.0981 37.0986C39.3612 37.0986 37.1426 39.3264 37.1426 42.0746C37.1426 44.8227 39.3612 47.0506 42.0981 47.0506Z" fill="#00A999"></path><path d="M58.8569 47.0506C61.5938 47.0506 63.8124 44.8227 63.8124 42.0746C63.8124 39.3264 61.5938 37.0986 58.8569 37.0986C56.12 37.0986 53.9014 39.3264 53.9014 42.0746C53.9014 44.8227 56.12 47.0506 58.8569 47.0506Z" fill="#00A999"></path><path d="M58.8569 63.8787C61.5938 63.8787 63.8124 61.6509 63.8124 58.9027C63.8124 56.1546 61.5938 53.9268 58.8569 53.9268C56.12 53.9268 53.9014 56.1546 53.9014 58.9027C53.9014 61.6509 56.12 63.8787 58.8569 63.8787Z" fill="#00A999"></path><path d="M42.0981 80.7068C44.835 80.7068 47.0536 78.479 47.0536 75.7309C47.0536 72.9827 44.835 70.7549 42.0981 70.7549C39.3612 70.7549 37.1426 72.9827 37.1426 75.7309C37.1426 78.479 39.3612 80.7068 42.0981 80.7068Z" fill="#00A999"></path><path d="M75.6186 80.7068C78.3555 80.7068 80.5741 78.479 80.5741 75.7309C80.5741 72.9827 78.3555 70.7549 75.6186 70.7549C72.8818 70.7549 70.6631 72.9827 70.6631 75.7309C70.6631 78.479 72.8818 80.7068 75.6186 80.7068Z" fill="#00A999"></path><path d="M58.8569 30.2195C61.5938 30.2195 63.8124 27.9917 63.8124 25.2435C63.8124 22.4954 61.5938 20.2676 58.8569 20.2676C56.12 20.2676 53.9014 22.4954 53.9014 25.2435C53.9014 27.9917 56.12 30.2195 58.8569 30.2195Z" fill="#00A999"></path><path d="M42.0981 13.3914C44.835 13.3914 47.0536 11.1636 47.0536 8.41542C47.0536 5.66727 44.835 3.43945 42.0981 3.43945C39.3612 3.43945 37.1426 5.66727 37.1426 8.41542C37.1426 11.1636 39.3612 13.3914 42.0981 13.3914Z" fill="#00A999"></path><path d="M58.8569 13.3914C61.5938 13.3914 63.8124 11.1636 63.8124 8.41542C63.8124 5.66727 61.5938 3.43945 58.8569 3.43945C56.12 3.43945 53.9014 5.66727 53.9014 8.41542C53.9014 11.1636 56.12 13.3914 58.8569 13.3914Z" fill="#221E1F"></path><path d="M8.57662 30.2195C11.3135 30.2195 13.5321 27.9917 13.5321 25.2435C13.5321 22.4954 11.3135 20.2676 8.57662 20.2676C5.83976 20.2676 3.62109 22.4954 3.62109 25.2435C3.62109 27.9917 5.83976 30.2195 8.57662 30.2195Z" fill="#221E1F"></path><path d="M75.6186 30.2195C78.3555 30.2195 80.5741 27.9917 80.5741 25.2435C80.5741 22.4954 78.3555 20.2676 75.6186 20.2676C72.8818 20.2676 70.6631 22.4954 70.6631 25.2435C70.6631 27.9917 72.8818 30.2195 75.6186 30.2195Z" fill="#221E1F"></path><path d="M25.3353 0C20.7086 0 16.9541 3.7663 16.9541 8.41573C16.9541 13.0652 20.7049 16.8315 25.3353 16.8315C29.9656 16.8315 33.7164 13.0652 33.7164 8.41573C33.7164 3.7663 29.9656 0 25.3353 0ZM25.3353 13.3917C22.597 13.3917 20.3797 11.1653 20.3797 8.41573C20.3797 5.66614 22.597 3.43976 25.3353 3.43976C28.0735 3.43976 30.2908 5.66614 30.2908 8.41573C30.2908 11.1653 28.0735 13.3917 25.3353 13.3917Z" fill="#00A999"></path><path d="M8.57647 33.6592C3.94983 33.6592 0.195312 37.4255 0.195312 42.0749C0.195312 46.7243 3.94614 50.4906 8.57647 50.4906C13.2068 50.4906 16.9576 46.7243 16.9576 42.0749C16.9576 37.4255 13.2068 33.6592 8.57647 33.6592ZM8.57647 47.0509C5.83818 47.0509 3.62094 44.8245 3.62094 42.0749C3.62094 39.3253 5.83818 37.0989 8.57647 37.0989C11.3148 37.0989 13.532 39.3253 13.532 42.0749C13.532 44.8245 11.3148 47.0509 8.57647 47.0509Z" fill="#221E1F"></path><path d="M8.57647 67.3184C3.94983 67.3184 0.195312 71.0847 0.195312 75.7341C0.195312 80.3835 3.94614 84.1498 8.57647 84.1498C13.2068 84.1498 16.9576 80.3835 16.9576 75.7341C16.9576 71.0847 13.2068 67.3184 8.57647 67.3184ZM8.57647 80.7101C5.83818 80.7101 3.62094 78.4837 3.62094 75.7341C3.62094 72.9845 5.83818 70.7581 8.57647 70.7581C11.3148 70.7581 13.532 72.9845 13.532 75.7341C13.532 78.4837 11.3148 80.7101 8.57647 80.7101Z" fill="#221E1F"></path><path d="M25.3351 67.3188C20.7084 67.3188 16.9539 63.5525 16.9539 58.903C16.9539 54.2573 13.2031 50.4873 8.57277 50.4873C3.94244 50.4873 0.195312 54.2573 0.195312 58.903C0.195312 63.5488 3.94614 67.3188 8.57647 67.3188C13.2031 67.3188 16.9576 71.0851 16.9576 75.7345C16.9576 80.3839 20.7084 84.1502 25.3388 84.1502C29.9691 84.1502 33.7199 80.3839 33.7199 75.7345C33.7199 71.0851 29.9691 67.3188 25.3388 67.3188H25.3351ZM8.57647 63.879C5.83818 63.879 3.62094 61.6526 3.62094 58.903C3.62094 56.1535 5.83818 53.9271 8.57647 53.9271C11.3148 53.9271 13.532 56.1535 13.532 58.903C13.532 61.6526 11.3148 63.879 8.57647 63.879ZM25.3351 80.7067C22.5968 80.7067 20.3796 78.4804 20.3796 75.7308C20.3796 72.9812 22.5968 70.7548 25.3351 70.7548C28.0734 70.7548 30.2906 72.9812 30.2906 75.7308C30.2906 78.4804 28.0734 80.7067 25.3351 80.7067Z" fill="#D2D832"></path><path d="M42.0974 16.8281C37.4708 16.8281 33.7162 20.5944 33.7162 25.2439C33.7162 29.8896 29.9654 33.6596 25.3351 33.6596C20.7048 33.6596 16.9539 29.8933 16.9539 25.2439C16.9539 20.5981 13.2031 16.8281 8.57277 16.8281C3.94244 16.8281 0.195312 20.5981 0.195312 25.2439C0.195312 29.8896 3.94614 33.6596 8.57647 33.6596C13.2031 33.6596 16.9576 37.4259 16.9576 42.0753C16.9576 44.6913 18.1438 47.0253 20.0063 48.5689C20.3167 48.825 20.6456 49.0624 20.993 49.2739C21.1075 49.3444 21.2258 49.4112 21.3441 49.478C21.8208 49.7378 22.3233 49.953 22.8481 50.1163C22.9811 50.1571 23.1105 50.1942 23.2472 50.2313C23.916 50.4057 24.6182 50.4947 25.3425 50.4947C26.0668 50.4947 26.7689 50.402 27.4378 50.2313C27.5708 50.1979 27.7038 50.1571 27.8369 50.1163C28.3616 49.953 28.8642 49.7378 29.3409 49.478C29.4591 49.415 29.5774 49.3444 29.6919 49.2739C30.0393 49.0624 30.3682 48.8287 30.6786 48.5689C32.5411 47.0253 33.7273 44.6913 33.7273 42.0753C33.7273 37.4259 37.4781 33.6596 42.1085 33.6596C46.7351 33.6596 50.4896 29.8933 50.4896 25.2439C50.4896 20.5944 46.7388 16.8281 42.1085 16.8281H42.0974ZM8.57647 30.2198C5.83818 30.2198 3.62094 27.9934 3.62094 25.2439C3.62094 22.4943 5.83818 20.2679 8.57647 20.2679C11.3148 20.2679 13.532 22.4943 13.532 25.2439C13.532 27.9934 11.3148 30.2198 8.57647 30.2198ZM25.3351 47.0476C22.5968 47.0476 20.3796 44.8212 20.3796 42.0716C20.3796 39.322 22.5968 37.0956 25.3351 37.0956C28.0734 37.0956 30.2906 39.322 30.2906 42.0716C30.2906 44.8212 28.0734 47.0476 25.3351 47.0476ZM42.0937 30.2198C39.3554 30.2198 37.1382 27.9934 37.1382 25.2439C37.1382 22.4943 39.3554 20.2679 42.0937 20.2679C44.832 20.2679 47.0492 22.4943 47.0492 25.2439C47.0492 27.9934 44.832 30.2198 42.0937 30.2198Z" fill="#D2D832"></path><path d="M25.3354 63.8787C28.0723 63.8787 30.2909 61.6509 30.2909 58.9027C30.2909 56.1546 28.0723 53.9268 25.3354 53.9268C22.5985 53.9268 20.3799 56.1546 20.3799 58.9027C20.3799 61.6509 22.5985 63.8787 25.3354 63.8787Z" fill="white"></path><path d="M25.3354 47.0506C28.0723 47.0506 30.2909 44.8227 30.2909 42.0746C30.2909 39.3264 28.0723 37.0986 25.3354 37.0986C22.5985 37.0986 20.3799 39.3264 20.3799 42.0746C20.3799 44.8227 22.5985 47.0506 25.3354 47.0506Z" fill="white"></path><path d="M75.6185 33.6592C70.9918 33.6592 67.2373 37.4255 67.2373 42.0749C67.2373 46.7243 70.9881 50.4906 75.6185 50.4906C80.2488 50.4906 83.9996 46.7243 83.9996 42.0749C83.9996 37.4255 80.2488 33.6592 75.6185 33.6592ZM75.6185 47.0509C72.8802 47.0509 70.6629 44.8245 70.6629 42.0749C70.6629 39.3253 72.8802 37.0989 75.6185 37.0989C78.3567 37.0989 80.574 39.3253 80.574 42.0749C80.574 44.8245 78.3567 47.0509 75.6185 47.0509Z" fill="#221E1F"></path><path d="M75.6185 0C70.9918 0 67.2373 3.7663 67.2373 8.41573C67.2373 13.0652 70.9881 16.8315 75.6185 16.8315C80.2488 16.8315 83.9996 13.0652 83.9996 8.41573C83.9996 3.7663 80.2451 0 75.6185 0ZM75.6185 13.3917C72.8802 13.3917 70.6629 11.1653 70.6629 8.41573C70.6629 5.66614 72.8802 3.43976 75.6185 3.43976C78.3567 3.43976 80.574 5.66614 80.574 8.41573C80.574 11.1653 78.3567 13.3917 75.6185 13.3917Z" fill="#221E1F"></path><path d="M42.0981 63.8787C44.835 63.8787 47.0536 61.6509 47.0536 58.9027C47.0536 56.1546 44.835 53.9268 42.0981 53.9268C39.3612 53.9268 37.1426 56.1546 37.1426 58.9027C37.1426 61.6509 39.3612 63.8787 42.0981 63.8787Z" fill="#221E1F"></path><path d="M75.6185 50.4873C70.9918 50.4873 67.2373 54.2536 67.2373 58.903C67.2373 63.5525 70.9881 67.3188 75.6185 67.3188C80.2488 67.3188 83.9996 63.5525 83.9996 58.903C83.9996 54.2536 80.2488 50.4873 75.6185 50.4873ZM75.6185 63.879C72.8802 63.879 70.6629 61.6526 70.6629 58.903C70.6629 56.1535 72.8802 53.9271 75.6185 53.9271C78.3567 53.9271 80.574 56.1535 80.574 58.903C80.574 61.6526 78.3567 63.879 75.6185 63.879Z" fill="#00A999"></path><path d="M5.91654 106.54C6.62605 106.54 7.20253 106.462 7.64598 106.306C8.48483 106.006 8.90611 105.445 8.90611 104.629C8.90611 104.15 8.69917 103.783 8.28159 103.52C7.86401 103.263 7.20992 103.041 6.31933 102.844L4.79683 102.503C3.3002 102.161 2.26549 101.794 1.6927 101.393C0.724508 100.725 0.236716 99.6827 0.236716 98.2653C0.236716 96.9703 0.706031 95.8979 1.64097 95.0407C2.5759 94.1836 3.95428 93.7568 5.77242 93.7568C7.28753 93.7568 8.58092 94.1613 9.65258 94.9665C10.7242 95.7754 11.2859 96.9443 11.3377 98.4805H8.44788C8.39615 97.6122 8.01921 96.9925 7.31709 96.6289C6.84777 96.3877 6.2676 96.2652 5.56917 96.2652C4.79314 96.2652 4.17601 96.4211 3.71408 96.7365C3.25216 97.0519 3.01935 97.4897 3.01935 98.05C3.01935 98.5658 3.24846 98.9517 3.703 99.2078C3.99493 99.3784 4.61945 99.5788 5.57656 99.8052L8.05617 100.403C9.14261 100.666 9.96299 101.015 10.5173 101.453C11.3783 102.132 11.807 103.115 11.807 104.403C11.807 105.69 11.3044 106.818 10.2993 107.69C9.29413 108.562 7.8714 109 6.03848 109C4.20557 109 2.69046 108.57 1.6151 107.713C0.539738 106.852 0.00390625 105.672 0.00390625 104.169H2.87153C2.96392 104.829 3.1413 105.323 3.40736 105.649C3.89516 106.243 4.73031 106.54 5.91654 106.54Z" fill="#1D1D1B"></path><path d="M16.6661 94.0908V96.6697H13.8428V94.0908H16.6661ZM16.6661 97.9425V108.629H13.8428V97.9425H16.6661Z" fill="#1D1D1B"></path><path d="M30.04 94.1797V96.74H25.7349V108.633H22.7084V96.74H18.3848V94.1797H30.04Z" fill="#1D1D1B"></path><path d="M35.8309 100.521C34.7112 100.521 33.961 100.889 33.5767 101.62C33.3624 102.031 33.2552 102.666 33.2552 103.519V108.625H30.4541V97.9387H33.1111V99.8014C33.5398 99.0889 33.913 98.6029 34.2345 98.3394C34.7555 97.9015 35.4318 97.6826 36.267 97.6826C36.3187 97.6826 36.363 97.6826 36.4 97.6863C36.4369 97.6863 36.5145 97.6937 36.6402 97.7012V100.562C36.4628 100.544 36.3076 100.529 36.1709 100.521C36.0341 100.514 35.9233 100.51 35.8383 100.51L35.8309 100.521Z" fill="#1D1D1B"></path><path d="M38.6613 99.1005C39.3967 98.158 40.6605 97.6904 42.4491 97.6904C43.6131 97.6904 44.6478 97.9242 45.5532 98.388C46.4586 98.8519 46.9094 99.7276 46.9094 101.015V105.917C46.9094 106.258 46.9168 106.67 46.9279 107.153C46.9463 107.52 47.0018 107.769 47.0942 107.898C47.1865 108.028 47.3233 108.136 47.5044 108.221V108.633H44.4778C44.3928 108.418 44.3337 108.214 44.3004 108.025C44.2672 107.835 44.2413 107.62 44.2228 107.379C43.8385 107.798 43.3951 108.154 42.8962 108.448C42.2975 108.793 41.6213 108.967 40.8637 108.967C39.8992 108.967 39.1047 108.692 38.4765 108.14C37.8483 107.587 37.5342 106.804 37.5342 105.791C37.5342 104.477 38.0368 103.527 39.0493 102.937C39.6036 102.618 40.4166 102.388 41.4883 102.251L42.4343 102.132C42.9479 102.065 43.3175 101.984 43.5392 101.887C43.9346 101.716 44.1342 101.453 44.1342 101.093C44.1342 100.655 43.9826 100.351 43.6796 100.188C43.3766 100.021 42.9331 99.9391 42.3456 99.9391C41.6878 99.9391 41.2222 100.102 40.9487 100.429C40.7529 100.67 40.6235 100.997 40.557 101.408H37.8705C37.9296 100.473 38.1883 99.7053 38.6502 99.1042L38.6613 99.1005ZM40.7307 106.611C40.9894 106.826 41.3109 106.934 41.6878 106.934C42.2865 106.934 42.8371 106.756 43.3433 106.403C43.8459 106.051 44.1083 105.405 44.1305 104.47V103.431C43.9531 103.542 43.7757 103.631 43.5983 103.702C43.4209 103.768 43.1733 103.835 42.8629 103.891L42.2384 104.01C41.6508 104.114 41.2333 104.24 40.9783 104.392C40.5496 104.648 40.3353 105.041 40.3353 105.579C40.3353 106.058 40.4683 106.399 40.7344 106.607L40.7307 106.611Z" fill="#1D1D1B"></path><path d="M54.2522 106.64V108.729L52.933 108.777C51.6174 108.822 50.7194 108.595 50.239 108.091C49.9249 107.771 49.7697 107.278 49.7697 106.61V100.031H48.2842V98.0421H49.7697V95.0625H52.5228V98.0421H54.2522V100.031H52.5228V105.679C52.5228 106.116 52.5782 106.391 52.6891 106.499C52.8 106.606 53.1399 106.662 53.7053 106.662C53.7903 106.662 53.879 106.662 53.9751 106.658C54.0675 106.658 54.1635 106.651 54.2522 106.643V106.64Z" fill="#1D1D1B"></path><path d="M58.9014 94.0908V96.6697H56.0781V94.0908H58.9014ZM58.9014 97.9425V108.629H56.0781V97.9425H58.9014Z" fill="#1D1D1B"></path><path d="M70.4718 99.2964C71.3698 100.428 71.8206 101.764 71.8206 103.308C71.8206 104.851 71.3698 106.217 70.4718 107.33C69.5738 108.443 68.2102 109 66.381 109C64.5518 109 63.1882 108.443 62.2902 107.33C61.3922 106.217 60.9414 104.873 60.9414 103.308C60.9414 101.742 61.3922 100.428 62.2902 99.2964C63.1882 98.1646 64.5518 97.6006 66.381 97.6006C68.2102 97.6006 69.5738 98.1646 70.4718 99.2964ZM66.3699 99.9643C65.557 99.9643 64.9287 100.254 64.489 100.833C64.0492 101.411 63.8312 102.235 63.8312 103.308C63.8312 104.38 64.0492 105.207 64.489 105.786C64.9287 106.369 65.5533 106.658 66.3699 106.658C67.1866 106.658 67.8074 106.369 68.2435 105.786C68.6796 105.204 68.8976 104.376 68.8976 103.308C68.8976 102.239 68.6796 101.411 68.2435 100.833C67.8074 100.254 67.1829 99.9643 66.3699 99.9643Z" fill="#1D1D1B"></path><path d="M78.8159 100.013C77.8736 100.013 77.2232 100.414 76.8722 101.219C76.6911 101.642 76.5987 102.188 76.5987 102.845V108.629H73.8271V97.965H76.5137V99.5235C76.8722 98.9743 77.2084 98.581 77.5299 98.3361C78.1027 97.9057 78.827 97.6904 79.7065 97.6904C80.8077 97.6904 81.7057 97.9799 82.4042 98.5587C83.1026 99.1376 83.4537 100.095 83.4537 101.434V108.629H80.6045V102.128C80.6045 101.568 80.5306 101.134 80.3791 100.833C80.1056 100.284 79.5846 100.01 78.8159 100.01V100.013Z" fill="#1D1D1B"></path></g><defs><clipPath id="clip0_329_141"><rect width="84" height="109" fill="white"></rect></clipPath></defs></svg> 