<?xml version="1.0" encoding="UTF-8"?>
<svg id="Layer_2" data-name="Layer 2" xmlns="http://www.w3.org/2000/svg" viewBox="0 0 84 109">
  <defs>
    <style>
      .cls-1 {
        fill: none;
      }

      .cls-1, .cls-2, .cls-3, .cls-4, .cls-5 {
        stroke-width: 0px;
      }

      .cls-2 {
        fill: #221e1f;
      }

      .cls-3 {
        fill: #d2d832;
      }

      .cls-4 {
        fill: #fff;
      }

      .cls-5 {
        fill: #00a999;
      }
    </style>
  </defs>
  <g id="Layer_1-2" data-name="Layer 1">
    <g>
      <ellipse class="cls-1" cx="8.58" cy="42.07" rx="4.96" ry="4.98"/>
      <ellipse class="cls-1" cx="8.58" cy="75.73" rx="4.96" ry="4.98"/>
      <path class="cls-1" d="m8.58,53.93c-2.74,0-4.96,2.23-4.96,4.98s2.22,4.98,4.96,4.98,4.96-2.23,4.96-4.98-2.22-4.98-4.96-4.98Z"/>
      <path class="cls-1" d="m13.32,23.87c-.44-1.52-1.57-2.74-3.04-3.28,1.47.54,2.6,1.76,3.04,3.28Z"/>
      <ellipse class="cls-1" cx="25.34" cy="75.73" rx="4.96" ry="4.98"/>
      <path class="cls-1" d="m13.43,26.25c-.46,2.27-2.46,3.97-4.85,3.97-2.74,0-4.96-2.23-4.96-4.98,0-2.26,1.52-4.15,3.58-4.76-2.06.6-3.58,2.49-3.58,4.76,0,2.75,2.22,4.98,4.96,4.98,2.4,0,4.39-1.7,4.85-3.97Z"/>
      <path class="cls-1" d="m25.34,16.83h0c-.12,0-.23-.01-.34-.02.11,0,.23.02.34.02Z"/>
      <path class="cls-1" d="m50.47,8.41c0,4.65,3.75,8.42,8.38,8.42s8.38,3.77,8.38,8.42-3.75,8.42-8.38,8.42-8.38,3.77-8.38,8.42-3.75,8.42-8.38,8.42c-1.01,0-1.98.18-2.88.51-.26.09-.51.2-.75.32-.24.12-.48.25-.71.39-.23.14-.45.29-.67.45-.33.24-.63.51-.91.79-.28.29-.55.59-.79.92-.48.65-.88,1.37-1.16,2.14-.09.26-.17.52-.24.79-.17.67-.26,1.38-.26,2.1,0,4.65,3.75,8.42,8.38,8.42,1.88,0,3.62-.62,5.01-1.67.54-.4,1.02-.87,1.45-1.39.09-.1.17-.21.25-.32,1.05-1.41,1.67-3.15,1.67-5.04,0-4.64,3.73-8.39,8.34-8.41-4.61-.02-8.34-3.78-8.34-8.41s3.75-8.42,8.38-8.42,8.38,3.76,8.38,8.41c0-4.65,3.76-8.41,8.38-8.41s8.38,3.77,8.38,8.42-3.73,8.4-8.35,8.41c4.62.02,8.35,3.78,8.35,8.41s-3.75,8.42-8.38,8.42h0c4.58.01,8.3,3.7,8.37,8.29V0h-8.38c4.63,0,8.38,3.77,8.38,8.42s-3.75,8.42-8.38,8.42-8.38-3.77-8.38-8.42,3.75-8.42,8.38-8.42h-33.52c4.63,0,8.38,3.76,8.38,8.41Zm-8.38,55.47c-2.74,0-4.96-2.23-4.96-4.98s2.22-4.98,4.96-4.98,4.96,2.23,4.96,4.98-2.22,4.98-4.96,4.98Zm33.52-43.61c2.74,0,4.96,2.23,4.96,4.98s-2.22,4.98-4.96,4.98-4.96-2.23-4.96-4.98,2.22-4.98,4.96-4.98ZM58.86,3.44c2.74,0,4.96,2.23,4.96,4.98s-2.22,4.98-4.96,4.98-4.96-2.23-4.96-4.98,2.22-4.98,4.96-4.98Z"/>
      <path class="cls-1" d="m20.38,42.07c0-2.75,2.22-4.98,4.96-4.98s4.87,2.15,4.94,4.84c-.07-2.68-2.25-4.84-4.94-4.84s-4.96,2.23-4.96,4.98c0,.34.03.68.1,1-.07-.32-.1-.66-.1-1Z"/>
      <path class="cls-1" d="m75.62,47.05c2.74,0,4.96-2.23,4.96-4.98s-2.22-4.98-4.96-4.98-4.96,2.23-4.96,4.98,2.22,4.98,4.96,4.98Z"/>
      <path class="cls-1" d="m75.62,13.39c2.74,0,4.96-2.23,4.96-4.98s-2.22-4.98-4.96-4.98-4.96,2.23-4.96,4.98,2.22,4.98,4.96,4.98Z"/>
      <path class="cls-1" d="m75.62,53.93c-2.74,0-4.96,2.23-4.96,4.98s2.22,4.98,4.96,4.98,4.96-2.23,4.96-4.98-2.22-4.98-4.96-4.98Z"/>
      <path class="cls-1" d="m75.59,50.49c-4.61-.02-8.35-3.77-8.35-8.41,0,4.63-3.73,8.39-8.34,8.41,4.61.02,8.34,3.78,8.34,8.41,0,.47.05.93.12,1.38-.07-.45-.12-.91-.12-1.38,0-4.64,3.74-8.4,8.35-8.41Z"/>
      <path class="cls-1" d="m32.34,46.7c-.06.09-.13.18-.19.27.06-.09.13-.18.19-.27Z"/>
      <path class="cls-1" d="m42.09,30.22s0,0,0,0c-2.74,0-4.95-2.23-4.95-4.98s2.22-4.97,4.95-4.98c0,0,0,0,0,0-2.74,0-4.96,2.23-4.96,4.98s2.22,4.98,4.96,4.98Z"/>
      <path class="cls-1" d="m33.72,8.41c0-4.65,3.76-8.41,8.38-8.41h-16.76c4.63,0,8.38,3.76,8.38,8.41Z"/>
      <path class="cls-1" d="m31.85,47.38c-.08.09-.16.18-.24.27.08-.09.16-.18.24-.27Z"/>
      <path class="cls-1" d="m33.12,45.2c-.04.09-.07.18-.11.26.04-.09.07-.18.11-.26Z"/>
      <path class="cls-1" d="m33.39,44.42c-.02.08-.04.16-.07.24.03-.08.05-.16.07-.24Z"/>
      <path class="cls-1" d="m33.57,43.65c0,.05-.02.1-.03.15.01-.05.02-.1.03-.15Z"/>
      <path class="cls-1" d="m32.77,45.97c-.05.09-.1.18-.15.27.05-.09.1-.18.15-.27Z"/>
      <path class="cls-1" d="m31.29,48.01c-.11.11-.22.2-.33.31.11-.1.23-.2.33-.31Z"/>
      <path class="cls-1" d="m22.85,50.12c-.52-.16-1.03-.38-1.5-.64-.12-.07-.24-.13-.35-.2-.35-.21-.68-.45-.99-.71-1.86-1.54-3.05-3.88-3.05-6.49h0c0,4.64-3.73,8.4-8.35,8.41,4.61.02,8.35,3.78,8.35,8.41,0,1.16.24,2.27.66,3.28-.42-1.01-.66-2.11-.66-3.27,0-4.65,3.75-8.42,8.38-8.42-.72,0-1.42-.09-2.09-.26-.14-.04-.27-.07-.4-.12Z"/>
      <path class="cls-1" d="m38.11,34.68c1.19-.65,2.55-1.01,3.99-1.01s2.81-.37,4-1.02c-1.19.65-2.55,1.01-3.99,1.01s-2.81.37-4,1.02Z"/>
      <path class="cls-1" d="m26.31,50.43c-.31.04-.61.06-.93.06.31,0,.62-.02.93-.06Z"/>
      <path class="cls-1" d="m30.63,48.6c-.26.21-.53.4-.81.58.28-.18.56-.37.81-.58Z"/>
      <path class="cls-1" d="m27.24,50.27c-.19.04-.39.08-.59.11.2-.03.39-.07.59-.11Z"/>
      <path class="cls-1" d="m16.95,25.24c0,2.62,1.19,4.95,3.05,6.49-1.86-1.54-3.05-3.88-3.05-6.49,0-2.91-1.47-5.47-3.7-6.98,2.23,1.51,3.69,4.07,3.69,6.98Z"/>
      <path class="cls-1" d="m16.95,8.42c0,.68.09,1.33.24,1.97-.15-.63-.24-1.29-.24-1.97,0-4.65,3.75-8.42,8.38-8.42H8.58c4.63,0,8.38,3.77,8.38,8.42Z"/>
      <path class="cls-1" d="m75.63,84.16c-4.63,0-8.38-3.77-8.38-8.42s-3.75-8.42-8.38-8.42c-.68,0-1.34.09-1.97.24-.17.04-.35.09-.52.14-.21.06-.41.14-.61.22-.11.04-.21.09-.32.13-.43.19-.84.42-1.23.68-.01.01-.03.02-.04.03-.52.35-.99.76-1.42,1.22-.04.04-.07.08-.11.12-.24.27-.47.56-.68.86l-.06.08c-.22.32-.41.66-.58,1.01,0,.02-.02.03-.03.05-.03.07-.06.14-.1.22-.02.06-.05.11-.07.16-.04.09-.07.17-.1.26-.01.04-.03.08-.05.12-.02.06-.04.11-.06.17-.03.07-.05.14-.07.22,0,.01-.01.02-.01.03-.04.12-.07.24-.1.36-.05.2-.1.41-.13.62-.04.2-.07.41-.09.62,0,.08-.01.16-.02.25,0,.06-.01.12-.01.18,0,.07,0,.14,0,.22,0,.07,0,.14,0,.22,0,4.65-3.75,8.42-8.38,8.42s-8.38-3.77-8.38-8.42c0,0,0,0,0,0,0,4.65-3.75,8.41-8.38,8.41s-8.38-3.77-8.38-8.42h0c0,4.65-3.75,8.42-8.38,8.42S.2,80.38.2,75.73s3.75-8.41,8.38-8.42c-4.63,0-8.38-3.77-8.38-8.42s3.73-8.4,8.35-8.41c-4.61-.02-8.35-3.78-8.35-8.41s3.75-8.41,8.38-8.42c-4.63,0-8.38-3.77-8.38-8.42s3.73-8.4,8.35-8.41C3.93,16.81.2,13.05.2,8.42S3.95,0,8.58,0H0v109h6.04c-1.83,0-3.35-.43-4.42-1.29-1.08-.86-1.61-2.04-1.61-3.54h2.87c.09.66.27,1.15.54,1.48.49.59,1.32.89,2.51.89.71,0,1.29-.08,1.73-.23.84-.3,1.26-.86,1.26-1.68,0-.48-.21-.85-.62-1.11-.42-.26-1.07-.48-1.96-.68l-1.52-.34c-1.5-.34-2.53-.71-3.1-1.11-.97-.67-1.46-1.71-1.46-3.13,0-1.3.47-2.37,1.4-3.22.93-.86,2.31-1.28,4.13-1.28,1.52,0,2.81.4,3.88,1.21,1.07.81,1.63,1.98,1.69,3.51h-2.89c-.05-.87-.43-1.49-1.13-1.85-.47-.24-1.05-.36-1.75-.36-.78,0-1.39.16-1.86.47-.46.32-.69.75-.69,1.31,0,.52.23.9.68,1.16.29.17.92.37,1.87.6l2.48.6c1.09.26,1.91.61,2.46,1.05.86.68,1.29,1.66,1.29,2.95s-.5,2.41-1.51,3.29c-1.01.87-2.43,1.31-4.26,1.31h60.34c-1.83,0-3.19-.56-4.09-1.67-.9-1.11-1.35-2.46-1.35-4.02s.45-2.88,1.35-4.01c.9-1.13,2.26-1.7,4.09-1.7s3.19.56,4.09,1.7c.9,1.13,1.35,2.47,1.35,4.01s-.45,2.91-1.35,4.02c-.9,1.11-2.26,1.67-4.09,1.67h17.62v-33.12c-.07,4.59-3.79,8.28-8.37,8.28Zm-58.96,24.47h-2.82v-10.69h2.82v10.69Zm0-11.96h-2.82v-2.58h2.82v2.58Zm13.37.07h-4.31v11.89h-3.03v-11.89h-4.32v-2.56h11.66v2.56Zm6.6,3.82c-.18-.02-.33-.03-.47-.04-.14,0-.25-.01-.33-.01h0c-1.12.01-1.87.38-2.25,1.11-.21.41-.32,1.05-.32,1.9v5.11h-2.8v-10.69h2.66v1.86c.43-.71.8-1.2,1.12-1.46.52-.44,1.2-.66,2.03-.66.05,0,.1,0,.13,0,.04,0,.11,0,.24.01v2.86Zm10.86,8.07h-3.03c-.08-.21-.14-.42-.18-.61-.03-.19-.06-.41-.08-.65-.38.42-.83.77-1.33,1.07-.6.35-1.27.52-2.03.52-.96,0-1.76-.27-2.39-.83-.63-.55-.94-1.34-.94-2.35,0-1.31.5-2.26,1.52-2.85.55-.32,1.37-.55,2.44-.69l.95-.12c.51-.07.88-.15,1.1-.24.4-.17.6-.43.6-.79,0-.44-.15-.74-.45-.91-.3-.17-.75-.25-1.33-.25-.66,0-1.12.16-1.4.49-.2.24-.33.57-.39.98h-2.69c.06-.93.32-1.7.78-2.3h.01c.74-.95,2-1.41,3.79-1.41,1.16,0,2.2.23,3.1.7.91.46,1.36,1.34,1.36,2.63v4.9c0,.34,0,.75.02,1.24.02.37.07.62.17.74.09.13.23.24.41.32v.41Zm6.75-8.6h-1.73v5.65c0,.44.06.71.17.82.11.11.45.16,1.02.16.08,0,.17,0,.27,0,.09,0,.19,0,.28-.02h0s0,0,0,0v2.09l-1.32.05c-1.32.05-2.21-.18-2.69-.69-.31-.32-.47-.81-.47-1.48v-6.58h-1.49v-1.99h1.49v-2.98h2.75v2.98h1.73v1.99Zm4.65,8.6h-2.82v-10.69h2.82v10.69Zm0-11.96h-2.82v-2.58h2.82v2.58Zm24.55,11.96h-2.85v-6.5c0-.56-.07-.99-.23-1.29-.27-.55-.79-.82-1.56-.82h0c-.94,0-1.59.4-1.94,1.21-.18.42-.27.97-.27,1.63v5.78h-2.77v-10.66h2.69v1.56c.36-.55.69-.94,1.02-1.19.57-.43,1.3-.65,2.18-.65,1.1,0,2,.29,2.7.87.7.58,1.05,1.54,1.05,2.88v7.2Z"/>
      <path class="cls-1" d="m66.37,99.96c-.81,0-1.44.29-1.88.87-.44.58-.66,1.4-.66,2.47s.22,1.9.66,2.48c.44.58,1.06.87,1.88.87s1.44-.29,1.87-.87c.44-.58.65-1.41.65-2.48s-.22-1.9-.65-2.47c-.44-.58-1.06-.87-1.87-.87Z"/>
      <path class="cls-1" d="m25.34,13.39c2.74,0,4.96-2.23,4.96-4.98s-2.22-4.98-4.96-4.98-4.96,2.23-4.96,4.98,2.22,4.98,4.96,4.98Z"/>
      <path class="cls-1" d="m42.86,103.89l-.62.12c-.59.1-1.01.23-1.26.38-.43.26-.64.65-.64,1.19,0,.48.13.82.4,1.03h0c.26.22.58.33.96.33.6,0,1.15-.18,1.66-.53.5-.35.76-1,.79-1.93v-1.04c-.18.11-.35.2-.53.27-.18.07-.43.13-.74.19Z"/>
      <path class="cls-4" d="m.2,8.42c0,4.64,3.73,8.39,8.35,8.41.01,0,.02,0,.03,0,1.74,0,3.35.53,4.69,1.44,2.23,1.51,3.7,4.07,3.7,6.98,0,2.61,1.19,4.95,3.05,6.49,1.45,1.2,3.31,1.92,5.33,1.92,4.63,0,8.38-3.77,8.38-8.42s3.75-8.42,8.38-8.42h.01c4.63,0,8.38,3.77,8.38,8.42,0,3.2-1.78,5.98-4.39,7.4-1.19.65-2.55,1.02-4,1.02s-2.81.37-3.99,1.01c-2.61,1.43-4.38,4.2-4.38,7.4,0,.54-.06,1.06-.16,1.57,0,.05-.02.1-.03.15-.04.21-.1.41-.16.61-.02.08-.04.16-.07.24-.06.19-.13.37-.2.55-.04.09-.07.18-.11.26-.07.17-.15.34-.24.5-.05.09-.1.18-.15.27-.09.15-.18.31-.28.46-.06.09-.13.18-.19.27-.1.14-.2.28-.31.41-.08.09-.16.18-.24.27-.11.12-.21.24-.32.36-.11.11-.22.2-.33.31-.09.08-.18.17-.28.25-.02.01-.03.02-.05.04-.26.21-.53.4-.81.58-.04.03-.08.06-.12.09-.11.07-.23.14-.35.2-.48.26-.98.47-1.5.64-.13.04-.27.08-.4.12-.07.02-.13.02-.2.04-.19.04-.39.08-.59.11-.11.02-.23.04-.34.05-.31.04-.61.06-.93.06-.01,0-.03,0-.04,0,0,0,0,0,0,0-4.63,0-8.38,3.77-8.38,8.42,0,1.16.23,2.27.66,3.27,1.27,3.02,4.25,5.13,7.72,5.13h0c4.63,0,8.38,3.77,8.38,8.42,0,0,0,0,0,0s0,0,0,0c0,4.65,3.75,8.42,8.38,8.42s8.38-3.77,8.38-8.42c0-.07,0-.14,0-.22,0-.07,0-.15,0-.22,0-.06,0-.12.01-.18,0-.09.01-.17.02-.25.02-.21.05-.42.09-.62.04-.21.08-.42.13-.62.03-.12.07-.24.1-.36,0-.01,0-.02.01-.03.02-.07.05-.14.07-.22.02-.06.04-.12.06-.17.01-.04.03-.08.05-.12.03-.09.07-.17.1-.26.02-.05.05-.1.07-.16.03-.07.06-.14.1-.22,0-.02.02-.03.03-.05.17-.35.36-.69.58-1.01l.06-.08c.21-.3.43-.59.68-.86.04-.04.07-.08.11-.12.43-.46.9-.87,1.42-1.22.01,0,.03-.01.04-.03.39-.26.8-.49,1.23-.68.1-.05.21-.09.32-.13.2-.08.4-.16.61-.22.17-.05.35-.1.52-.14.63-.15,1.29-.24,1.97-.24,4.63,0,8.38,3.77,8.38,8.42,0-.06,0-.12,0-.18,0,.06,0,.12,0,.18,0,4.65,3.75,8.42,8.38,8.42s8.3-3.69,8.37-8.28v-.27c-.07-4.59-3.79-8.28-8.37-8.28h0s0-.01,0-.01c-.27,0-.54.01-.8.04.26-.03.53-.04.8-.04-4.16,0-7.6-3.05-8.26-7.04-.07-.45-.12-.91-.12-1.38,0-4.63-3.73-8.39-8.34-8.41-.01,0-.02,0-.04,0s-.02,0-.04,0c-4.61.02-8.34,3.78-8.34,8.41,0,1.89-.62,3.63-1.67,5.04-.08.11-.16.22-.25.32-.43.52-.92.99-1.45,1.39-1.4,1.05-3.13,1.67-5.01,1.67-4.63,0-8.38-3.77-8.38-8.42,0-.73.09-1.43.26-2.1.07-.27.15-.53.24-.79.28-.77.67-1.49,1.16-2.14.24-.32.51-.63.79-.92.28-.29.59-.55.91-.79.21-.16.44-.31.67-.45.23-.14.47-.27.71-.39.24-.12.5-.23.75-.32.9-.33,1.87-.51,2.88-.51,4.63,0,8.38-3.77,8.38-8.42s3.75-8.42,8.38-8.42,8.38-3.77,8.38-8.42-3.75-8.42-8.38-8.42-8.38-3.77-8.38-8.42S46.72,0,42.1,0s-8.38,3.76-8.38,8.41c0,0,0,0,0,0,0,4.65-3.75,8.42-8.38,8.42h0c-.12,0-.23-.01-.34-.02-3.8-.15-6.94-2.84-7.8-6.43-.15-.63-.24-1.29-.24-1.97C16.95,3.77,13.2,0,8.58,0S.2,3.77.2,8.42Zm25.14,55.46c-2.74,0-4.96-2.23-4.96-4.98s2.22-4.98,4.96-4.98,4.96,2.23,4.96,4.98-2.22,4.98-4.96,4.98Zm50.28,6.88c2.74,0,4.96,2.23,4.96,4.98s-2.22,4.98-4.96,4.98-4.96-2.23-4.96-4.98,2.22-4.98,4.96-4.98Zm-16.76-16.83c2.74,0,4.96,2.23,4.96,4.98s-2.22,4.98-4.96,4.98-4.96-2.23-4.96-4.98,2.22-4.98,4.96-4.98Zm-16.76,16.83c2.74,0,4.96,2.23,4.96,4.98s-2.22,4.98-4.96,4.98-4.96-2.23-4.96-4.98,2.22-4.98,4.96-4.98Zm0-23.7c-2.74,0-4.96-2.23-4.96-4.98s2.22-4.98,4.96-4.98,4.96,2.23,4.96,4.98-2.22,4.98-4.96,4.98Zm16.76-26.78c2.74,0,4.96,2.23,4.96,4.98s-2.22,4.98-4.96,4.98-4.96-2.23-4.96-4.98,2.22-4.98,4.96-4.98ZM42.1,3.44c2.74,0,4.96,2.23,4.96,4.98s-2.22,4.98-4.96,4.98-4.96-2.23-4.96-4.98,2.22-4.98,4.96-4.98Zm-16.76,16.43c2.74,0,4.96,2.23,4.96,4.98s-2.22,4.98-4.96,4.98-4.96-2.23-4.96-4.98,2.22-4.98,4.96-4.98ZM8.58,3.44c2.74,0,4.96,2.23,4.96,4.98s-2.22,4.98-4.96,4.98-4.96-2.23-4.96-4.98,2.22-4.98,4.96-4.98Z"/>
      <path class="cls-4" d="m58.86,47.05c-2.74,0-4.96-2.23-4.96-4.98s2.22-4.98,4.96-4.98,4.96,2.23,4.96,4.98-2.22,4.98-4.96,4.98Z"/>
      <path class="cls-4" d="m58.82,50.49s.02,0,.04,0,.02,0,.04,0c-.01,0-.02,0-.04,0s-.02,0-.04,0Z"/>
      <ellipse class="cls-5" cx="8.58" cy="8.42" rx="4.96" ry="4.98"/>
      <ellipse class="cls-5" cx="25.34" cy="24.85" rx="4.96" ry="4.98"/>
      <path class="cls-5" d="m37.14,25.24c0,2.75,2.22,4.98,4.95,4.98,2.74,0,4.95-2.23,4.95-4.98s-2.22-4.98-4.95-4.98c-2.74,0-4.95,2.23-4.95,4.98Z"/>
      <ellipse class="cls-5" cx="42.1" cy="42.07" rx="4.96" ry="4.98"/>
      <ellipse class="cls-5" cx="58.86" cy="42.07" rx="4.96" ry="4.98"/>
      <path class="cls-5" d="m58.86,63.88c2.74,0,4.96-2.23,4.96-4.98s-2.22-4.98-4.96-4.98-4.96,2.23-4.96,4.98,2.22,4.98,4.96,4.98Z"/>
      <path class="cls-5" d="m42.1,80.71c2.74,0,4.96-2.23,4.96-4.98s-2.22-4.98-4.96-4.98-4.96,2.23-4.96,4.98,2.22,4.98,4.96,4.98Z"/>
      <path class="cls-5" d="m75.62,80.71c2.74,0,4.96-2.23,4.96-4.98s-2.22-4.98-4.96-4.98-4.96,2.23-4.96,4.98,2.22,4.98,4.96,4.98Z"/>
      <ellipse class="cls-5" cx="58.86" cy="25.24" rx="4.96" ry="4.98"/>
      <ellipse class="cls-5" cx="42.1" cy="8.42" rx="4.96" ry="4.98"/>
      <ellipse class="cls-4" cx="58.86" cy="8.42" rx="4.96" ry="4.98"/>
      <ellipse class="cls-4" cx="75.62" cy="25.24" rx="4.96" ry="4.98"/>
      <path class="cls-5" d="m16.95,8.42c0,.68.09,1.33.24,1.97.86,3.59,4,6.28,7.8,6.43.11,0,.23.02.34.02,4.63,0,8.38-3.77,8.38-8.42,0,0,0,0,0,0,0-4.65-3.75-8.41-8.38-8.41s-8.38,3.77-8.38,8.42Zm8.38-4.98c2.74,0,4.96,2.23,4.96,4.98s-2.22,4.98-4.96,4.98-4.96-2.23-4.96-4.98,2.22-4.98,4.96-4.98Z"/>
      <path class="cls-5" d="m25.34,16.83h0c4.63,0,8.38-3.77,8.38-8.42,0,0,0,0,0,0,0,0,0,0,0,0,0,4.65-3.75,8.42-8.38,8.42Z"/>
      <path class="cls-5" d="m17.19,10.38c.86,3.59,4,6.28,7.8,6.43-3.8-.15-6.94-2.84-7.8-6.43Z"/>
      <path class="cls-4" d="m8.61,50.49c4.62-.02,8.35-3.78,8.35-8.41,0-4.65-3.75-8.42-8.38-8.42,0,0,0,0,0,0-4.62,0-8.38,3.77-8.38,8.42s3.73,8.4,8.35,8.41c.01,0,.02,0,.03,0,.01,0,.02,0,.03,0Zm-4.99-8.41c0-2.75,2.22-4.98,4.96-4.98s4.96,2.23,4.96,4.98-2.22,4.98-4.96,4.98-4.96-2.23-4.96-4.98Z"/>
      <path class="cls-4" d="m8.58,67.32s0,0,0,0c-4.62,0-8.38,3.77-8.38,8.42s3.75,8.42,8.38,8.42,8.38-3.77,8.38-8.42c0-4.65-3.75-8.42-8.38-8.42Zm0,13.39c-2.74,0-4.96-2.23-4.96-4.98s2.22-4.98,4.96-4.98,4.96,2.23,4.96,4.98-2.22,4.98-4.96,4.98Z"/>
      <path class="cls-3" d="m25.34,67.33c-3.47,0-6.45-2.12-7.72-5.14-.43-1.01-.66-2.12-.66-3.28,0-4.63-3.73-8.4-8.35-8.41-.01,0-.02,0-.03,0-.01,0-.02,0-.03,0-4.62.02-8.35,3.78-8.35,8.41s3.75,8.41,8.38,8.42c0,0,0,0,0,0,4.63,0,8.38,3.77,8.38,8.42h0c0,4.65,3.75,8.42,8.38,8.42s8.38-3.76,8.38-8.41c0-4.65-3.76-8.41-8.38-8.41Zm-16.76-3.45c-2.74,0-4.96-2.23-4.96-4.98s2.22-4.98,4.96-4.98,4.96,2.23,4.96,4.98-2.22,4.98-4.96,4.98Zm16.76,16.83c-2.74,0-4.96-2.23-4.96-4.98s2.22-4.98,4.96-4.98,4.96,2.23,4.96,4.98-2.22,4.98-4.96,4.98Z"/>
      <path class="cls-3" d="m25.34,67.32h0c-3.47,0-6.45-2.12-7.72-5.13,1.27,3.02,4.25,5.14,7.72,5.14,4.63,0,8.38,3.76,8.38,8.41,0,0,0,0,0,0,0-4.65-3.75-8.42-8.38-8.42Z"/>
      <path class="cls-3" d="m8.61,50.49s-.02,0-.03,0c-.01,0-.02,0-.03,0,.01,0,.02,0,.03,0,.01,0,.02,0,.03,0Z"/>
      <path class="cls-3" d="m8.58,67.32s0,0,0,0c0,0,0,0,0,0,4.63,0,8.38,3.77,8.38,8.42h0c0-4.65-3.75-8.42-8.38-8.42Z"/>
      <path class="cls-3" d="m16.96,42.07h0c0,2.62,1.19,4.95,3.05,6.49.31.26.64.49.99.71.11.07.23.14.35.2.48.26.98.47,1.5.64.13.04.26.08.4.12.67.17,1.37.26,2.09.26,0,0,0,0,0,0,.01,0,.03,0,.04,0,.31,0,.62-.02.93-.06.11-.01.23-.03.34-.05.2-.03.39-.07.59-.11.93-.22,1.8-.59,2.58-1.08.28-.18.56-.37.81-.58.11-.09.22-.19.32-.29.11-.1.23-.2.33-.31.11-.11.22-.24.32-.36.08-.09.16-.18.24-.27.11-.13.21-.27.31-.41.06-.09.13-.18.19-.27.1-.15.19-.3.28-.46.05-.09.1-.18.15-.27.09-.16.17-.33.24-.5.04-.09.07-.18.11-.26.07-.18.14-.36.2-.55.03-.08.05-.16.07-.24.06-.2.11-.41.16-.61.01-.05.02-.1.03-.15.1-.51.15-1.03.15-1.57,0-3.2,1.78-5.98,4.39-7.4,1.19-.65,2.55-1.02,4-1.02s2.8-.37,3.99-1.01c2.61-1.43,4.38-4.2,4.38-7.4,0-4.65-3.75-8.42-8.38-8.42s-8.38,3.77-8.38,8.42-3.75,8.42-8.38,8.42c-2.03,0-3.89-.72-5.34-1.92-1.86-1.54-3.05-3.88-3.05-6.49,0-2.9-1.46-5.46-3.69-6.98-1.34-.91-2.95-1.44-4.68-1.44-.01,0-.02,0-.03,0-4.62.02-8.35,3.78-8.35,8.41s3.75,8.41,8.38,8.42c0,0,0,0,0,0,4.63,0,8.38,3.77,8.38,8.42Zm25.14-21.81s0,0,0,0c0,0,0,0,0,0,2.74,0,4.96,2.23,4.96,4.98s-2.22,4.98-4.96,4.98c0,0,0,0,0,0,0,0,0,0,0,0-2.74,0-4.96-2.23-4.96-4.98s2.22-4.98,4.96-4.98Zm-16.76,16.83c2.69,0,4.87,2.15,4.94,4.84,0,.05.01.09.01.14,0,2.75-2.22,4.98-4.96,4.98-2.4,0-4.39-1.71-4.86-3.98-.07-.32-.1-.66-.1-1,0-2.75,2.22-4.98,4.96-4.98ZM3.62,25.24c0-2.27,1.52-4.16,3.58-4.76.44-.13.9-.22,1.38-.22.6,0,1.17.12,1.7.32,1.47.54,2.6,1.76,3.04,3.28.13.44.22.9.22,1.38,0,.34-.03.68-.1,1-.46,2.27-2.46,3.97-4.85,3.97-2.74,0-4.96-2.23-4.96-4.98Z"/>
      <path class="cls-3" d="m33.72,42.08c0,.54-.06,1.06-.15,1.57.1-.51.16-1.03.16-1.57,0-3.19,1.77-5.97,4.38-7.4-2.61,1.42-4.39,4.2-4.39,7.4Z"/>
      <path class="cls-3" d="m33.72,25.25c0-4.65,3.75-8.42,8.38-8.42s8.38,3.77,8.38,8.42c0,3.19-1.77,5.97-4.38,7.4,2.61-1.42,4.39-4.2,4.39-7.4,0-4.65-3.75-8.42-8.38-8.42h-.01c-4.63,0-8.38,3.77-8.38,8.42s-3.75,8.42-8.38,8.42c-2.03,0-3.88-.72-5.33-1.92,1.45,1.2,3.31,1.92,5.34,1.92,4.63,0,8.38-3.77,8.38-8.42Z"/>
      <path class="cls-3" d="m26.65,50.38c-.11.02-.23.04-.34.05.11-.01.23-.03.34-.05Z"/>
      <path class="cls-3" d="m25.34,50.49s0,0,0,0c.01,0,.03,0,.04,0-.01,0-.03,0-.04,0,0,0,0,0,0,0Z"/>
      <path class="cls-3" d="m13.26,18.27c-1.34-.91-2.95-1.44-4.69-1.44-.01,0-.02,0-.03,0,.01,0,.02,0,.03,0,1.74,0,3.35.53,4.68,1.44Z"/>
      <path class="cls-3" d="m33.32,44.65c-.06.19-.13.37-.2.55.07-.18.14-.36.2-.55Z"/>
      <path class="cls-3" d="m32.62,46.24c-.09.15-.18.31-.28.46.1-.15.19-.3.28-.46Z"/>
      <path class="cls-3" d="m33.54,43.8c-.04.21-.1.41-.16.61.06-.2.11-.41.16-.61Z"/>
      <path class="cls-3" d="m30.68,48.57c.1-.08.18-.17.28-.25-.11.1-.21.2-.32.29.02-.01.03-.02.05-.04Z"/>
      <path class="cls-3" d="m27.44,50.23c.13-.03.27-.07.4-.12.52-.16,1.03-.38,1.5-.64.12-.06.24-.13.35-.2.04-.03.08-.06.12-.09-.78.5-1.65.87-2.58,1.08.07-.02.14-.02.2-.04Z"/>
      <path class="cls-3" d="m32.15,46.97c-.1.14-.2.28-.31.41.11-.13.21-.27.31-.41Z"/>
      <path class="cls-3" d="m31.61,47.65c-.11.12-.21.24-.32.36.11-.11.22-.24.32-.36Z"/>
      <path class="cls-3" d="m33.01,45.47c-.07.17-.16.34-.24.5.09-.16.17-.33.24-.5Z"/>
      <path class="cls-3" d="m47.05,25.24c0,2.75-2.22,4.97-4.95,4.98,0,0,0,0,0,0,2.74,0,4.96-2.23,4.96-4.98s-2.22-4.98-4.96-4.98c0,0,0,0,0,0,2.74,0,4.95,2.23,4.95,4.98Z"/>
      <path class="cls-3" d="m10.28,20.59c-.53-.2-1.1-.32-1.7-.32-.48,0-.94.09-1.38.22.44-.13.9-.22,1.38-.22.6,0,1.17.12,1.7.32Z"/>
      <path class="cls-3" d="m13.43,26.25c.07-.32.1-.66.1-1,0-.48-.09-.94-.22-1.38.13.44.22.9.22,1.38,0,.34-.03.68-.1,1Z"/>
      <path class="cls-3" d="m16.96,42.08h0c0-4.65-3.75-8.42-8.38-8.42,0,0,0,0,0,0,0,0,0,0,0,0,4.63,0,8.38,3.77,8.38,8.42Z"/>
      <path class="cls-4" d="m25.34,47.05c-2.4,0-4.39-1.7-4.85-3.97.46,2.27,2.46,3.98,4.86,3.98,2.74,0,4.96-2.23,4.96-4.98,0-.05-.01-.09-.01-.14,0,.05.01.09.01.14,0,2.75-2.22,4.98-4.96,4.98Z"/>
      <path class="cls-4" d="m67.24,42.08c0,4.64,3.74,8.39,8.35,8.41.01,0,.02,0,.03,0s.02,0,.03,0c4.62-.02,8.35-3.78,8.35-8.41s-3.75-8.42-8.38-8.42-8.38,3.76-8.38,8.41c0,0,0,0,0,0s0,0,0,0Zm8.38-4.98c2.74,0,4.96,2.23,4.96,4.98s-2.22,4.98-4.96,4.98-4.96-2.23-4.96-4.98,2.22-4.98,4.96-4.98Z"/>
      <polygon class="cls-2" points="67.24 42.08 67.24 42.07 67.24 42.07 67.24 42.07 67.24 42.08"/>
      <path class="cls-4" d="m67.24,8.42c0,4.65,3.75,8.42,8.38,8.42s8.38-3.77,8.38-8.42-3.75-8.42-8.38-8.42-8.38,3.77-8.38,8.42Zm8.38-4.98c2.74,0,4.96,2.23,4.96,4.98s-2.22,4.98-4.96,4.98-4.96-2.23-4.96-4.98,2.22-4.98,4.96-4.98Z"/>
      <path class="cls-4" d="m42.1,53.93c-2.74,0-4.96,2.23-4.96,4.98s2.22,4.98,4.96,4.98,4.96-2.23,4.96-4.98-2.22-4.98-4.96-4.98Z"/>
      <path class="cls-5" d="m84,58.9c0-4.64-3.73-8.4-8.35-8.41-.01,0-.02,0-.03,0s-.02,0-.03,0c-4.61.02-8.35,3.78-8.35,8.41,0,.47.05.93.12,1.38.66,3.99,4.1,7.04,8.26,7.04h0c4.63,0,8.38-3.77,8.38-8.42Zm-8.38,4.98c-2.74,0-4.96-2.23-4.96-4.98s2.22-4.98,4.96-4.98,4.96,2.23,4.96,4.98-2.22,4.98-4.96,4.98Z"/>
      <polygon class="cls-5" points="75.61 67.32 75.62 67.32 75.62 67.32 75.62 67.32 75.61 67.32"/>
      <path class="cls-5" d="m67.36,60.28c.66,3.99,4.1,7.03,8.26,7.04,0,0,0,0,0,0-4.16,0-7.6-3.05-8.26-7.04Z"/>
      <path class="cls-5" d="m75.59,50.49s.02,0,.03,0,.02,0,.03,0c-.01,0-.02,0-.03,0s-.02,0-.03,0Z"/>
      <path class="cls-4" d="m11.81,104.4c0-1.29-.43-2.27-1.29-2.95-.55-.44-1.37-.79-2.46-1.05l-2.48-.6c-.96-.23-1.58-.43-1.87-.6-.45-.26-.68-.64-.68-1.16,0-.56.23-1,.69-1.31.46-.32,1.08-.47,1.86-.47.7,0,1.28.12,1.75.36.7.36,1.08.98,1.13,1.85h2.89c-.05-1.54-.61-2.71-1.69-3.51-1.07-.81-2.37-1.21-3.88-1.21-1.82,0-3.2.43-4.13,1.28-.93.86-1.4,1.93-1.4,3.22,0,1.42.49,2.46,1.46,3.13.57.4,1.61.77,3.1,1.11l1.52.34c.89.2,1.54.42,1.96.68.42.26.62.63.62,1.11,0,.82-.42,1.38-1.26,1.68-.44.16-1.02.23-1.73.23-1.19,0-2.02-.3-2.51-.89-.27-.33-.44-.82-.54-1.48H0c0,1.5.54,2.68,1.61,3.54,1.08.86,2.59,1.29,4.42,1.29s3.26-.44,4.26-1.31c1.01-.87,1.51-2,1.51-3.29Z"/>
      <rect class="cls-4" x="13.84" y="97.94" width="2.82" height="10.69"/>
      <rect class="cls-4" x="13.84" y="94.09" width="2.82" height="2.58"/>
      <polygon class="cls-4" points="18.38 96.74 22.71 96.74 22.71 108.63 25.73 108.63 25.73 96.74 30.04 96.74 30.04 94.18 18.38 94.18 18.38 96.74"/>
      <path class="cls-4" d="m36.27,97.68c-.84,0-1.51.22-2.03.66-.32.26-.69.75-1.12,1.46v-1.86h-2.66v10.69h2.8v-5.11c0-.85.11-1.49.32-1.9.38-.73,1.13-1.1,2.25-1.1h0c.08-.01.2,0,.33,0,.14,0,.29.02.47.04v-2.86c-.13,0-.2-.01-.24-.01-.04,0-.08,0-.13,0Z"/>
      <path class="cls-4" d="m47.09,107.9c-.09-.13-.15-.38-.17-.74-.01-.48-.02-.9-.02-1.24v-4.9c0-1.29-.45-2.16-1.36-2.63-.91-.46-1.94-.7-3.1-.7-1.79,0-3.05.47-3.79,1.41h-.01c-.46.6-.72,1.37-.78,2.31h2.69c.07-.41.2-.74.39-.98.27-.33.74-.49,1.4-.49.59,0,1.03.08,1.33.25.3.16.45.47.45.91,0,.36-.2.62-.6.79-.22.1-.59.18-1.1.24l-.95.12c-1.07.14-1.88.37-2.44.69-1.01.59-1.52,1.54-1.52,2.85,0,1.01.31,1.8.94,2.35.63.55,1.42.83,2.39.83.76,0,1.43-.17,2.03-.52.5-.29.94-.65,1.33-1.07.02.24.04.46.08.65.03.19.09.39.18.61h3.03v-.41c-.18-.09-.32-.19-.41-.32Zm-2.96-3.43c-.02.93-.28,1.58-.79,1.93-.51.35-1.06.53-1.66.53-.38,0-.7-.11-.96-.32h0c-.27-.21-.4-.55-.4-1.03,0-.54.21-.93.64-1.19.26-.15.67-.28,1.26-.38l.62-.12c.31-.06.56-.12.74-.19.18-.07.35-.16.53-.27v1.04Z"/>
      <path class="cls-4" d="m52.52,95.06h-2.75v2.98h-1.49v1.99h1.49v6.58c0,.67.16,1.16.47,1.48.48.5,1.38.73,2.69.69l1.32-.05v-2.09c-.09,0-.18.02-.28.02-.1,0-.18,0-.27,0-.57,0-.91-.06-1.02-.16-.11-.11-.17-.38-.17-.82v-5.65h1.73v-1.99h-1.73v-2.98Z"/>
      <rect class="cls-4" x="56.08" y="94.09" width="2.82" height="2.58"/>
      <rect class="cls-4" x="56.08" y="97.94" width="2.82" height="10.69"/>
      <path class="cls-4" d="m71.82,103.31c0-1.54-.45-2.88-1.35-4.01-.9-1.13-2.26-1.7-4.09-1.7s-3.19.56-4.09,1.7c-.9,1.13-1.35,2.45-1.35,4.01s.45,2.91,1.35,4.02c.9,1.11,2.26,1.67,4.09,1.67s3.19-.56,4.09-1.67c.9-1.11,1.35-2.48,1.35-4.02Zm-3.58,2.48c-.44.58-1.06.87-1.87.87s-1.44-.29-1.88-.87c-.44-.58-.66-1.41-.66-2.48s.22-1.9.66-2.47c.44-.58,1.07-.87,1.88-.87s1.44.29,1.87.87c.44.58.65,1.41.65,2.47s-.22,1.9-.65,2.48Z"/>
      <path class="cls-4" d="m79.71,97.69c-.88,0-1.6.22-2.18.65-.32.24-.66.64-1.02,1.19v-1.56h-2.69v10.66h2.77v-5.78c0-.66.09-1.2.27-1.63.35-.8,1-1.21,1.94-1.21h0c.77,0,1.29.27,1.56.82.15.3.23.73.23,1.29v6.5h2.85v-7.2c0-1.34-.35-2.3-1.05-2.88-.7-.58-1.6-.87-2.7-.87Z"/>
    </g>
  </g>
</svg>