<?xml version="1.0" encoding="UTF-8"?>
<svg id="Layer_2" data-name="Layer 2" xmlns="http://www.w3.org/2000/svg" viewBox="0 0 194.3 52.4">
  <defs>
    <style>
      .cls-1 {
        fill: #fff;
        stroke-width: 0px;
      }
    </style>
  </defs>
  <g id="Capa_1" data-name="Capa 1">
    <g>
      <g>
        <path class="cls-1" d="m63.5.1h4.3l2,14c.2,1.5.3,2.5.4,3.6h.2c.1-1.1.2-2.2.3-3.6L72.7.1h4.3l-4.1,21.5h-5.4L63.5.1Z"/>
        <path class="cls-1" d="m79.4,21.6V.1h4.2v21.5h-4.2Z"/>
        <path class="cls-1" d="m95.1,16.5h-3.9l-.8,5h-4.2L90.4,0h5.5l4.2,21.5h-4.2l-.8-5Zm-.5-3l-1.1-6.8c-.2-1-.3-1.9-.4-3.1h-.1c-.1,1.1-.2,2-.4,3.1l-1.1,6.8h3.1Z"/>
        <path class="cls-1" d="m64.1,46.9v-1.9l2.2-.4v2c0,2.7.9,4,2.8,4,1.7,0,2.6-1.1,2.6-3.1v-.8c0-2-.3-3-2.3-4.4l-2.1-1.5c-2.1-1.4-2.8-3.1-2.8-5.1v-1c0-2.8,1.6-4.7,4.6-4.7s4.7,1.5,4.7,5v1.7l-2.1.4v-1.8c0-2.5-.8-3.6-2.5-3.6-1.6,0-2.4,1.1-2.4,2.7v1c0,1.6.5,2.6,2,3.7l2.2,1.5c2.4,1.7,3,3.4,3,5.8v.8c0,3.4-1.6,5.1-4.8,5.1-3.3.1-5.1-1.7-5.1-5.4Z"/>
        <path class="cls-1" d="m85.5,50.1v1.8h-8.2v-21.4h8v1.8h-5.9v7.6h5.4v1.8h-5.4v8.3h6.1v.1Z"/>
        <path class="cls-1" d="m98.1,35.5v1.8c0,3.4-1.8,5.4-4.9,5.4h-2.2v9.2h-2.1v-21.4h4.2c3.3,0,4.9,1.7,5,5Zm-2.2.3c0-2.5-.9-3.6-3-3.6h-2v8.9h2.1c1.9,0,2.9-1.2,2.9-3.7v-1.6Z"/>
        <path class="cls-1" d="m106.8,45.7h-4.7l-1.2,6.3h-2.1l4.4-21.5h2.6l4.4,21.5h-2.2l-1.2-6.3Zm-.3-1.8l-1.5-7.9c-.2-1.1-.3-2.2-.5-3.3h-.1c-.1,1.1-.2,2.2-.5,3.3l-1.5,7.9h4.1Z"/>
        <path class="cls-1" d="m117.7,42.6h-2.3v9.3h-2.1v-21.4h4.3c3.4,0,4.9,1.8,5,5.2v1.4c0,2.8-1,4.5-2.8,5.1l3.4,9.7h-2.3l-3.2-9.3Zm-.1-1.7c1.8,0,2.8-1.2,2.8-3.8v-1.2c0-2.7-.9-3.7-2.9-3.7h-2v8.8h2.1v-.1Z"/>
        <path class="cls-1" d="m133.2,45.7h-4.7l-1.2,6.3h-2.1l4.4-21.5h2.6l4.4,21.5h-2.1l-1.3-6.3Zm-.3-1.8l-1.5-7.9c-.2-1.1-.3-2.2-.5-3.3h-.1c-.1,1.1-.2,2.2-.5,3.3l-1.5,7.9h4.1Z"/>
        <path class="cls-1" d="m147,32.4h-4.2v19.5h-2.1v-19.5h-4.3v-1.9h10.6v1.9Z"/>
        <path class="cls-1" d="m149.9,51.9v-21.4h2.1v21.5h-2.1v-.1Z"/>
        <path class="cls-1" d="m156,46.3v-10.2c0-4,1.9-6.1,5.3-6.1s5.4,2.1,5.4,6.1v10.2c0,4-1.9,6.1-5.4,6.1s-5.3-2.1-5.3-6.1Zm8.5.2v-10.6c0-2.6-1.1-4.2-3.2-4.2s-3.1,1.5-3.1,4.2v10.5c0,2.6,1.1,4.2,3.1,4.2s3.2-1.5,3.2-4.1Z"/>
        <path class="cls-1" d="m170.6,30.5h2.4l5.3,14.7c.4,1.2.6,2.3.9,3.6h.1c-.2-1.7-.3-3.2-.3-5.2v-13.1h2v21.5h-2.3l-5.4-15c-.5-1.4-.7-2.3-.9-3.6h-.1c.2,1.4.3,2.5.3,4.1v14.5h-2v-21.5Z"/>
        <path class="cls-1" d="m184.4,46.9v-1.9l2.2-.4v2c0,2.7.9,4,2.8,4,1.7,0,2.6-1.1,2.6-3.1v-.8c0-2-.3-3-2.3-4.4l-2.1-1.5c-2.1-1.4-2.8-3.1-2.8-5.1v-1c0-2.8,1.6-4.7,4.6-4.7s4.7,1.5,4.7,5v1.7l-2.1.4v-1.8c0-2.5-.8-3.6-2.5-3.6-1.6,0-2.4,1.1-2.4,2.7v1c0,1.6.5,2.6,2,3.7l2.2,1.5c2.4,1.7,3,3.4,3,5.8v.8c0,3.4-1.6,5.1-4.8,5.1s-5.1-1.7-5.1-5.4Z"/>
      </g>
      <g>
        <polygon class="cls-1" points="26.1 6.4 26.1 45 42.9 16 26.1 6.4"/>
        <polygon class="cls-1" points="24.7 45 24.7 6.4 8 16 24.7 45"/>
        <polygon class="cls-1" points="7.8 36.7 23.5 45.7 7.8 18.3 7.8 36.7"/>
        <polygon class="cls-1" points="43.1 36.7 43.1 18.3 27.3 45.7 43.1 36.7"/>
        <path class="cls-1" d="m25.4,1C11.4,1,0,12.4,0,26.4s11.4,25.4,25.4,25.4,25.5-11.4,25.5-25.4S39.5,1,25.4,1Zm18.7,36.7l-18.3,10.5h-.8l-18.2-10.5c-.2-.1-.3-.4-.3-.6l-.1-21.4h0c0-.1,0-.2.1-.3h0s0-.1.1-.1h0l.1-.1h0L25.1,4.6c.2-.1.5-.1.7,0l18.4,10.6h0l.1.1h0s0,.1.1.1h0s0,.1.1.1h0v.2h0v21.3c0,.3-.2.6-.4.7Z"/>
      </g>
    </g>
  </g>
</svg>