<svg preserveAspectRatio="xMidYMid meet" data-bbox="1.02 23.417 689.485 226.081" viewBox="1.02 23.417 689.485 226.081" xmlns="http://www.w3.org/2000/svg" data-type="color" role="presentation" aria-hidden="true" aria-label="">
    <g>
        <path d="m69.27 155-22.14-31.83L25.38 155H1.02l33.93-46.64L2.73 63.3h24.1l21.09 29.74 20.7-29.74h22.93l-31.96 44.28L93.78 155h-24.5Z" fill="#ffffff" data-color="1"></path>
        <path d="M102.16 63.3h21.22V155h-21.22V63.3Z" fill="#ffffff" data-color="1"></path>
        <path d="M224.77 115.64c2.97 3.89 4.45 8.67 4.45 14.34 0 8.04-3.12 14.21-9.37 18.54-6.25 4.32-15.35 6.48-27.31 6.48h-47.42V63.3h44.8c11.18 0 19.76 2.14 25.74 6.42 5.98 4.28 8.97 10.09 8.97 17.42 0 4.45-1.07 8.43-3.21 11.92-2.14 3.49-5.13 6.25-8.97 8.25 5.24 1.66 9.34 4.43 12.31 8.32Zm-58.56-36.35v21.61h21.09c5.24 0 9.21-.92 11.92-2.75 2.71-1.83 4.06-4.54 4.06-8.12s-1.35-6.27-4.06-8.06c-2.71-1.79-6.68-2.69-11.92-2.69h-21.09Zm37.4 56.98c2.84-1.83 4.26-4.67 4.26-8.52 0-7.6-5.63-11.4-16.9-11.4h-24.76v22.66h24.76c5.59 0 9.8-.92 12.64-2.75Z" fill="#ffffff" data-color="1"></path>
        <path d="M255.49 145.7c-7.29-7.25-10.94-17.6-10.94-31.05V63.3h21.22v50.57c0 16.42 6.81 24.63 20.44 24.63 6.64 0 11.7-1.99 15.2-5.96 3.49-3.97 5.24-10.2 5.24-18.67V63.3h20.96v51.35c0 13.45-3.65 23.8-10.94 31.05-7.29 7.25-17.49 10.87-30.59 10.87s-23.3-3.62-30.59-10.87Z" fill="#ffffff" data-color="1"></path>
        <path d="M357.67 153.63c-6.77-1.96-12.21-4.52-16.31-7.66l7.21-15.98c3.93 2.88 8.6 5.2 14.02 6.94 5.41 1.75 10.83 2.62 16.24 2.62 6.03 0 10.48-.89 13.36-2.69 2.88-1.79 4.32-4.17 4.32-7.14 0-2.18-.85-4-2.55-5.44-1.7-1.44-3.89-2.6-6.55-3.47-2.67-.87-6.27-1.83-10.81-2.88-6.99-1.66-12.71-3.32-17.16-4.98-4.45-1.66-8.28-4.32-11.46-7.99-3.19-3.67-4.78-8.56-4.78-14.67 0-5.33 1.44-10.15 4.32-14.48 2.88-4.32 7.23-7.75 13.03-10.28 5.81-2.53 12.9-3.8 21.29-3.8 5.85 0 11.57.7 17.16 2.1 5.59 1.4 10.48 3.41 14.67 6.03l-6.55 16.11c-8.47-4.8-16.94-7.21-25.41-7.21-5.94 0-10.33.96-13.17 2.88s-4.26 4.45-4.26 7.6 1.64 5.48 4.91 7.01c3.27 1.53 8.27 3.04 15 4.52 6.99 1.66 12.71 3.32 17.16 4.98 4.45 1.66 8.27 4.28 11.46 7.86 3.19 3.58 4.78 8.43 4.78 14.54 0 5.24-1.46 10.02-4.39 14.34-2.93 4.32-7.32 7.75-13.17 10.28-5.85 2.53-12.97 3.8-21.35 3.8-7.25 0-14.26-.98-21.03-2.95Z" fill="#ffffff" data-color="1"></path>
        <path d="M3.2 209.7c1.95 1.2 4.8 2.2 7.8 2.2 4.45 0 7.05-2.35 7.05-5.75 0-3.15-1.8-4.95-6.35-6.7-5.5-1.95-8.9-4.8-8.9-9.55 0-5.25 4.35-9.15 10.9-9.15 3.45 0 5.95.8 7.45 1.65l-1.2 3.55c-1.1-.6-3.35-1.6-6.4-1.6-4.6 0-6.35 2.75-6.35 5.05 0 3.15 2.05 4.7 6.7 6.5 5.7 2.2 8.6 4.95 8.6 9.9 0 5.2-3.85 9.7-11.8 9.7-3.25 0-6.8-.95-8.6-2.15l1.1-3.65Z" fill="#ffffff" data-color="1"></path>
        <path d="M74.6 215v-14.3l-10.65-19.4h4.95l4.75 9.3c1.3 2.55 2.3 4.6 3.35 6.95h.1c.95-2.2 2.1-4.4 3.4-6.95l4.85-9.3h4.95L79 200.65V215h-4.4Z" fill="#ffffff" data-color="1"></path>
        <path d="M131.55 209.7c1.95 1.2 4.8 2.2 7.8 2.2 4.45 0 7.05-2.35 7.05-5.75 0-3.15-1.8-4.95-6.35-6.7-5.5-1.95-8.9-4.8-8.9-9.55 0-5.25 4.35-9.15 10.9-9.15 3.45 0 5.95.8 7.45 1.65l-1.2 3.55c-1.1-.6-3.35-1.6-6.4-1.6-4.6 0-6.35 2.75-6.35 5.05 0 3.15 2.05 4.7 6.7 6.5 5.7 2.2 8.6 4.95 8.6 9.9 0 5.2-3.85 9.7-11.8 9.7-3.25 0-6.8-.95-8.6-2.15l1.1-3.65Z" fill="#ffffff" data-color="1"></path>
        <path d="M201.85 185H191.6v-3.7h24.95v3.7h-10.3v30h-4.4v-30Z" fill="#ffffff" data-color="1"></path>
        <path d="M276.4 199.2h-13.1v12.15h14.6V215h-18.95v-33.7h18.2v3.65H263.3v10.65h13.1v3.6Z" fill="#ffffff" data-color="1"></path>
        <path d="M350.6 200.2c-.25-4.7-.55-10.35-.5-14.55h-.15c-1.15 3.95-2.55 8.15-4.25 12.8l-5.95 16.35h-3.3L331 198.75c-1.6-4.75-2.95-9.1-3.9-13.1h-.1c-.1 4.2-.35 9.85-.65 14.9l-.9 14.45h-4.15l2.35-33.7h5.55l5.75 16.3c1.4 4.15 2.55 7.85 3.4 11.35h.15c.85-3.4 2.05-7.1 3.55-11.35l6-16.3h5.55l2.1 33.7h-4.25l-.85-14.8Z" fill="#ffffff" data-color="1"></path>
        <path d="M400.45 209.7c1.95 1.2 4.8 2.2 7.8 2.2 4.45 0 7.05-2.35 7.05-5.75 0-3.15-1.8-4.95-6.35-6.7-5.5-1.95-8.9-4.8-8.9-9.55 0-5.25 4.35-9.15 10.9-9.15 3.45 0 5.95.8 7.45 1.65l-1.2 3.55c-1.1-.6-3.35-1.6-6.4-1.6-4.6 0-6.35 2.75-6.35 5.05 0 3.15 2.05 4.7 6.7 6.5 5.7 2.2 8.6 4.95 8.6 9.9 0 5.2-3.85 9.7-11.8 9.7-3.25 0-6.8-.95-8.6-2.15l1.1-3.65Z" fill="#ffffff" data-color="1"></path>
        <path d="M466.58 155.75c-.9-5.25-1.45-10.24-1.6-15.27-.15-5.09-.08-10.18.44-15.25 1.2-11.59 4.07-22.74 8.66-33.45 11.44-26.66 32.95-48.15 59.62-59.52 8.68-3.7 17.69-6.21 27.02-7.61 4.86-.73 9.75-1.14 14.66-1.22 5.09-.08 10.17.22 15.23.84 13.41 1.65 26.16 5.47 38.28 11.42 9.92 4.88 18.84 11.18 26.67 19 4.8 4.8 9.43 9.76 13.59 15.14 3.8 4.93 6.83 10.28 8.66 16.27 1.65 5.39 2.38 10.89 1.95 16.5-.96 12.58-6.21 23.04-15.87 31.18-7.53 6.34-16.23 10.26-25.9 12.03-5.21.95-10.45 1.14-15.74.82-6.91-.42-13.71-1.56-20.49-2.86-7.79-1.5-15.57-3.03-23.35-4.54-5.29-1.02-10.58-2.02-15.88-3.01-5.54-1.03-11.1-1.86-16.7-2.53-7.11-.86-14.24-1.24-21.4-1.01-19.82.64-37.62 6.88-53.16 19.31-1.28 1.02-2.52 2.09-3.78 3.13-.22.18-.47.32-.91.62Zm96.14-31.2c.38.07.61.11.84.16 4.82.92 9.66 1.69 14.44 2.78 8.56 1.94 17.07 4.08 25.69 5.74 7.25 1.39 14.51 2.78 21.9 3.26 4.81.31 9.57.11 14.27-.93 4.68-1.03 8.92-3.04 12.66-6.07 1.47-1.19 2.8-2.5 3.87-4.06 1.02-1.47 1.7-3.09 1.9-4.86.32-2.74-.54-5.14-2.32-7.22-1.61-1.87-3.6-3.22-5.81-4.28-2.64-1.26-5.45-2.01-8.31-2.54-7.38-1.36-14.83-1.41-22.28-.97-5.62.33-11.21 1.03-16.76 2.05-6.86 1.27-13.6 2.98-20.12 5.49-6.7 2.58-12.98 5.96-18.8 10.17-.42.3-.95.51-1.19 1.28Z" fill="#1b40ff" data-color="2"></path>
        <path d="M611.93 206.55c-4.52 1.39-9.12 2.47-13.8 3.12-3.11.44-6.25.71-9.39.92-4.42.31-8.84.29-13.26.18-3.08-.08-6.16-.35-9.24-.55-1.57-.11-3.14-.26-4.7-.39-4.65-.39-9.26-1.04-13.86-1.79-4.96-.81-9.88-1.77-14.77-2.95-8.91-2.16-17.51-5.21-25.85-9-6.35-2.89-12.49-6.15-18.45-9.77-4.52-2.74-8.76-5.85-12.38-9.74-3.38-3.63-5.98-7.75-8-12.4.33-.41.63-.86.99-1.24 4.65-4.83 9.86-8.95 15.63-12.36 7.64-4.52 15.89-7.41 24.58-9.05 3.27-.62 6.57-1 9.9-1.29 5.2-.45 10.41-.39 15.61-.23 3.87.12 7.73.44 11.58.94 3.24.42 6.49.76 9.72 1.23 3.29.48 6.57 1.05 9.85 1.61 7.63 1.3 15.21 2.91 22.78 4.54 4.85 1.04 9.7 2.1 14.56 3.09 4.27.86 8.57 1.54 12.9 2.07 5.55.68 11.11.89 16.68.61 9.17-.47 17.98-2.49 26.13-6.86 12.69-6.81 21.17-17.08 25.24-30.93.31-1.04.56-2.1.8-3.17.22-1 .38-2.02.56-3.02.41-.13.53.18.68.42 1.83 2.79 2.74 5.92 3.23 9.18.58 3.84.76 7.71.82 11.58.06 3.76.06 7.51-.13 11.26-.17 3.26-.52 6.51-.96 9.75-.66 4.86-1.62 9.66-2.87 14.41-2.76 10.5-7.04 20.35-12.73 29.59-5.43 8.83-12.03 16.71-19.71 23.66-6.58 5.96-13.81 11.03-21.58 15.33a113.11 113.11 0 0 1-18.58 8.21c-6.72 2.28-13.6 3.87-20.63 4.89-7.53 1.1-15.09 1.31-22.65.91-7.69-.41-15.27-1.7-22.7-3.73-8.39-2.3-16.41-5.49-24.05-9.64-7-3.8-13.52-8.29-19.55-13.5-7.47-6.45-13.96-13.77-19.53-21.92-.71-1.04-1.37-2.12-2.03-3.14.32-.45.6-.26.86-.14 1.42.68 2.83 1.37 4.25 2.05 12.21 5.88 24.91 10.36 38.09 13.51 5.53 1.32 11.11 2.41 16.75 3.19 5.1.71 10.21 1.2 15.35 1.53 4.85.31 9.69.37 14.53.17 13.36-.55 26.11-3.55 38.04-9.72.43-.22.85-.47 1.27-.7.98-.51 2.13-.73 2.87-1.71-1 .19-1.93.56-2.84.99Z" fill="#72f168" data-color="3"></path>
    </g>
</svg>