<?xml version="1.0" encoding="UTF-8"?>
<svg id="Layer_2" data-name="Layer 2" xmlns="http://www.w3.org/2000/svg" viewBox="0 0 410.43 43.57">
  <defs>
    <style>
      .cls-1 {
        stroke: #fff;
        stroke-miterlimit: 10;
        stroke-width: .5px;
      }

      .cls-1, .cls-2 {
        fill: #fff;
      }

      .cls-2 {
        stroke-width: 0px;
      }
    </style>
  </defs>
  <g id="Layer_1-2" data-name="Layer 1">
    <g id="Layer_2-2" data-name="Layer 2">
      <g id="Layer_1-2" data-name="Layer 1-2">
        <path class="cls-2" d="M62.47,16.59c.45,0,.87-.06,1.3-.19.64-.21,1.15-.68,1.4-1.27.15-.32.23-.64.3-.98.08-.45.13-.91.11-1.36V2.61l.42,1.08-.83-.83,1.13.47h-6.37s-.11-.02-.15-.04-.08-.06-.11-.11-.04-.08-.04-.15V.87h8.39s.11.02.15.04.08.06.11.11.04.08.04.15v11.79c.02.91-.11,1.83-.38,2.7-.21.74-.59,1.42-1.1,2-.51.55-1.13.96-1.81,1.23-.81.3-1.68.45-2.55.42-.55,0-1.13-.04-1.68-.15-.45-.08-.89-.19-1.32-.38-.3-.11-.57-.25-.81-.47-.02-.04-.04-.06-.04-.08-.02-.02-.04-.06-.04-.11s-.02-.08-.02-.15v-2.32h.4c.38.19.76.36,1.15.49.36.15.74.25,1.15.32.38.08.81.13,1.21.13Z"/>
        <path class="cls-2" d="M73.73,18.76h-2.46s-.08-.02-.13-.04-.06-.06-.08-.11c-.02-.06-.02-.13,0-.17.17-.57.36-1.25.59-2.02.21-.76.45-1.59.7-2.49.25-.89.51-1.81.76-2.76s.53-1.91.81-2.87.53-1.89.79-2.8.49-1.78.72-2.57c.23-.79.23-1.51.42-2.12h4.55c.06,0,.11.02.17.04.04.02.28.06.3.08.02.04.04.11.04.15.3,1.08.62,2.23.96,3.4s.68,2.38,1.02,3.63c.34,1.23.7,2.51,1.06,3.82.36,1.32.72,2.63,1.1,3.99.11.47.21.93.34,1.4s.23.96.34,1.44h-2.46c-.08,0-.15,0-.23-.04-.06-.02-.11-.08-.11-.15l-.11-.3c-.34-1.32-.68-2.59-1.02-3.82-.34-1.23-.68-2.44-1-3.59s-.62-2.23-.87-3.25-.51-1.95-.74-2.83c-.21-.85-.4-1.61-.55-2.29l.79.51h-1.98l.83-.49c-.17.64-.36,1.38-.59,2.21-.23.83-.49,1.74-.76,2.74-.28,1-.59,2.1-.93,3.27s-.7,2.42-1.08,3.76c-.36,1.34-.74,2.76-1.17,4.25ZM73.88,11.62h7.46l.79-.23.28,1.34.28,1.3h-8.56s-.11-.02-.15-.04-.08-.06-.11-.11-.04-.08-.04-.15l.06-2.1Z"/>
        <path class="cls-2" d="M91.41,18.76h-2.4s-.11-.02-.15-.04-.08-.06-.11-.11-.04-.08-.04-.15V.87h3.44c.06,0,.15.02.21.04s.13.08.17.15c.06.11.13.21.15.34.3.7.62,1.4.91,2.12.3.72.59,1.44.89,2.19.3.72.59,1.47.89,2.23.3.74.59,1.51.89,2.29s.62,1.57.93,2.36l-1.17-1.34h1.76l-1.19,1.34.96-2.42c.32-.81.64-1.59.93-2.38s.62-1.57.91-2.34.62-1.55.91-2.29.62-1.51.91-2.25h3.59s.11.02.15.04.08.06.11.11.02.08.02.13v17.61h-2.42s-.11-.02-.15-.04-.08-.06-.11-.11-.04-.08-.04-.15v-3.48c0-.55,0-1.08.02-1.61,0-.53.02-1.08.02-1.61s.02-1.1.04-1.7.06-1.19.11-1.78c.04-.62.08-1.27.15-1.95s.11-1.42.15-2.19l.51.74h-1.74l1-.79c-.28.74-.59,1.49-.93,2.25s-.66,1.57-.98,2.36c-.32.81-.64,1.59-.98,2.38-.32.79-.64,1.55-.96,2.27-.3.72-.59,1.42-.87,2.1h-1.98c-.06,0-.11-.02-.15-.04-.06-.04-.13-.11-.15-.19-.19-.49-.42-1.08-.7-1.74s-.57-1.38-.89-2.17-.64-1.57-.98-2.4-.68-1.64-1.02-2.44-.66-1.59-.96-2.34l1,.74h-1.7l.42-.76c.06.74.13,1.47.19,2.17.06.68.11,1.34.15,1.95s.06,1.21.08,1.78.04,1.15.04,1.7c.02.55.02,1.1.02,1.64l.08,5.38h0Z"/>
        <path class="cls-2" d="M107.83.87h11.73s.08.02.13.04c.04.02.06.06.11.11s.04.08.04.15v2.17h-11.73s-.11-.02-.15-.04-.08-.06-.11-.11-.04-.08-.04-.15l.02-2.17h0ZM109.53,18.76s-.06,0-.11-.02-.06-.04-.08-.06c-.02-.02-.04-.06-.06-.08s-.02-.06-.02-.11V2.19h3.02l-.17.47v13.64h7.46c.08,0,.15.02.21.08s.08.13.08.21v2.17s-10.33,0-10.33,0ZM110.91,8.54h7.22s.11.02.15.04c.04.02.06.06.11.08.02.04.04.11.04.15v2.1h-7.52v-2.38Z"/>
        <path class="cls-2" d="M121.88.87h11.73s.08.02.13.04c.04.02.06.06.11.11s.04.08.04.15v2.17h-11.71s-.11-.02-.15-.04-.08-.06-.11-.11-.04-.08-.04-.15V.87ZM123.6,18.76s-.06,0-.11-.02c-.06-.04-.13-.08-.15-.15-.02-.02-.02-.06-.02-.11V2.19h3.02l-.17.47v13.64h7.46c.08,0,.15.02.21.08s.08.13.08.21v2.17s-10.33,0-10.33,0ZM124.98,8.54h7.2s.11.02.15.04c.04.02.08.06.11.08.02.04.04.11.04.15v2.1h-7.5v-2.38h0Z"/>
        <path class="cls-2" d="M137.58,18.76s-.08,0-.13-.02c-.04-.02-.06-.04-.08-.06-.02-.02-.04-.06-.04-.08,0-.04-.02-.06-.02-.11V.87h2.59s.11.02.15.04.08.06.11.11.04.08.04.15v15.15h5.69c.3,0,.59.04.87.15.23.08.45.25.59.47.17.23.3.49.38.79.11.34.19.7.23,1.06l-10.39-.02ZM145.38,13.98h2.29s.11.02.15.04.08.06.11.11.04.08.04.15v4.5c-.53-.02-1.06-.13-1.55-.34-.34-.15-.62-.38-.79-.72s-.23-.7-.23-1.06v-2.68h-.02Z"/>
        <path class="cls-2" d="M63.96,22.93c1.19-.02,2.34.25,3.4.79,1.02.53,1.85,1.34,2.38,2.34.59,1.04.87,2.36.87,3.93v5.06c0,1.51-.3,2.76-.89,3.76-.57.98-1.4,1.76-2.4,2.27-2.12,1.02-4.61,1.02-6.74,0-1-.51-1.85-1.3-2.42-2.27-.59-1-.89-2.25-.89-3.76v-5.06c0-1.59.3-2.89.91-3.93.57-1,1.4-1.81,2.42-2.34,1.06-.53,2.21-.81,3.36-.79ZM60,34.91c0,.98.13,1.72.38,2.25.21.47.51.89.87,1.25.32.28.7.49,1.1.64.53.19,1.08.28,1.66.25.7.02,1.4-.15,2.02-.51.59-.36,1.08-.87,1.38-1.51.36-.76.53-1.61.51-2.46v-5.14c0-.51-.04-1.02-.13-1.51-.06-.38-.19-.76-.38-1.1-.17-.3-.38-.57-.64-.79-.32-.32-.72-.55-1.15-.68-.53-.17-1.06-.25-1.61-.25-.93,0-1.7.19-2.29.55-.57.36-1.04.89-1.3,1.53-.3.72-.45,1.49-.42,2.27v5.21Z"/>
        <path class="cls-2" d="M73.05,23.44h7.2c.87-.02,1.72.08,2.55.32.62.17,1.19.47,1.7.89.42.36.74.83.96,1.34s.32,1.06.3,1.61v.62c.02.59-.11,1.21-.36,1.74-.23.51-.59.93-1.04,1.25-.51.36-1.08.62-1.68.76-.74.19-1.51.28-2.27.25h-4.04l-.36.25-.08-1.42h3.97c.64.02,1.27-.06,1.87-.3.4-.15.74-.47.93-.85.19-.4.28-.85.28-1.3v-.64c0-.3-.04-.57-.13-.85-.08-.23-.21-.47-.4-.64-.23-.23-.53-.38-.85-.47-.42-.13-.87-.17-1.3-.17h-6.95c-.08,0-.15-.02-.21-.08s-.08-.13-.08-.21v-2.12h0ZM80.76,41.33h-6.01c-.15,0-.28-.11-.28-.25v-16.13h2.93l-.15.47v13.47h3.04c.55.02,1.08-.08,1.59-.3.38-.17.72-.47.91-.85.21-.4.3-.85.3-1.3v-.74c.02-.42-.08-.85-.28-1.21-.23-.36-.57-.66-1-.79-.64-.21-1.3-.3-1.95-.28h-3.97l.08-1.74h6.78v.72c1.02.19,1.81.59,2.34,1.23s.81,1.47.81,2.51v.7c0,1.04-.21,1.89-.64,2.55s-1.06,1.19-1.78,1.47c-.87.34-1.81.49-2.72.47h0Z"/>
        <path class="cls-2" d="M94.76,22.97c1.02-.02,2.04.13,3.02.4.85.28,1.49.62,1.89,1.02.06.04.13.11.15.19s.02.17.02.23v3.4h-2.29c-.08,0-.15-.02-.21-.08-.06-.06-.08-.13-.08-.21v-2.76l.68,1.04c-.42-.28-.89-.49-1.38-.62-.59-.15-1.21-.21-1.81-.21-.51,0-1,.04-1.49.15-.4.08-.76.25-1.1.47-.3.19-.53.47-.68.79s-.23.68-.23,1.04v.53c0,.36.06.7.19,1.04.15.32.4.59.72.76.49.28,1,.49,1.53.64l2.44.74c.68.19,1.36.42,2,.74.49.23.91.53,1.3.91.32.34.55.74.68,1.17.15.51.23,1.04.21,1.55v1.04c.02.89-.23,1.78-.74,2.53-.55.74-1.3,1.32-2.17,1.66-1.1.4-2.27.59-3.44.57-.79,0-1.57-.06-2.34-.17-.64-.11-1.27-.28-1.89-.51-.47-.17-.89-.42-1.27-.76-.04-.06-.08-.13-.11-.19-.02-.08-.04-.17-.04-.28v-2.19h.42c.72.55,1.53.98,2.38,1.23.98.28,1.98.38,2.97.38,1.15,0,2.04-.21,2.63-.66.57-.38.91-1.02.89-1.7v-.74c0-.32-.06-.66-.19-.96-.17-.3-.42-.53-.72-.68-.49-.25-1.02-.47-1.57-.62l-2.42-.74c-.7-.19-1.38-.47-2.02-.83-.49-.25-.91-.62-1.27-1.02-.3-.36-.53-.76-.66-1.21-.13-.47-.19-.93-.19-1.42v-1.08c0-.66.15-1.32.45-1.91.32-.57.74-1.08,1.27-1.49.57-.45,1.25-.79,1.95-.98.83-.11,1.68-.21,2.53-.21Z"/>
        <path class="cls-2" d="M102.58,23.44h11.73s.08.02.13.04c.04.02.06.06.11.11s.04.08.04.15v2.17h-11.73s-.11-.02-.15-.04-.08-.06-.11-.11-.04-.08-.04-.15l.02-2.17h0ZM104.3,41.33s-.06,0-.11-.02c-.06-.04-.13-.08-.15-.15-.02-.02-.02-.06-.02-.11v-16.3h3.02l-.17.47v13.64h7.46c.08,0,.15.02.21.08.06.06.08.13.08.21v2.17h-10.33ZM105.69,31.11h7.2s.11.02.15.04c.04.02.06.06.11.08.02.04.04.11.04.15v2.1h-7.5v-2.38h0Z"/>
        <path class="cls-2" d="M116.76,23.44h7.16c.85-.02,1.68.11,2.49.34.64.19,1.23.55,1.72,1.02.45.45.79,1,1,1.59.21.68.32,1.4.32,2.1v1.3c.02.7-.11,1.4-.34,2.06-.21.59-.57,1.13-1.02,1.55-.47.45-1.02.76-1.61.98-.7.23-1.42.36-2.17.34h-3.61l-.28.15v-2.55h3.55c.51.02,1.04-.08,1.51-.28.38-.17.68-.47.87-.85.19-.42.3-.91.28-1.38v-1.38c0-.36-.04-.72-.15-1.08-.08-.3-.25-.55-.47-.76-.23-.23-.51-.4-.81-.51-.4-.13-.81-.19-1.23-.17h-6.93c-.08,0-.15-.02-.21-.08s-.08-.13-.08-.21l.02-2.17h0ZM120.98,41.33h-2.51c-.15,0-.28-.11-.28-.25v-16.23h3.08l-.32.57.02,15.91h0ZM125.66,33.04c.49.87.93,1.7,1.36,2.49s.87,1.61,1.34,2.49c.13.25.3.49.53.66.17.13.38.19.59.17h.81v2.17c0,.15-.11.28-.25.28h-.96c-.45,0-.87-.04-1.3-.17-.36-.11-.68-.3-.96-.55-.32-.3-.57-.66-.76-1.04-.47-.89-.93-1.81-1.4-2.72s-.93-1.83-1.4-2.72l2.4-1.04Z"/>
        <path class="cls-2" d="M134.58,23.44c.06,0,.11.02.17.04.04.02.08.08.11.13.02.06.06.15.11.3.47,1.76.89,3.4,1.3,4.87.4,1.47.79,2.85,1.13,4.1.34,1.25.68,2.46,1,3.61s.64,2.29.98,3.42l-.91-.74h1.91l-.89.74c.23-.87.49-1.76.74-2.68s.53-1.85.81-2.85c.28-.98.59-2.02.91-3.12s.66-2.32,1.02-3.61c.36-1.3.74-2.7,1.15-4.23h2.53s.08,0,.13.02c.04.02.06.06.06.11,0,.06,0,.13-.02.17-.19.64-.42,1.4-.68,2.34-.25.93-.57,1.93-.87,3.04-.3,1.1-.62,2.23-.93,3.38s-.64,2.27-.96,3.38l-.89,3.1c-.28.96-.51,1.78-.72,2.46h-4.31c-.11.02-.23-.02-.32-.11-.08-.13-.15-.28-.19-.42-.21-.7-.42-1.44-.66-2.25s-.47-1.66-.72-2.55-.51-1.83-.79-2.76-.53-1.91-.81-2.91c-.25-1-.53-2-.83-3-.13-.45-.25-.89-.38-1.34l-.38-1.34c-.13-.45-.25-.89-.4-1.36l2.63.06h0Z"/>
        <path class="cls-2" d="M150.31,41.33h-2.46s-.08-.02-.13-.04c-.04-.02-.06-.06-.08-.11-.02-.06-.02-.13,0-.17.17-.57.36-1.25.59-2.02s.45-1.59.7-2.49.51-1.81.76-2.76c.25-.96.53-1.91.81-2.87s.53-1.89.79-2.8.51-1.78.72-2.57c.23-.79.45-1.51.64-2.12h4.55c.06,0,.11.02.17.04.04.02.06.04.08.08.02.04.04.11.04.15.3,1.08.62,2.23.96,3.4s.68,2.38,1.02,3.63.7,2.53,1.06,3.82.72,2.63,1.1,3.97c.11.47.21.93.34,1.4s.25.96.34,1.47h-2.44c-.08,0-.15,0-.23-.04-.06-.02-.11-.08-.11-.15l-.11-.3c-.34-1.32-.68-2.59-1.02-3.82s-.68-2.44-1-3.61c-.32-1.15-.62-2.23-.89-3.25-.25-1.02-.51-1.95-.72-2.8-.23-.87-.4-1.61-.57-2.29l.79.51h-1.95l.81-.49c-.17.66-.36,1.38-.59,2.21l-.76,2.74c-.28,1-.59,2.1-.93,3.27-.34,1.17-.7,2.42-1.06,3.76-.36,1.34-.76,2.76-1.19,4.25ZM150.45,34.21h7.46l.79-.23.28,1.32.28,1.3h-8.56s-.11-.02-.15-.04c-.04-.02-.08-.06-.11-.11s-.04-.08-.04-.15l.06-2.08Z"/>
        <path class="cls-2" d="M162.63,23.44h12.28c.08,0,.15.02.21.08.06.04.08.13.08.21v2.17h-12.28c-.06,0-.11-.02-.15-.04s-.08-.06-.11-.11-.04-.08-.04-.15v-2.17h0ZM170.34,41.33h-2.59c-.08,0-.15-.02-.21-.08-.06-.06-.08-.13-.08-.21v-16.28h3.1l-.23.57.02,16h0Z"/>
        <path class="cls-2" d="M184.13,22.93c1.19-.02,2.34.25,3.4.79,1.02.53,1.85,1.34,2.38,2.34.59,1.04.87,2.36.89,3.93v5.06c0,1.51-.3,2.76-.89,3.76-.57.98-1.4,1.76-2.4,2.27-2.12,1.02-4.61,1.02-6.74,0-1-.51-1.85-1.3-2.42-2.27-.59-1-.89-2.25-.89-3.76v-5.06c0-1.59.3-2.89.91-3.93.57-1,1.4-1.81,2.42-2.34s2.17-.81,3.34-.79ZM180.16,34.91c0,.98.13,1.72.38,2.25.21.47.51.89.87,1.25.32.28.7.49,1.1.64.53.19,1.08.28,1.66.25.7.02,1.4-.15,2.02-.51.59-.36,1.08-.87,1.38-1.51.36-.76.53-1.61.51-2.46v-5.14c0-.51-.04-1.02-.13-1.51-.06-.38-.19-.76-.38-1.1-.17-.3-.38-.57-.64-.79-.32-.32-.72-.55-1.15-.68-.53-.17-1.06-.25-1.61-.25-.93,0-1.7.19-2.29.55-.57.36-1.04.89-1.3,1.53-.3.72-.45,1.49-.42,2.27v5.21Z"/>
        <path class="cls-2" d="M193.2,23.44h7.16c.85-.02,1.68.11,2.49.34.64.19,1.23.55,1.72,1.02.45.45.79,1,1,1.59.23.68.34,1.4.32,2.1v1.3c.02.7-.11,1.4-.34,2.06-.21.59-.57,1.13-1.02,1.55-.47.42-1.02.76-1.61.98-.7.23-1.44.36-2.17.34h-3.57l-.28.15v-2.55h3.55c.51.02,1.04-.08,1.51-.28.38-.17.68-.47.87-.85.19-.42.3-.91.28-1.38v-1.38c0-.36-.04-.72-.15-1.08-.08-.3-.25-.55-.47-.76-.23-.23-.51-.4-.81-.51-.4-.13-.81-.19-1.23-.17h-6.93c-.08,0-.15-.02-.21-.08s-.08-.13-.08-.21l-.02-2.17h0ZM197.41,41.33h-2.51c-.15,0-.28-.11-.28-.25v-16.23h3.1l-.32.57v15.91ZM202.09,33.04l1.36,2.49c.42.79.87,1.61,1.34,2.49.13.25.32.49.53.66.17.13.38.19.59.17h.81v2.17c0,.15-.11.28-.25.28h-.96c-.45,0-.87-.04-1.3-.17-.36-.11-.68-.3-.96-.55-.32-.3-.57-.66-.76-1.04l-1.38-2.72c-.47-.91-.93-1.83-1.4-2.72l2.38-1.04Z"/>
        <path class="cls-2" d="M207.48,23.44h2.66c.11,0,.19,0,.28.04.06.02.13.08.17.15.06.08.11.19.15.28.42.79.83,1.55,1.23,2.32.4.76.76,1.51,1.13,2.27.36.76.72,1.53,1.06,2.34s.68,1.61,1.02,2.49l-.81-.87h1.64l-.96.91c.36-.93.7-1.81,1.04-2.61.34-.81.68-1.59,1.04-2.36.36-.76.74-1.53,1.15-2.34s.85-1.68,1.36-2.61h2.55c.11,0,.21.04.25.13s.04.21-.04.38c-.38.72-.76,1.44-1.17,2.19-.4.74-.81,1.51-1.23,2.27s-.85,1.55-1.27,2.32l-1.27,2.32-1.21,2.21h-1.32c-.23,0-.47,0-.7-.02-.11,0-.21-.02-.32-.08-.06-.02-.11-.08-.15-.13-.21-.34-.49-.83-.83-1.49l-1.21-2.23-1.42-2.63c-.49-.91-.98-1.83-1.44-2.74-.45-.89-.91-1.72-1.36-2.49ZM216.51,41.33h-2.59s-.11-.02-.15-.04c-.04-.02-.06-.06-.11-.08-.02-.04-.04-.11-.04-.15v-7.61h2.87v7.88h.02Z"/>
        <path class="cls-2" d="M42.07,26.11c-4.06-3.23-10.24-2.87-13.79.85s-3.14,9.35.93,12.58,10.24,2.87,13.79-.83,3.12-9.37-.93-12.6ZM31.57,38.93c-2.66-2.1-2.91-5.78-.62-8.2,2.32-2.42,6.33-2.66,8.99-.55s2.93,5.78.62,8.2-6.33,2.68-8.99.55h0Z"/>
        <path class="cls-2" d="M10.43,19.72c5.38-.34,9.46-4.59,9.09-9.5S14.51,1.59,9.12,1.93-.34,6.5.02,11.41c.36,4.91,5.01,8.65,10.41,8.31ZM7.91,3.89c3.51-.21,6.54,2.21,6.78,5.42s-2.4,5.97-5.91,6.16c-3.51.21-6.54-2.21-6.78-5.4s2.4-5.97,5.91-6.18h0Z"/>
        <path class="cls-2" d="M42.84,32.04S60.7-15.87,12.81,5.48c2.85,2.21,2.55,2.25,2.55,2.25,0,0,35.31-19.78,23.58,21.14,2.87,1.3,3.89,3.17,3.89,3.17Z"/>
        <path class="cls-2" d="M1.93,14.87s-9.12,38.86,30.53,26.13c-2.85-2.23-2.7-2.17-2.7-2.17,0,0-28.26,11.9-22.48-20.46-1.89-1.02-3.68-2.19-5.35-3.51Z"/>
      </g>
    </g>
    <line class="cls-1" x1="248.07" y1="0" x2="248.07" y2="41.84"/>
    <g>
      <path class="cls-2" d="M288.55,25.19c-.07,1.04-.29,1.98-.68,2.82s-.9,1.55-1.54,2.14c-.65.59-1.41,1.04-2.31,1.36-.89.32-1.88.48-2.96.48-1.22,0-2.31-.23-3.26-.68-.95-.45-1.75-1.08-2.39-1.89-.65-.81-1.14-1.79-1.48-2.92-.34-1.14-.51-2.39-.51-3.76v-2.79c0-1.38.18-2.63.54-3.77.36-1.14.87-2.12,1.54-2.93.66-.82,1.47-1.45,2.41-1.9.94-.45,2-.68,3.18-.68s2.15.16,3.04.48,1.64.78,2.27,1.38c.63.6,1.12,1.33,1.48,2.19.36.86.59,1.84.68,2.92h-3.99c-.04-.62-.13-1.16-.28-1.62-.15-.46-.36-.85-.64-1.16s-.63-.54-1.05-.7c-.42-.16-.93-.23-1.52-.23s-1.15.13-1.61.4-.83.65-1.13,1.17-.52,1.14-.66,1.89c-.14.74-.21,1.59-.21,2.54v2.82c0,2.04.29,3.55.86,4.53.57.98,1.48,1.47,2.73,1.47,1.04,0,1.87-.28,2.48-.83s.94-1.45,1.01-2.7h4Z"/>
      <path class="cls-2" d="M298.68,23.93h-3.03v7.74h-4V10.95h6.95c1.15,0,2.19.14,3.12.41.93.27,1.72.67,2.38,1.19s1.17,1.17,1.52,1.95c.36.78.53,1.68.53,2.7,0,.74-.09,1.41-.26,2-.18.59-.43,1.12-.75,1.59-.33.47-.72.88-1.18,1.23-.46.35-.98.65-1.54.91l4.46,8.55v.19h-4.28l-3.9-7.74ZM295.65,20.69h2.96c1.13,0,2-.29,2.61-.86.61-.57.92-1.36.92-2.36s-.3-1.84-.9-2.41c-.6-.57-1.48-.86-2.65-.86h-2.95v6.49Z"/>
      <path class="cls-2" d="M321.9,22.6h-8.51v5.85h9.95v3.23h-13.96V10.95h13.92v3.26h-9.91v5.22h8.51v3.16Z"/>
      <path class="cls-2" d="M336.77,23.43l1.51-12.48h3.67l-2.88,20.72h-3.62l-1.96-12.24-1.89,12.24h-3.62l-2.85-20.72h3.66l1.48,12.4,1.77-12.4h2.86l1.86,12.48Z"/>
      <path class="cls-2" d="M354.89,26.27c0-.37-.06-.72-.19-1.04-.13-.32-.35-.62-.65-.9-.31-.28-.71-.54-1.21-.77-.5-.23-1.12-.45-1.86-.65-.9-.25-1.76-.56-2.58-.93-.82-.37-1.54-.82-2.17-1.34s-1.13-1.13-1.5-1.82c-.38-.69-.56-1.49-.56-2.39s.19-1.67.56-2.38c.37-.71.88-1.32,1.54-1.82s1.43-.89,2.32-1.16c.89-.27,1.86-.41,2.9-.41s2.07.16,2.97.47c.9.31,1.67.75,2.31,1.32.65.56,1.15,1.24,1.51,2.01.36.78.54,1.63.54,2.56h-3.9c-.02-.46-.1-.89-.25-1.28s-.37-.72-.65-1-.65-.5-1.08-.65c-.43-.16-.94-.23-1.52-.23-.53,0-1,.06-1.42.19-.41.13-.76.31-1.05.54-.28.23-.5.51-.65.83-.15.32-.22.66-.22,1.03,0,.39.1.74.29,1.05.19.31.48.6.85.85s.82.48,1.35.69c.53.21,1.12.4,1.79.58.95.28,1.82.61,2.62,1.01.8.4,1.48.87,2.06,1.42.57.55,1.02,1.17,1.34,1.86s.48,1.47.48,2.33c0,.91-.18,1.72-.55,2.43-.37.71-.87,1.3-1.52,1.79-.65.49-1.41.86-2.31,1.11-.89.25-1.86.38-2.92.38-.65,0-1.31-.06-1.96-.18-.65-.12-1.27-.3-1.86-.55-.59-.25-1.15-.56-1.66-.93-.51-.37-.96-.8-1.33-1.29-.38-.49-.67-1.05-.88-1.68-.21-.63-.32-1.32-.32-2.08h3.93c.02.63.13,1.16.33,1.61s.48.81.83,1.1.78.49,1.28.63c.5.13,1.05.2,1.64.2.53,0,1-.06,1.42-.19.41-.12.76-.29,1.05-.51s.5-.48.65-.79c.15-.31.23-.65.23-1.02Z"/>
      <path class="cls-2" d="M365.35,16.27l.24,2.14c.55-.77,1.22-1.36,2.01-1.79s1.66-.63,2.62-.63c.78,0,1.49.11,2.14.34.65.23,1.2.59,1.67,1.09s.83,1.14,1.1,1.92c.26.78.39,1.73.39,2.85v9.48h-3.96v-9.42c0-.61-.07-1.11-.21-1.5-.14-.39-.33-.7-.59-.93-.26-.23-.56-.39-.93-.48-.36-.09-.77-.14-1.22-.14-.67,0-1.25.14-1.72.41-.47.27-.86.64-1.15,1.12v10.95h-3.97v-15.4h3.59Z"/>
      <path class="cls-2" d="M386.73,31.96c-1.19,0-2.26-.19-3.23-.58-.97-.39-1.8-.92-2.49-1.59-.69-.67-1.23-1.46-1.6-2.36-.38-.91-.56-1.88-.56-2.91v-.57c0-1.18.19-2.25.56-3.22.37-.97.89-1.81,1.55-2.51s1.45-1.25,2.36-1.64c.91-.39,1.9-.58,2.98-.58s2.1.18,2.97.55,1.6.88,2.21,1.54,1.06,1.46,1.37,2.4c.31.93.47,1.97.47,3.1v1.68h-10.45c.08.52.23,1,.46,1.43.23.43.53.8.89,1.12.36.31.77.56,1.24.73.46.17.97.26,1.52.26.39,0,.78-.04,1.16-.11.38-.08.75-.19,1.1-.33.35-.15.68-.33.98-.55.3-.22.57-.47.8-.77l1.98,2.13c-.25.35-.57.7-.96,1.03-.39.34-.86.64-1.39.9-.54.26-1.13.47-1.79.63-.65.16-1.36.24-2.12.24ZM386.26,19.19c-.45,0-.85.08-1.22.23-.37.16-.7.38-.98.68-.28.29-.52.65-.7,1.05-.19.41-.33.86-.43,1.37h6.49v-.31c-.02-.42-.1-.81-.24-1.18-.14-.37-.35-.69-.61-.96s-.59-.48-.98-.64c-.38-.16-.83-.23-1.33-.23Z"/>
      <path class="cls-2" d="M404.01,12.5v3.77h5.75v2.92h-5.75v6.62c0,.56.06,1.03.19,1.4.13.38.31.67.55.9.24.22.52.38.86.48.34.1.71.14,1.13.14.3,0,.61-.01.93-.04.32-.03.62-.06.91-.11.29-.04.56-.09.81-.14s.47-.09.65-.14l.38,2.72c-.28.16-.6.3-.97.42s-.76.22-1.18.29c-.42.08-.85.14-1.3.18s-.89.06-1.33.06c-.84,0-1.61-.11-2.3-.33-.69-.22-1.28-.57-1.77-1.04s-.87-1.07-1.13-1.79c-.27-.73-.4-1.6-.4-2.61v-7h-3.52v-2.92h3.52v-3.77h3.96Z"/>
    </g>
  </g>
</svg>