<?xml version="1.0" encoding="UTF-8"?>
<svg id="Layer_2" data-name="Layer 2" xmlns="http://www.w3.org/2000/svg" viewBox="0 0 1049.35 258.84">
  <defs>
    <style>
      .cls-1 {
        isolation: isolate;
      }

      .cls-2 {
        fill: #fff;
        stroke-width: 0px;
      }
    </style>
  </defs>
  <g id="Layer_2-2" data-name="Layer 2">
    <g id="Layer_1-2" data-name="Layer 1-2">
      <g class="cls-1">
        <g class="cls-1">
          <path class="cls-2" d="m269.62,225h20.45c.12,0,.22.02.28.07s.12.11.17.19c.05.08.07.17.07.26v3.43h-20.45c-.09,0-.18-.02-.26-.07-.08-.05-.14-.11-.19-.19s-.07-.16-.07-.26v-3.43Zm7.29,32.9h-3.95c-.09,0-.18-.02-.26-.07s-.14-.11-.19-.19c-.05-.08-.07-.16-.07-.26v-30.41h4.89l-.42.89v30.03Zm-2.16-17.48h13.35c.16,0,.28.05.38.14s.14.22.14.38v3.38h-13.87v-3.9Z"/>
        </g>
        <g class="cls-1">
          <path class="cls-2" d="m307.31,224.06c2.29,0,4.34.47,6.16,1.41,1.82.94,3.26,2.36,4.32,4.25,1.06,1.9,1.6,4.3,1.6,7.21v9.45c0,2.79-.55,5.11-1.64,6.96-1.1,1.85-2.56,3.23-4.39,4.13s-3.88,1.36-6.13,1.36-4.21-.46-6.04-1.36-3.3-2.29-4.39-4.13c-1.1-1.85-1.65-4.17-1.65-6.96v-9.45c0-2.91.54-5.32,1.62-7.21,1.08-1.89,2.54-3.31,4.37-4.25,1.83-.94,3.89-1.41,6.18-1.41Zm-7.9,22.23c0,1.76.24,3.17.73,4.23.49,1.06,1.06,1.9,1.72,2.49.56.53,1.28.98,2.16,1.34.88.36,1.97.54,3.29.54,1.54,0,2.88-.34,4.02-1.01s2.06-1.66,2.75-2.96c.69-1.3,1.03-2.89,1.03-4.77v-9.63c0-1.13-.09-2.1-.28-2.91-.19-.81-.46-1.54-.8-2.16-.35-.63-.75-1.16-1.22-1.6-.59-.56-1.36-1.01-2.28-1.34-.92-.33-2-.49-3.22-.49-1.82,0-3.31.35-4.49,1.06-1.17.71-2.04,1.69-2.58,2.96-.55,1.27-.82,2.77-.82,4.49v9.78Z"/>
          <path class="cls-2" d="m323.95,225h13.25c1.69,0,3.16.21,4.42.63,1.25.42,2.29,1.03,3.1,1.81.81.78,1.42,1.74,1.81,2.87.39,1.13.59,2.4.59,3.81v2.3c0,1.35-.21,2.58-.63,3.69-.42,1.11-1.04,2.05-1.86,2.82-.82.77-1.8,1.36-2.96,1.76-1.16.41-2.48.61-3.95.61h-7.05l-.52.33v-4.18h7.1c1.22,0,2.23-.19,3.03-.56.8-.38,1.4-.95,1.81-1.72.41-.77.61-1.71.61-2.84v-2.26c0-.81-.11-1.54-.33-2.19-.22-.64-.55-1.17-.99-1.57-.41-.44-.96-.78-1.64-1.01-.69-.24-1.52-.35-2.49-.35h-12.78c-.16,0-.28-.05-.38-.14s-.14-.22-.14-.38v-3.43Zm7.19,32.9h-3.85c-.16,0-.28-.05-.38-.14-.09-.1-.14-.22-.14-.38v-30.17h4.94l-.56.85v29.85Zm8.74-15.32c.91,1.66,1.79,3.28,2.63,4.87s1.71,3.2,2.58,4.86c.38.63.73,1.06,1.06,1.29s.74.35,1.25.35h1.46v3.43c0,.16-.05.28-.14.38-.09.09-.22.14-.38.14h-1.6c-.88,0-1.64-.11-2.28-.33-.64-.22-1.21-.56-1.69-1.03-.49-.47-.95-1.11-1.39-1.93-.88-1.72-1.75-3.44-2.63-5.15-.88-1.71-1.75-3.41-2.63-5.1l3.76-1.79Z"/>
        </g>
        <g class="cls-1">
          <path class="cls-2" d="m366.91,225h20.45c.12,0,.22.02.28.07s.12.11.17.19c.05.08.07.17.07.26v3.43h-20.45c-.09,0-.18-.02-.26-.07-.08-.05-.14-.11-.19-.19s-.07-.16-.07-.26v-3.43Zm7.29,32.9h-3.95c-.09,0-.18-.02-.26-.07s-.14-.11-.19-.19c-.05-.08-.07-.16-.07-.26v-30.41h4.89l-.42.89v30.03Zm-2.16-17.48h13.35c.16,0,.28.05.38.14s.14.22.14.38v3.38h-13.87v-3.9Z"/>
        </g>
        <g class="cls-1">
          <path class="cls-2" d="m404.6,224.06c2.29,0,4.34.47,6.16,1.41,1.82.94,3.26,2.36,4.32,4.25,1.06,1.9,1.6,4.3,1.6,7.21v9.45c0,2.79-.55,5.11-1.64,6.96-1.1,1.85-2.56,3.23-4.39,4.13s-3.88,1.36-6.13,1.36-4.21-.46-6.04-1.36-3.3-2.29-4.39-4.13c-1.1-1.85-1.65-4.17-1.65-6.96v-9.45c0-2.91.54-5.32,1.62-7.21,1.08-1.89,2.54-3.31,4.37-4.25,1.83-.94,3.89-1.41,6.18-1.41Zm-7.9,22.23c0,1.76.24,3.17.73,4.23.49,1.06,1.06,1.9,1.72,2.49.56.53,1.28.98,2.16,1.34.88.36,1.97.54,3.29.54,1.54,0,2.88-.34,4.02-1.01s2.06-1.66,2.75-2.96c.69-1.3,1.03-2.89,1.03-4.77v-9.63c0-1.13-.09-2.1-.28-2.91-.19-.81-.46-1.54-.8-2.16-.35-.63-.75-1.16-1.22-1.6-.59-.56-1.36-1.01-2.28-1.34-.92-.33-2-.49-3.22-.49-1.82,0-3.31.35-4.49,1.06-1.17.71-2.04,1.69-2.58,2.96-.55,1.27-.82,2.77-.82,4.49v9.78Z"/>
          <path class="cls-2" d="m435.15,224.06c2.29,0,4.34.47,6.16,1.41,1.82.94,3.26,2.36,4.32,4.25,1.06,1.9,1.6,4.3,1.6,7.21v9.45c0,2.79-.55,5.11-1.64,6.96-1.1,1.85-2.56,3.23-4.39,4.13s-3.88,1.36-6.13,1.36-4.21-.46-6.04-1.36-3.3-2.29-4.39-4.13c-1.1-1.85-1.65-4.17-1.65-6.96v-9.45c0-2.91.54-5.32,1.62-7.21,1.08-1.89,2.54-3.31,4.37-4.25,1.83-.94,3.89-1.41,6.18-1.41Zm-7.9,22.23c0,1.76.24,3.17.73,4.23.49,1.06,1.06,1.9,1.72,2.49.56.53,1.28.98,2.16,1.34.88.36,1.97.54,3.29.54,1.54,0,2.88-.34,4.02-1.01s2.06-1.66,2.75-2.96c.69-1.3,1.03-2.89,1.03-4.77v-9.63c0-1.13-.09-2.1-.28-2.91-.19-.81-.46-1.54-.8-2.16-.35-.63-.75-1.16-1.22-1.6-.59-.56-1.36-1.01-2.28-1.34-.92-.33-2-.49-3.22-.49-1.82,0-3.31.35-4.49,1.06-1.17.71-2.04,1.69-2.58,2.96-.55,1.27-.82,2.77-.82,4.49v9.78Z"/>
          <path class="cls-2" d="m477.78,246.52c0,1.91-.28,3.59-.85,5.03-.56,1.44-1.39,2.62-2.47,3.55s-2.36,1.62-3.83,2.09c-1.47.47-3.12.71-4.94.71h-10.57c-.16,0-.28-.05-.38-.16-.09-.11-.14-.23-.14-.35v-30.31h4.94l-.42.8v25.99h6.44c1.85,0,3.36-.28,4.54-.85,1.18-.56,2.04-1.4,2.58-2.51.55-1.11.82-2.53.82-4.25v-9.59c0-.97-.07-1.83-.21-2.59-.14-.75-.36-1.41-.66-1.97-.3-.56-.68-1.05-1.15-1.46-.47-.41-.99-.73-1.55-.96-.56-.23-1.22-.4-1.97-.49s-1.63-.14-2.63-.14h-13.02c-.09,0-.18-.02-.26-.07s-.14-.11-.19-.19-.07-.16-.07-.26v-3.53h13.91c2,0,3.76.23,5.26.71s2.76,1.18,3.78,2.14c1.02.96,1.78,2.14,2.28,3.55s.75,3.07.75,4.98v10.15Z"/>
          <path class="cls-2" d="m510.02,224.15c2.13,0,3.98.24,5.55.73,1.57.49,2.73,1.12,3.48,1.9.16.13.26.25.3.38.05.12.07.27.07.42v6.11h-3.67c-.16,0-.28-.05-.38-.14-.09-.1-.14-.22-.14-.38v-5.36l1.32,2.07c-.75-.6-1.66-1.04-2.73-1.34s-2.33-.45-3.81-.45c-1.1,0-2.07.11-2.91.33s-1.57.54-2.19.96c-.61.42-1.07.95-1.39,1.57s-.47,1.33-.47,2.12v.94c0,.82.13,1.52.4,2.12.27.6.74,1.11,1.43,1.55.69.44,1.68.85,2.96,1.22l4.51,1.32c1.44.44,2.66.9,3.67,1.39,1,.48,1.8,1.03,2.4,1.64.59.61,1.03,1.32,1.29,2.12.27.8.4,1.75.4,2.84v1.79c0,1.76-.45,3.29-1.34,4.61s-2.19,2.34-3.9,3.05c-1.71.72-3.77,1.08-6.18,1.08-1.54,0-2.97-.12-4.3-.35-1.33-.23-2.49-.55-3.48-.96-.99-.41-1.76-.88-2.33-1.41-.13-.12-.2-.24-.24-.35s-.05-.26-.05-.45v-3.48h.71c1.41,1.1,2.87,1.88,4.39,2.35,1.52.47,3.34.71,5.48.71,2.26,0,3.98-.44,5.17-1.32,1.19-.88,1.79-2.07,1.79-3.57v-1.27c0-.78-.13-1.43-.4-1.95-.27-.52-.75-.98-1.46-1.38-.71-.41-1.72-.8-3.03-1.18l-4.56-1.36c-1.47-.44-2.7-.93-3.67-1.48-.97-.55-1.75-1.16-2.33-1.83-.58-.67-1-1.41-1.25-2.21-.25-.8-.38-1.7-.38-2.7v-1.79c0-1.29.27-2.45.82-3.48.55-1.04,1.32-1.94,2.3-2.7s2.17-1.36,3.55-1.79c1.38-.42,2.9-.63,4.56-.63Z"/>
        </g>
        <g class="cls-1">
          <path class="cls-2" d="m524.36,225h21.57c.12,0,.22.02.28.07s.12.11.16.19c.05.08.07.17.07.26v3.43h-21.57c-.09,0-.18-.02-.26-.07-.08-.05-.14-.11-.19-.19-.05-.08-.07-.16-.07-.26v-3.43Zm3.34,32.9c-.06,0-.13-.02-.19-.05-.06-.03-.12-.07-.16-.12-.05-.05-.09-.1-.12-.17-.03-.06-.05-.12-.05-.19v-30.46h4.79l-.33.75v26.27h14.29c.16,0,.28.05.38.14.09.09.14.22.14.38v3.43h-18.75Zm1.97-18.57h13.72c.09,0,.18.03.26.07.08.05.14.1.19.16s.07.16.07.28v3.34h-14.24v-3.86Z"/>
        </g>
        <g class="cls-1">
          <path class="cls-2" d="m563.32,258.84c-2.07,0-3.88-.28-5.45-.85-1.57-.56-2.88-1.39-3.95-2.47-1.07-1.08-1.86-2.4-2.4-3.95s-.8-3.31-.8-5.29v-9.87c0-1.91.27-3.62.8-5.12.53-1.51,1.33-2.8,2.4-3.88,1.07-1.08,2.37-1.91,3.9-2.49,1.54-.58,3.27-.87,5.22-.87,1.57,0,2.96.14,4.18.42,1.22.28,2.26.67,3.13,1.15.86.49,1.56.99,2.09,1.53.06.03.11.09.14.16s.05.16.07.23c.02.08.02.15.02.21v7.43h-3.57c-.16,0-.28-.05-.38-.14-.09-.09-.14-.22-.14-.38v-6.63l1.17,2.21c-.97-.78-1.99-1.33-3.05-1.64-1.07-.31-2.3-.47-3.71-.47-1.6,0-2.98.31-4.14.94s-2.05,1.56-2.68,2.79c-.63,1.24-.94,2.81-.94,4.72v9.3c0,1.5.18,2.84.54,4,.36,1.16.93,2.15,1.72,2.96.69.69,1.53,1.18,2.54,1.48,1,.3,2.1.45,3.29.45,1.79,0,3.34-.24,4.68-.73,1.33-.49,2.69-1.25,4.06-2.28h.75v3.48c0,.12-.02.23-.07.33-.05.09-.1.17-.16.23-.6.6-1.35,1.11-2.26,1.55-.91.44-1.96.79-3.15,1.06-1.19.27-2.48.4-3.85.4Z"/>
          <path class="cls-2" d="m587.76,258.65c-1.38,0-2.58-.2-3.6-.59s-1.86-.96-2.54-1.71-1.18-1.67-1.53-2.75c-.35-1.08-.52-2.31-.52-3.69v-24.91h3.95c.12,0,.22.02.28.07s.12.11.16.19c.05.08.07.17.07.26v24.16c0,1.6.41,2.82,1.22,3.67.81.85,1.99,1.27,3.53,1.27,1.25,0,2.46-.24,3.62-.73,1.16-.48,2.29-1.3,3.41-2.44,1.11-1.14,2.2-2.69,3.27-4.63v6.53h-1.93c-.75,1.1-1.58,2.04-2.49,2.84-.91.8-1.94,1.41-3.08,1.83-1.14.42-2.42.63-3.83.63Zm14.8-.75h-3.95c-.06,0-.12,0-.19-.02s-.11-.04-.14-.07c-.03-.03-.06-.07-.09-.12-.03-.05-.06-.09-.07-.14-.02-.05-.02-.1-.02-.16v-32.38h3.95c.09,0,.18.02.26.07s.14.11.19.19c.05.08.07.17.07.26v32.38Z"/>
          <path class="cls-2" d="m607.83,225h13.25c1.69,0,3.16.21,4.42.63,1.25.42,2.29,1.03,3.1,1.81.81.78,1.42,1.74,1.81,2.87.39,1.13.59,2.4.59,3.81v2.3c0,1.35-.21,2.58-.63,3.69-.42,1.11-1.04,2.05-1.86,2.82-.82.77-1.8,1.36-2.96,1.76-1.16.41-2.48.61-3.95.61h-7.05l-.52.33v-4.18h7.1c1.22,0,2.23-.19,3.03-.56.8-.38,1.4-.95,1.81-1.72.41-.77.61-1.71.61-2.84v-2.26c0-.81-.11-1.54-.33-2.19-.22-.64-.55-1.17-.99-1.57-.41-.44-.96-.78-1.65-1.01-.69-.24-1.52-.35-2.49-.35h-12.79c-.16,0-.28-.05-.38-.14s-.14-.22-.14-.38v-3.43Zm7.19,32.9h-3.85c-.16,0-.28-.05-.38-.14-.09-.1-.14-.22-.14-.38v-30.17h4.93l-.56.85v29.85Zm8.74-15.32c.91,1.66,1.79,3.28,2.63,4.87s1.71,3.2,2.58,4.86c.38.63.73,1.06,1.06,1.29.33.23.74.35,1.25.35h1.46v3.43c0,.16-.05.28-.14.38-.09.09-.22.14-.38.14h-1.6c-.88,0-1.64-.11-2.28-.33-.64-.22-1.21-.56-1.69-1.03-.49-.47-.95-1.11-1.39-1.93-.88-1.72-1.75-3.44-2.63-5.15-.88-1.71-1.76-3.41-2.63-5.1l3.76-1.79Z"/>
          <path class="cls-2" d="m638.19,225h15.84c.16,0,.28.05.38.14.09.09.14.22.14.38v3.43h-15.84c-.16,0-.28-.05-.38-.16-.09-.11-.14-.23-.14-.35v-3.43Zm16.36,32.9h-15.84c-.09,0-.17-.02-.23-.05s-.12-.07-.16-.12c-.05-.05-.08-.1-.09-.17-.02-.06-.02-.12-.02-.19v-3.43h15.84c.09,0,.18.02.26.07.08.05.14.11.19.19s.07.16.07.26v3.43Zm-5.92-2.21h-4.65l.14-1.18v-27.31h4.75l-.23,1.18v27.31Z"/>
        </g>
        <g class="cls-1">
          <path class="cls-2" d="m660.74,225h22.42c.16,0,.28.05.38.14s.14.22.14.38v3.43h-22.42c-.09,0-.18-.02-.26-.07s-.14-.11-.19-.19-.07-.16-.07-.26v-3.43Zm13.72,32.9h-4c-.16,0-.28-.05-.38-.14-.09-.1-.14-.22-.14-.38v-30.31h4.89l-.38.89v29.94Z"/>
        </g>
        <g class="cls-1">
          <path class="cls-2" d="m686.97,225h4.18c.22,0,.38.02.49.07s.21.12.31.23c.09.11.17.26.24.45.81,1.47,1.61,2.92,2.4,4.35s1.54,2.85,2.26,4.28,1.43,2.88,2.12,4.37,1.36,3.02,2.02,4.58l-1.41-1.64h2.73l-1.69,1.74c.72-1.75,1.43-3.38,2.12-4.87.69-1.49,1.38-2.94,2.07-4.35.69-1.41,1.43-2.86,2.23-4.35s1.68-3.11,2.66-4.87h4c.19,0,.33.08.42.23.09.16.08.36-.05.61-.69,1.29-1.42,2.61-2.19,3.97-.77,1.36-1.54,2.74-2.3,4.13-.77,1.39-1.55,2.8-2.35,4.21s-1.59,2.8-2.37,4.16c-.78,1.36-1.55,2.69-2.3,3.97-.85,0-1.51,0-2-.02s-.85-.03-1.1-.05c-.25-.02-.42-.05-.52-.12s-.17-.12-.24-.19c-.47-.78-1.05-1.79-1.74-3.01-.69-1.22-1.45-2.58-2.28-4.06s-1.69-3.04-2.58-4.65c-.89-1.61-1.77-3.2-2.63-4.77-.86-1.57-1.68-3.04-2.47-4.42Zm15.98,32.9h-4c-.09,0-.18-.02-.26-.07-.08-.05-.14-.11-.19-.19-.05-.08-.07-.16-.07-.26v-14.15h4.51v14.66Z"/>
          <path class="cls-2" d="m731.14,225h21.57c.12,0,.22.02.28.07s.12.11.16.19c.05.08.07.17.07.26v3.43h-21.57c-.09,0-.18-.02-.26-.07-.08-.05-.14-.11-.19-.19-.05-.08-.07-.16-.07-.26v-3.43Zm3.34,32.9c-.06,0-.13-.02-.19-.05-.06-.03-.12-.07-.17-.12-.05-.05-.09-.1-.12-.17-.03-.06-.05-.12-.05-.19v-30.46h4.79l-.33.75v26.27h14.29c.16,0,.28.05.38.14.09.09.14.22.14.38v3.43h-18.75Zm1.97-18.57h13.72c.09,0,.18.03.26.07.08.05.14.1.19.16s.07.16.07.28v3.34h-14.24v-3.86Z"/>
        </g>
        <g class="cls-1">
          <path class="cls-2" d="m761.88,257.9h-3.81c-.09,0-.18-.02-.26-.07s-.12-.12-.14-.21,0-.22.02-.38c.38-1.19.78-2.5,1.22-3.92.44-1.43.89-2.95,1.36-4.58.47-1.63.96-3.3,1.48-5.01.52-1.71,1.03-3.41,1.53-5.12.5-1.71,1-3.39,1.48-5.05.48-1.66.96-3.23,1.41-4.7s.87-2.85,1.25-4.13h7.29c.12,0,.23.02.31.07.08.05.13.11.17.19.03.08.06.16.09.26.63,2.16,1.28,4.36,1.95,6.6s1.35,4.53,2.02,6.86,1.36,4.71,2.07,7.14c.71,2.43,1.42,4.9,2.14,7.4.19.79.38,1.56.59,2.33.2.77.4,1.54.59,2.33h-3.9c-.12,0-.23-.02-.33-.07s-.17-.13-.24-.26c-.06-.12-.13-.3-.19-.52-.59-2.19-1.21-4.41-1.86-6.65-.64-2.24-1.29-4.44-1.93-6.6-.64-2.16-1.25-4.25-1.81-6.25-.56-2-1.08-3.85-1.55-5.55-.47-1.69-.88-3.18-1.22-4.46l1.32.85h-3.24l1.32-.8c-.38,1.29-.81,2.73-1.29,4.35-.49,1.62-1.02,3.39-1.6,5.34s-1.21,4.02-1.88,6.23-1.37,4.52-2.09,6.93c-.72,2.41-1.47,4.9-2.26,7.47Zm.94-13.07h14.1l1.32-.47.47,2.21.47,2.07h-15.89c-.09,0-.18-.02-.26-.07s-.14-.11-.19-.19-.07-.16-.07-.26l.05-3.29Z"/>
        </g>
        <g class="cls-1">
          <path class="cls-2" d="m787.36,225h13.25c1.69,0,3.16.21,4.42.63,1.25.42,2.29,1.03,3.1,1.81.81.78,1.42,1.74,1.81,2.87.39,1.13.59,2.4.59,3.81v2.3c0,1.35-.21,2.58-.63,3.69-.42,1.11-1.04,2.05-1.86,2.82-.82.77-1.8,1.36-2.96,1.76-1.16.41-2.48.61-3.95.61h-7.05l-.52.33v-4.18h7.1c1.22,0,2.23-.19,3.03-.56.8-.38,1.4-.95,1.81-1.72.41-.77.61-1.71.61-2.84v-2.26c0-.81-.11-1.54-.33-2.19-.22-.64-.55-1.17-.99-1.57-.41-.44-.96-.78-1.64-1.01-.69-.24-1.52-.35-2.49-.35h-12.78c-.16,0-.28-.05-.38-.14s-.14-.22-.14-.38v-3.43Zm7.19,32.9h-3.85c-.16,0-.28-.05-.38-.14-.09-.1-.14-.22-.14-.38v-30.17h4.94l-.56.85v29.85Zm8.74-15.32c.91,1.66,1.79,3.28,2.63,4.87s1.71,3.2,2.58,4.86c.38.63.73,1.06,1.06,1.29s.74.35,1.25.35h1.46v3.43c0,.16-.05.28-.14.38-.09.09-.22.14-.38.14h-1.6c-.88,0-1.64-.11-2.28-.33-.64-.22-1.21-.56-1.69-1.03-.49-.47-.95-1.11-1.39-1.93-.88-1.72-1.75-3.44-2.63-5.15-.88-1.71-1.75-3.41-2.63-5.1l3.76-1.79Z"/>
        </g>
        <g class="cls-1">
          <path class="cls-2" d="m818.52,257.9c-.09,0-.17,0-.24-.02-.06-.02-.12-.05-.17-.09s-.08-.1-.09-.17c-.02-.06-.02-.14-.02-.23v-32.38h3.95c.12,0,.22.02.28.07.06.05.12.11.16.19.05.08.07.17.07.26v28.43h11.7c.5,0,.94.1,1.32.28.38.19.69.46.94.8.25.35.45.75.61,1.22.16.47.27,1.02.33,1.64h-18.85Zm14.76-8.55h3.57c.09,0,.18.02.26.07s.14.11.19.19c.05.08.07.17.07.26v8.04c-1.06-.06-1.9-.23-2.49-.49-.6-.27-1.01-.63-1.25-1.08-.23-.46-.35-.99-.35-1.62v-5.36Z"/>
        </g>
        <g class="cls-1">
          <path class="cls-2" d="m836.9,225h4.18c.22,0,.38.02.49.07s.21.12.31.23c.09.11.17.26.24.45.81,1.47,1.61,2.92,2.4,4.35s1.54,2.85,2.26,4.28,1.43,2.88,2.12,4.37,1.36,3.02,2.02,4.58l-1.41-1.64h2.73l-1.69,1.74c.72-1.75,1.42-3.38,2.11-4.87.69-1.49,1.38-2.94,2.07-4.35.69-1.41,1.43-2.86,2.23-4.35s1.68-3.11,2.66-4.87h4c.19,0,.33.08.42.23.09.16.08.36-.05.61-.69,1.29-1.42,2.61-2.19,3.97-.77,1.36-1.54,2.74-2.3,4.13s-1.55,2.8-2.35,4.21-1.59,2.8-2.37,4.16c-.78,1.36-1.55,2.69-2.3,3.97-.85,0-1.51,0-2-.02-.49-.02-.85-.03-1.1-.05-.25-.02-.42-.05-.52-.12s-.17-.12-.24-.19c-.47-.78-1.05-1.79-1.74-3.01-.69-1.22-1.45-2.58-2.28-4.06-.83-1.49-1.69-3.04-2.59-4.65-.89-1.61-1.77-3.2-2.63-4.77-.86-1.57-1.68-3.04-2.47-4.42Zm15.98,32.9h-4c-.09,0-.18-.02-.26-.07-.08-.05-.14-.11-.19-.19-.05-.08-.07-.16-.07-.26v-14.15h4.51v14.66Z"/>
        </g>
        <g class="cls-1">
          <path class="cls-2" d="m885.96,257.9h-3.81c-.09,0-.18-.02-.26-.07s-.13-.12-.14-.21c-.02-.09,0-.22.02-.38.38-1.19.78-2.5,1.22-3.92.44-1.43.89-2.95,1.36-4.58.47-1.63.96-3.3,1.48-5.01.52-1.71,1.03-3.41,1.53-5.12.5-1.71.99-3.39,1.48-5.05.49-1.66.96-3.23,1.41-4.7.45-1.47.87-2.85,1.25-4.13h7.29c.12,0,.23.02.31.07.08.05.13.11.16.19s.06.16.09.26c.63,2.16,1.28,4.36,1.95,6.6s1.35,4.53,2.02,6.86,1.36,4.71,2.07,7.14c.71,2.43,1.42,4.9,2.14,7.4.19.79.38,1.56.59,2.33s.4,1.54.59,2.33h-3.9c-.12,0-.23-.02-.33-.07-.09-.05-.17-.13-.24-.26-.06-.12-.13-.3-.19-.52-.59-2.19-1.21-4.41-1.86-6.65s-1.29-4.44-1.93-6.6c-.64-2.16-1.25-4.25-1.81-6.25-.56-2-1.08-3.85-1.55-5.55-.47-1.69-.88-3.18-1.22-4.46l1.32.85h-3.24l1.32-.8c-.38,1.29-.81,2.73-1.29,4.35-.49,1.62-1.02,3.39-1.6,5.34-.58,1.94-1.21,4.02-1.88,6.23s-1.37,4.52-2.09,6.93c-.72,2.41-1.47,4.9-2.26,7.47Zm.94-13.07h14.1l1.32-.47.47,2.21.47,2.07h-15.89c-.09,0-.18-.02-.26-.07s-.14-.11-.19-.19-.07-.16-.07-.26l.05-3.29Z"/>
        </g>
        <g class="cls-1">
          <path class="cls-2" d="m925.21,258.84c-2.07,0-3.88-.28-5.45-.85-1.57-.56-2.88-1.39-3.95-2.47-1.06-1.08-1.86-2.4-2.4-3.95-.53-1.55-.8-3.31-.8-5.29v-9.87c0-1.91.27-3.62.8-5.12.53-1.51,1.33-2.8,2.4-3.88,1.07-1.08,2.37-1.91,3.9-2.49,1.54-.58,3.27-.87,5.22-.87,1.57,0,2.96.14,4.18.42,1.22.28,2.26.67,3.13,1.15.86.49,1.56.99,2.09,1.53.06.03.11.09.14.16.03.08.05.16.07.23.02.08.02.15.02.21v7.43h-3.57c-.16,0-.28-.05-.38-.14-.09-.09-.14-.22-.14-.38v-6.63l1.18,2.21c-.97-.78-1.99-1.33-3.05-1.64-1.07-.31-2.3-.47-3.71-.47-1.6,0-2.98.31-4.14.94-1.16.63-2.05,1.56-2.68,2.79-.63,1.24-.94,2.81-.94,4.72v9.3c0,1.5.18,2.84.54,4,.36,1.16.93,2.15,1.71,2.96.69.69,1.54,1.18,2.54,1.48,1,.3,2.1.45,3.29.45,1.79,0,3.34-.24,4.68-.73,1.33-.49,2.69-1.25,4.07-2.28h.75v3.48c0,.12-.02.23-.07.33-.05.09-.1.17-.16.23-.6.6-1.35,1.11-2.26,1.55-.91.44-1.96.79-3.15,1.06-1.19.27-2.47.4-3.85.4Z"/>
        </g>
        <g class="cls-1">
          <path class="cls-2" d="m938.98,225h22.42c.16,0,.28.05.38.14s.14.22.14.38v3.43h-22.42c-.09,0-.18-.02-.26-.07s-.14-.11-.19-.19-.07-.16-.07-.26v-3.43Zm13.72,32.9h-4c-.16,0-.28-.05-.38-.14-.09-.1-.14-.22-.14-.38v-30.31h4.89l-.38.89v29.94Z"/>
        </g>
        <g class="cls-1">
          <path class="cls-2" d="m967.18,225h15.84c.16,0,.28.05.38.14s.14.22.14.38v3.43h-15.84c-.16,0-.28-.05-.38-.16-.09-.11-.14-.23-.14-.35v-3.43Zm16.36,32.9h-15.84c-.09,0-.17-.02-.24-.05-.06-.03-.12-.07-.17-.12-.05-.05-.08-.1-.09-.17-.02-.06-.02-.12-.02-.19v-3.43h15.84c.09,0,.18.02.26.07.08.05.14.11.19.19s.07.16.07.26v3.43Zm-5.92-2.21h-4.65l.14-1.18v-27.31h4.75l-.24,1.18v27.31Z"/>
        </g>
        <g class="cls-1">
          <path class="cls-2" d="m1001.02,224.06c2.29,0,4.34.47,6.16,1.41,1.82.94,3.26,2.36,4.32,4.25,1.06,1.9,1.6,4.3,1.6,7.21v9.45c0,2.79-.55,5.11-1.64,6.96-1.1,1.85-2.56,3.23-4.39,4.13s-3.88,1.36-6.13,1.36-4.21-.46-6.04-1.36-3.3-2.29-4.39-4.13c-1.1-1.85-1.65-4.17-1.65-6.96v-9.45c0-2.91.54-5.32,1.62-7.21,1.08-1.89,2.54-3.31,4.37-4.25,1.83-.94,3.89-1.41,6.18-1.41Zm-7.9,22.23c0,1.76.24,3.17.73,4.23.49,1.06,1.06,1.9,1.72,2.49.56.53,1.28.98,2.16,1.34.88.36,1.97.54,3.29.54,1.54,0,2.88-.34,4.02-1.01s2.06-1.66,2.75-2.96c.69-1.3,1.03-2.89,1.03-4.77v-9.63c0-1.13-.09-2.1-.28-2.91-.19-.81-.46-1.54-.8-2.16-.35-.63-.75-1.16-1.22-1.6-.59-.56-1.36-1.01-2.28-1.34-.92-.33-2-.49-3.22-.49-1.82,0-3.31.35-4.49,1.06-1.17.71-2.04,1.69-2.58,2.96-.55,1.27-.82,2.77-.82,4.49v9.78Z"/>
          <path class="cls-2" d="m1023.72,257.9h-3.76c-.09,0-.18-.02-.26-.07s-.14-.11-.19-.19c-.05-.08-.07-.16-.07-.26v-32.38h5.41c.12,0,.24.02.33.05s.19.12.28.26c.09.14.22.35.38.63.53,1,1.13,2.15,1.81,3.46.67,1.3,1.41,2.7,2.21,4.21s1.62,3.08,2.47,4.72c.85,1.64,1.71,3.31,2.61,5.01.89,1.69,1.76,3.38,2.61,5.05.85,1.68,1.66,3.28,2.44,4.82l-1.88-1.46h2.91l-.8.89c-.16-1.5-.29-2.96-.4-4.37-.11-1.41-.2-2.81-.26-4.21s-.11-2.76-.14-4.09c-.03-1.33-.06-2.66-.07-3.99-.02-1.33-.02-2.64-.02-3.92v-7.05h3.76c.16,0,.28.05.38.14s.14.22.14.38v32.38h-4.75c-.19,0-.38-.05-.56-.16-.19-.11-.41-.4-.66-.87-1.22-2.16-2.44-4.38-3.64-6.65-1.21-2.27-2.43-4.57-3.67-6.91-1.24-2.33-2.46-4.68-3.67-7.05-1.21-2.37-2.41-4.71-3.6-7.03l1.88,1.69h-2.73l.71-1.27c.16,1.63.27,3.21.35,4.72.08,1.52.15,2.99.21,4.42s.12,2.8.17,4.13c.05,1.33.07,2.61.07,3.83v3.57c-.03,1.1-.04,2.32-.02,3.67.02,1.35.02,2.65.02,3.9Z"/>
        </g>
      </g>
      <g>
        <path class="cls-2" d="m296.21,79.69c2.33,0,4.35-.3,6.08-.9,1.72-.6,3.19-1.5,4.39-2.71.88-.88,1.62-1.96,2.23-3.25.6-1.28,1.08-2.83,1.44-4.63.36-1.81.54-3.95.54-6.44V13.87l2.05,5.05-3.85-3.85,5.29,2.17h-30.2c-.24,0-.46-.06-.66-.18s-.36-.28-.48-.48c-.12-.2-.18-.42-.18-.66V5.69h39.47c.24,0,.46.06.66.18s.36.28.48.48c.12.2.18.42.18.66v55.47c0,4.73-.58,8.96-1.74,12.69-1.16,3.73-2.89,6.86-5.17,9.39-2.29,2.53-5.13,4.45-8.54,5.78-3.41,1.32-7.4,1.99-11.97,1.99-2.81,0-5.44-.22-7.88-.66-2.45-.44-4.53-1.02-6.26-1.74s-2.99-1.44-3.79-2.17c-.08-.16-.16-.3-.24-.42-.08-.12-.14-.28-.18-.48-.04-.2-.06-.42-.06-.66v-10.83h1.92c1.84.88,3.63,1.67,5.35,2.35s3.51,1.18,5.35,1.5,3.77.48,5.78.48h-.01Z"/>
        <path class="cls-2" d="m349.16,89.91h-11.55c-.24,0-.44-.06-.6-.18s-.28-.3-.36-.54-.08-.52,0-.84c.8-2.73,1.72-5.9,2.77-9.51,1.04-3.61,2.15-7.5,3.31-11.67s2.37-8.52,3.61-13.06c1.24-4.53,2.51-9.04,3.79-13.54,1.28-4.49,2.53-8.9,3.73-13.24,1.2-4.33,2.35-8.36,3.43-12.09,1.08-3.73,1.06-7.08,1.95-10.05h21.42c.32,0,.58.06.78.18s1.34.26,1.42.42c.08.16.16.4.24.72,1.44,5.13,2.95,10.47,4.51,16,1.56,5.54,3.17,11.23,4.81,17.09,1.64,5.86,3.31,11.85,4.99,17.99s3.41,12.41,5.17,18.83c.48,2.17,1.02,4.37,1.62,6.62s1.14,4.53,1.62,6.86h-11.55c-.48,0-.84-.06-1.08-.18s-.42-.34-.54-.66c-.12-.32-.3-.8-.54-1.44-1.61-6.18-3.21-12.19-4.81-18.05-1.61-5.85-3.17-11.49-4.69-16.91-1.52-5.41-2.91-10.51-4.15-15.28s-2.39-9.18-3.43-13.24c-1.04-4.05-1.93-7.64-2.65-10.77l3.73,2.41h-9.27l3.85-2.29c-.8,3.05-1.74,6.52-2.83,10.41-1.08,3.89-2.29,8.2-3.61,12.94-1.32,4.73-2.79,9.87-4.39,15.4-1.61,5.53-3.29,11.43-5.05,17.69-1.77,6.26-3.65,12.92-5.66,19.97h0Zm.72-33.57h35.13l3.73-1.08,1.32,6.26,1.32,6.14h-40.31c-.24,0-.46-.06-.66-.18s-.36-.28-.48-.48c-.12-.2-.18-.42-.18-.66l.12-9.99h0Z"/>
        <path class="cls-2" d="m432.42,89.91h-11.31c-.24,0-.46-.06-.66-.18s-.36-.28-.48-.48c-.12-.2-.18-.42-.18-.66V5.69h16.24c.4,0,.74.06,1.02.18s.54.34.78.66c.24.32.48.84.72,1.56,1.44,3.29,2.87,6.64,4.27,10.05s2.81,6.84,4.21,10.29,2.81,6.94,4.21,10.47c1.4,3.53,2.81,7.12,4.21,10.77s2.87,7.36,4.39,11.13l-5.53-6.26h8.3l-5.66,6.26c1.52-3.85,3.03-7.66,4.51-11.43s2.95-7.5,4.39-11.19,2.89-7.36,4.33-11.01c1.44-3.65,2.89-7.26,4.33-10.83,1.44-3.57,2.89-7.12,4.33-10.65h16.85c.24,0,.46.06.66.18s.36.28.48.48c.12.2.18.42.18.66v82.9h-11.43c-.24,0-.46-.06-.66-.18s-.36-.28-.48-.48c-.12-.2-.18-.42-.18-.66v-16.24c0-2.57.02-5.11.06-7.64s.08-5.07.12-7.64.12-5.21.24-7.94.28-5.54.48-8.42c.2-2.89.42-5.96.66-9.2.24-3.25.48-6.68.72-10.29l2.41,3.49h-8.18l4.69-3.73c-1.36,3.45-2.83,7-4.39,10.65-1.56,3.65-3.11,7.36-4.63,11.13-1.52,3.77-3.05,7.5-4.57,11.19-1.52,3.69-3.01,7.26-4.45,10.71s-2.81,6.74-4.09,9.87h-9.26c-.24,0-.48-.06-.72-.18s-.48-.42-.72-.9c-.88-2.33-1.99-5.05-3.31-8.18-1.32-3.13-2.71-6.52-4.15-10.17-1.44-3.65-2.97-7.42-4.57-11.31-1.61-3.89-3.19-7.74-4.75-11.55-1.56-3.81-3.07-7.48-4.51-11.01l4.69,3.49h-8.06l2.05-3.61c.32,3.53.62,6.92.9,10.17.28,3.25.52,6.32.72,9.2.2,2.89.34,5.7.42,8.42.08,2.73.16,5.4.24,8,.08,2.61.12,5.17.12,7.7v25.33-.02Z"/>
        <path class="cls-2" d="m509.67,5.69h55.23c.24,0,.44.06.6.18s.32.28.48.48.24.42.24.66v10.23h-55.23c-.24,0-.46-.06-.66-.18s-.36-.28-.48-.48c-.12-.2-.18-.42-.18-.66V5.69h0Zm8.06,84.23c-.16,0-.32-.04-.48-.12s-.3-.18-.42-.3-.22-.26-.3-.42c-.08-.16-.12-.32-.12-.48V11.94h14.2l-.84,2.17v64.25h35.13c.4,0,.72.12.96.36.24.24.36.56.36.96v10.23h-48.49Zm6.5-48.13h33.93c.24,0,.46.06.66.18.2.12.36.26.48.42s.18.4.18.72v9.87h-35.25v-11.19h0Z"/>
        <path class="cls-2" d="m575.84,5.69h55.23c.24,0,.44.06.6.18s.32.28.48.48.24.42.24.66v10.23h-55.23c-.24,0-.46-.06-.66-.18-.2-.12-.36-.28-.48-.48-.12-.2-.18-.42-.18-.66V5.69Zm8.06,84.23c-.16,0-.32-.04-.48-.12s-.3-.18-.42-.3-.22-.26-.3-.42c-.08-.16-.12-.32-.12-.48V11.94h14.2l-.84,2.17v64.25h35.13c.4,0,.72.12.96.36.24.24.36.56.36.96v10.23h-48.49Zm6.5-48.13h33.93c.24,0,.46.06.66.18.2.12.36.26.48.42s.18.4.18.72v9.87h-35.25v-11.19h0Z"/>
        <path class="cls-2" d="m649.72,89.91c-.24,0-.44-.04-.6-.12s-.3-.18-.42-.3-.2-.26-.24-.42c-.04-.16-.06-.32-.06-.48V5.69h12.15c.24,0,.46.06.66.18.2.12.36.28.48.48s.18.42.18.66v71.35h26.83c1.6,0,2.97.22,4.09.66,1.12.44,2.06,1.16,2.83,2.17.76,1,1.36,2.23,1.81,3.67.44,1.44.82,3.13,1.14,5.05h-48.85Zm36.7-22.5h10.83c.24,0,.46.06.66.18.2.12.36.28.48.48.12.2.18.42.18.66v21.18c-3.13-.24-5.58-.76-7.34-1.56-1.77-.8-3.01-1.9-3.73-3.31-.72-1.4-1.08-3.07-1.08-4.99v-12.63h0Z"/>
      </g>
      <g>
        <path class="cls-2" d="m303.25,109.5c5.94,0,11.27,1.22,16,3.67s8.48,6.12,11.25,11.01c2.77,4.89,4.15,11.07,4.15,18.53v23.82c0,7.06-1.4,12.96-4.21,17.69s-6.58,8.3-11.31,10.71-10.03,3.61-15.88,3.61-11.05-1.2-15.82-3.61c-4.77-2.41-8.56-5.98-11.37-10.71-2.81-4.73-4.21-10.63-4.21-17.69v-23.82c0-7.46,1.42-13.64,4.27-18.53,2.85-4.89,6.66-8.56,11.43-11.01,4.77-2.45,10.01-3.67,15.7-3.67Zm-18.65,56.43c0,4.57.6,8.12,1.8,10.65s2.57,4.51,4.09,5.96c1.36,1.2,3.11,2.21,5.23,3.01,2.12.8,4.71,1.2,7.76,1.2,3.61,0,6.78-.78,9.51-2.35,2.73-1.56,4.89-3.93,6.5-7.1,1.6-3.17,2.41-7.04,2.41-11.61v-24.19c0-2.73-.2-5.09-.6-7.1-.4-2-1-3.73-1.81-5.17-.8-1.44-1.8-2.69-3.01-3.73-1.36-1.36-3.15-2.45-5.35-3.25-2.21-.8-4.75-1.2-7.64-1.2-4.41,0-8,.86-10.77,2.59-2.77,1.73-4.81,4.11-6.14,7.16-1.32,3.05-1.99,6.62-1.99,10.71v24.43h.01Z"/>
        <path class="cls-2" d="m345.96,111.9h33.93c4.73,0,8.74.5,12.03,1.5s5.94,2.41,7.94,4.21c2,1.8,3.49,3.91,4.45,6.32.96,2.41,1.44,4.93,1.44,7.58v2.89c0,3.13-.56,5.88-1.68,8.24-1.12,2.37-2.77,4.35-4.93,5.96-2.17,1.61-4.81,2.81-7.94,3.61s-6.7,1.2-10.71,1.2h-19.01l-1.68,1.2-.36-6.74h18.77c3.77,0,6.7-.46,8.78-1.38s3.55-2.27,4.39-4.03c.84-1.76,1.26-3.81,1.26-6.14v-3.01c0-1.44-.2-2.77-.6-3.97s-1.04-2.21-1.93-3.01c-.96-.96-2.29-1.7-3.97-2.23-1.68-.52-3.73-.78-6.14-.78h-32.73c-.4,0-.72-.12-.96-.36s-.36-.56-.36-.96v-10.11h0Zm36.34,84.23h-28.28c-.4,0-.72-.12-.96-.36s-.36-.56-.36-.96v-75.68h13.84l-.72,2.17v63.41h14.32c3.05,0,5.55-.46,7.52-1.38,1.96-.92,3.41-2.24,4.33-3.97.92-1.72,1.38-3.75,1.38-6.08v-3.49c0-2.24-.46-4.17-1.38-5.78-.92-1.6-2.49-2.85-4.69-3.73-2.21-.88-5.28-1.32-9.2-1.32h-18.65l.36-8.18h31.89v3.37c4.81.88,8.48,2.81,11.01,5.78s3.79,6.9,3.79,11.79v3.25c0,4.89-1,8.9-3.01,12.03s-4.81,5.44-8.42,6.92c-3.61,1.49-7.86,2.23-12.75,2.23l-.02-.02Z"/>
        <path class="cls-2" d="m448.24,109.74c5.45,0,10.19.64,14.2,1.93,4.01,1.28,6.98,2.89,8.9,4.81.4.32.64.62.72.9s.12.66.12,1.14v16h-10.83c-.4,0-.72-.12-.96-.36s-.36-.56-.36-.96v-13l3.25,4.93c-1.93-1.28-4.09-2.25-6.5-2.89s-5.25-.96-8.54-.96c-2.65,0-4.99.24-7.04.72-2.05.48-3.79,1.22-5.23,2.23-1.44,1-2.53,2.23-3.25,3.67s-1.08,3.09-1.08,4.93v2.53c0,1.85.3,3.47.9,4.87s1.72,2.61,3.37,3.61c1.64,1,4.03,1.99,7.16,2.95l11.55,3.49c3.69,1.04,6.82,2.21,9.39,3.49s4.59,2.73,6.08,4.33c1.48,1.61,2.57,3.45,3.25,5.54s1.02,4.53,1.02,7.34v4.93c0,4.57-1.18,8.54-3.55,11.91-2.37,3.37-5.78,5.96-10.23,7.76-4.45,1.8-9.85,2.71-16.18,2.71-3.93,0-7.6-.28-11.01-.84s-6.38-1.34-8.9-2.35c-2.53-1-4.51-2.18-5.96-3.55-.24-.32-.42-.62-.54-.9s-.18-.7-.18-1.26v-10.35h2.05c3.61,2.73,7.36,4.67,11.25,5.84,3.89,1.16,8.56,1.75,14.02,1.75s9.58-1.02,12.39-3.07c2.81-2.05,4.21-4.71,4.21-8v-3.49c0-1.76-.3-3.25-.9-4.45s-1.73-2.29-3.37-3.25c-1.65-.96-4.11-1.92-7.4-2.89l-11.55-3.49c-3.85-1.12-7.02-2.41-9.51-3.85-2.49-1.44-4.47-3.05-5.96-4.81s-2.53-3.67-3.13-5.72-.9-4.27-.9-6.68v-5.05c0-3.29.7-6.28,2.11-8.96,1.4-2.69,3.39-5.03,5.96-7.04,2.57-2,5.63-3.53,9.2-4.57s7.56-1.56,11.97-1.56h-.01Z"/>
        <path class="cls-2" d="m485.05,111.9h55.23c.24,0,.44.06.6.18s.32.28.48.48c.16.2.24.42.24.66v10.23h-55.23c-.24,0-.46-.06-.66-.18s-.36-.28-.48-.48c-.12-.2-.18-.42-.18-.66v-10.23h0Zm8.06,84.23c-.16,0-.32-.04-.48-.12s-.3-.18-.42-.3c-.12-.12-.22-.26-.3-.42s-.12-.32-.12-.48v-76.65h14.2l-.84,2.17v64.25h35.13c.4,0,.72.12.96.36.24.24.36.56.36.96v10.23h-48.49Zm6.5-48.13h33.93c.24,0,.46.06.66.18.2.12.36.26.48.42s.18.4.18.72v9.87h-35.25v-11.19h0Z"/>
        <path class="cls-2" d="m551.71,111.9h33.69c4.49,0,8.38.54,11.67,1.62s6,2.67,8.12,4.75c2.12,2.09,3.69,4.59,4.69,7.52s1.5,6.24,1.5,9.93v6.14c0,3.61-.54,6.84-1.62,9.69s-2.69,5.28-4.81,7.28c-2.13,2.01-4.67,3.53-7.64,4.57-2.97,1.04-6.38,1.56-10.23,1.56h-16.85l-1.32.72v-12.03h16.73c2.89,0,5.25-.44,7.1-1.32,1.84-.88,3.21-2.21,4.09-3.97s1.32-3.93,1.32-6.5v-6.5c0-1.93-.24-3.61-.72-5.05s-1.2-2.65-2.17-3.61c-.96-1.04-2.25-1.84-3.85-2.41-1.61-.56-3.53-.84-5.78-.84h-32.61c-.4,0-.72-.12-.96-.36-.24-.24-.36-.56-.36-.96v-10.23h0Zm19.85,84.23h-11.79c-.4,0-.72-.12-.96-.36-.24-.24-.36-.56-.36-.96v-76.16h14.56l-1.44,2.65v74.84h-.01Zm22.02-38.98c2.24,4.09,4.39,8,6.44,11.73s4.15,7.64,6.32,11.73c.88,1.52,1.7,2.57,2.47,3.13.76.56,1.7.84,2.83.84h3.85v10.23c0,.4-.12.72-.36.96s-.56.36-.96.36h-4.33c-2.41,0-4.45-.26-6.14-.78-1.68-.52-3.17-1.38-4.45-2.59-1.28-1.2-2.49-2.85-3.61-4.93-2.17-4.25-4.35-8.52-6.56-12.81s-4.39-8.56-6.56-12.81l11.07-5.05h0Z"/>
        <path class="cls-2" d="m635.58,111.9c.32,0,.58.06.78.18s.36.32.48.6.3.74.54,1.38c2.17,8.34,4.19,15.98,6.08,22.92,1.88,6.94,3.65,13.38,5.29,19.31,1.64,5.94,3.21,11.61,4.69,17.03,1.48,5.41,2.99,10.77,4.51,16.06l-4.33-3.49h9.02l-4.21,3.49c1.12-4.09,2.29-8.28,3.49-12.57s2.49-8.74,3.85-13.36c1.36-4.61,2.79-9.52,4.27-14.74,1.48-5.21,3.07-10.87,4.75-16.97,1.68-6.1,3.49-12.71,5.41-19.85h11.91c.24,0,.44.04.6.12s.26.24.3.48c.04.24.02.52-.06.84-.88,2.97-1.97,6.64-3.25,11.01-1.28,4.37-2.65,9.14-4.09,14.32s-2.91,10.47-4.39,15.88c-1.48,5.41-2.97,10.73-4.45,15.94-1.49,5.22-2.87,10.07-4.15,14.56-1.28,4.49-2.41,8.34-3.37,11.55h-20.33c-.72,0-1.22-.16-1.5-.48-.28-.32-.58-1-.9-2.05-.96-3.29-1.99-6.82-3.07-10.59-1.08-3.77-2.21-7.76-3.37-11.97s-2.39-8.54-3.67-13c-1.28-4.45-2.55-9-3.79-13.66-1.24-4.65-2.55-9.34-3.91-14.08-.56-2.08-1.14-4.17-1.74-6.26-.6-2.08-1.2-4.17-1.81-6.26-.6-2.08-1.22-4.21-1.86-6.38h12.27v.04Z"/>
        <path class="cls-2" d="m709.58,196.13h-11.55c-.24,0-.44-.06-.6-.18s-.28-.3-.36-.54c-.08-.24-.08-.52,0-.84.8-2.73,1.72-5.9,2.77-9.51,1.04-3.61,2.15-7.5,3.31-11.67s2.37-8.52,3.61-13.06c1.24-4.53,2.51-9.04,3.79-13.54,1.28-4.49,2.53-8.9,3.73-13.24,1.2-4.33,2.35-8.36,3.43-12.09,1.08-3.73,2.06-7.08,2.95-10.05h21.42c.32,0,.58.06.78.18s.34.26.42.42c.08.16.16.4.24.72,1.44,5.13,2.95,10.47,4.51,16,1.56,5.54,3.17,11.23,4.81,17.09s3.31,11.85,4.99,17.99,3.41,12.41,5.17,18.83c.48,2.17,1.02,4.37,1.62,6.62s1.14,4.53,1.62,6.86h-11.55c-.48,0-.84-.06-1.08-.18s-.42-.34-.54-.66-.3-.8-.54-1.44c-1.61-6.18-3.21-12.19-4.81-18.05-1.61-5.85-3.17-11.49-4.69-16.91-1.52-5.41-2.91-10.51-4.15-15.28-1.24-4.77-2.39-9.18-3.43-13.24-1.04-4.05-1.93-7.64-2.65-10.77l3.73,2.41h-9.27l3.85-2.29c-.8,3.05-1.74,6.52-2.83,10.41-1.08,3.89-2.29,8.2-3.61,12.94-1.32,4.73-2.79,9.87-4.39,15.4-1.61,5.53-3.29,11.43-5.05,17.69-1.77,6.26-3.65,12.92-5.66,19.97h.01Zm.72-33.57h35.13l3.73-1.08,1.32,6.26,1.32,6.14h-40.31c-.24,0-.46-.06-.66-.18-.2-.12-.36-.28-.48-.48s-.18-.42-.18-.66l.12-9.99h0Z"/>
        <path class="cls-2" d="m767.57,111.9h57.76c.4,0,.74.12,1.02.36s.42.56.42.96v10.23h-57.76c-.24,0-.48-.06-.72-.18s-.42-.28-.54-.48c-.12-.2-.18-.42-.18-.66v-10.23h0Zm36.34,84.23h-12.15c-.4,0-.72-.12-.96-.36-.24-.24-.36-.56-.36-.96v-76.65h14.56l-1.08,2.65v75.32h0Z"/>
        <path class="cls-2" d="m868.76,109.5c5.94,0,11.27,1.22,16,3.67s8.48,6.12,11.25,11.01c2.77,4.89,4.15,11.07,4.15,18.53v23.82c0,7.06-1.4,12.96-4.21,17.69s-6.58,8.3-11.31,10.71-10.03,3.61-15.88,3.61-11.05-1.2-15.82-3.61-8.56-5.98-11.37-10.71c-2.81-4.73-4.21-10.63-4.21-17.69v-23.82c0-7.46,1.42-13.64,4.27-18.53,2.85-4.89,6.66-8.56,11.43-11.01,4.77-2.45,10.01-3.67,15.7-3.67Zm-18.65,56.43c0,4.57.6,8.12,1.8,10.65s2.57,4.51,4.09,5.96c1.36,1.2,3.11,2.21,5.23,3.01,2.12.8,4.71,1.2,7.76,1.2,3.61,0,6.78-.78,9.51-2.35,2.73-1.56,4.89-3.93,6.5-7.1,1.6-3.17,2.41-7.04,2.41-11.61v-24.19c0-2.73-.2-5.09-.6-7.1-.4-2-1-3.73-1.81-5.17-.8-1.44-1.8-2.69-3.01-3.73-1.36-1.36-3.15-2.45-5.35-3.25-2.21-.8-4.75-1.2-7.64-1.2-4.41,0-8,.86-10.77,2.59-2.77,1.73-4.81,4.11-6.14,7.16-1.32,3.05-1.99,6.62-1.99,10.71v24.43h.01Z"/>
        <path class="cls-2" d="m911.48,111.9h33.69c4.49,0,8.38.54,11.67,1.62s6,2.67,8.12,4.75c2.12,2.09,3.69,4.59,4.69,7.52s1.5,6.24,1.5,9.93v6.14c0,3.61-.54,6.84-1.62,9.69s-2.69,5.28-4.81,7.28c-2.13,2.01-4.67,3.53-7.64,4.57-2.97,1.04-6.38,1.56-10.23,1.56h-16.85l-1.32.72v-12.03h16.73c2.89,0,5.25-.44,7.1-1.32,1.84-.88,3.21-2.21,4.09-3.97s1.32-3.93,1.32-6.5v-6.5c0-1.93-.24-3.61-.72-5.05s-1.2-2.65-2.17-3.61c-.96-1.04-2.25-1.84-3.85-2.41-1.61-.56-3.53-.84-5.78-.84h-32.61c-.4,0-.72-.12-.96-.36-.24-.24-.36-.56-.36-.96v-10.23h0Zm19.85,84.23h-11.79c-.4,0-.72-.12-.96-.36-.24-.24-.36-.56-.36-.96v-76.16h14.56l-1.44,2.65v74.84h-.01Zm22.02-38.98c2.24,4.09,4.39,8,6.44,11.73s4.15,7.64,6.32,11.73c.88,1.52,1.7,2.57,2.47,3.13.76.56,1.7.84,2.83.84h3.85v10.23c0,.4-.12.72-.36.96s-.56.36-.96.36h-4.33c-2.41,0-4.45-.26-6.14-.78-1.68-.52-3.17-1.38-4.45-2.59-1.28-1.2-2.49-2.85-3.61-4.93-2.17-4.25-4.35-8.52-6.56-12.81s-4.39-8.56-6.56-12.81l11.07-5.05h0Z"/>
        <path class="cls-2" d="m978.74,111.9h12.51c.56,0,1,.06,1.32.18s.6.34.84.66c.24.32.48.76.72,1.32,2,3.69,3.93,7.32,5.78,10.89,1.84,3.57,3.63,7.14,5.35,10.71,1.72,3.57,3.41,7.24,5.05,11.01,1.64,3.77,3.23,7.66,4.75,11.67l-3.85-4.09h7.7l-4.45,4.33c1.68-4.41,3.31-8.52,4.87-12.33s3.19-7.5,4.87-11.07,3.49-7.24,5.41-11.01c1.93-3.77,4.05-7.86,6.38-12.27h12.03c.56,0,.96.2,1.2.6s.16,1-.24,1.81c-1.77,3.37-3.59,6.82-5.47,10.35-1.89,3.53-3.81,7.1-5.78,10.71s-3.97,7.26-6.02,10.95-4.05,7.32-6.02,10.89c-1.97,3.57-3.87,7.04-5.72,10.41h-6.2c-1.48,0-2.59-.04-3.31-.12s-1.22-.2-1.5-.36-.5-.36-.66-.6c-.96-1.6-2.27-3.93-3.91-6.98-1.65-3.05-3.53-6.54-5.66-10.47-2.13-3.93-4.35-8.06-6.68-12.39s-4.61-8.64-6.86-12.93-4.41-8.24-6.5-11.85l.05-.02Zm42.47,84.23h-12.15c-.24,0-.46-.06-.66-.18-.2-.12-.36-.26-.48-.42s-.18-.4-.18-.72v-35.86h13.48v37.18h-.01Z"/>
      </g>
      <g>
        <path class="cls-2" d="m200.99,124.81c-19.41-15.48-48.89-13.67-65.85,4.06-16.96,17.72-14.97,44.64,4.44,60.12s48.89,13.66,65.85-4.06c16.96-17.72,14.97-44.63-4.44-60.12h0Zm-50.1,61.26c-12.65-10.09-13.95-27.63-2.9-39.18s30.27-12.73,42.92-2.64,13.95,27.63,2.9,39.18-30.27,12.73-42.92,2.64Z"/>
        <path class="cls-2" d="m49.81,94.25c25.72-1.58,45.16-21.9,43.42-45.38-1.73-23.48-23.99-41.22-49.7-39.64C17.81,10.82-1.63,31.14.11,54.61c1.73,23.48,23.99,41.22,49.7,39.64Zm-12.02-75.66c16.76-1.03,31.26,10.53,32.39,25.84,1.13,15.3-11.54,28.54-28.3,29.57-16.76,1.03-31.26-10.53-32.39-25.84-1.13-15.3,11.54-28.54,28.3-29.57Z"/>
        <path class="cls-2" d="m204.67,153.1S290.06-75.87,61.2,26.22c13.63,10.6,12.2,10.8,12.2,10.8,0,0,168.74-94.5,112.7,100.99,13.72,6.19,18.57,15.1,18.57,15.1h0Z"/>
        <path class="cls-2" d="m9.19,71.09s-43.56,185.66,145.93,124.86c-13.6-10.65-12.94-10.32-12.94-10.32,0,0-134.93,56.88-107.4-97.73-13.07-6.89-25.59-16.82-25.59-16.82h0Z"/>
      </g>
    </g>
  </g>
</svg>