<?xml version="1.0" encoding="UTF-8"?>
<svg id="Layer_2" data-name="Layer 2" xmlns="http://www.w3.org/2000/svg" viewBox="0 0 175.75 39.58">
  <defs>
    <style>
      .cls-1 {
        fill: #a90533;
      }

      .cls-1, .cls-2 {
        fill-rule: evenodd;
      }

      .cls-2 {
        fill: #939598;
      }
    </style>
  </defs>
  <g id="Layer_1-2" data-name="Layer 1">
    <g>
      <polygon class="cls-1" points="38.29 7.55 38.29 .13 46.18 .13 46.18 7.55 38.29 7.55 38.29 7.55"/>
      <polygon class="cls-1" points="51.13 37.24 51.13 11.88 58.96 11.88 58.96 37.24 51.13 37.24 51.13 37.24"/>
      <polygon class="cls-1" points="0 .13 7.83 .13 7.83 37.24 0 37.24 0 .13 0 .13"/>
      <polygon class="cls-1" points="25.56 37.24 25.56 .13 33.4 .13 33.4 37.24 25.56 37.24 25.56 37.24"/>
      <polygon class="cls-1" points="12.78 25.49 12.78 .13 20.62 .13 20.62 25.49 12.78 25.49 12.78 25.49"/>
      <polygon class="cls-1" points="51.08 7.55 51.08 .13 71.75 .13 71.75 7.55 51.08 7.55 51.08 7.55"/>
      <path class="cls-1" d="m97.09.01v8.93h-2.14l.14-6.37.03-.9-.08.32c-.11.51-.13.57-.23.95l-1.68,6h-1.92l-1.62-5.75-.39-1.59c.04.71.04.86.08,1.71l.11,5.63h-2.16V.01h3.26l1.37,5.01.32,1.43c.13-.62.14-.68.24-1.1L93.84.01h3.25Z"/>
      <path class="cls-1" d="m98.8,4.21c.04-.46.1-1,.7-1.47.61-.48,1.39-.58,2.16-.58s2.77.19,2.77,1.9v3.85c0,.71.04.81.19,1.04h-1.91v-.61c-.49.37-1.05.78-2.03.78-1.52,0-2.16-1.09-2.16-2.01,0-1.06.85-1.67,1.39-1.9.53-.23,1.78-.46,2.61-.61v-.35c-.03-.3-.05-.81-.75-.81-.86,0-.98.53-1.03.77h-1.95Zm2.47,1.99c-.33.13-.84.32-.84.82,0,.32.28.67.73.67.24,0,.47-.09.67-.22.65-.41.67-1.01.68-1.7l-1.25.42h0Z"/>
      <path class="cls-1" d="m106.54,6.72c.53.52,1.19.91,1.92.91.47,0,1.18-.15,1.18-.65,0-.23-.14-.32-.25-.38-.29-.15-.75-.19-1.13-.25-.29-.05-.6-.11-.89-.2-.4-.11-.81-.28-1.1-.57-.29-.29-.49-.75-.49-1.24,0-1.09.94-2.21,2.78-2.21,1.56,0,2.49.67,2.95.99l-1.2,1.11c-.62-.48-1.2-.66-1.66-.66-.76,0-.94.3-.94.49,0,.38.42.46,1.05.57,1.33.24,2.87.59,2.87,2.16s-1.57,2.32-3.13,2.32c-1.83,0-2.78-.89-3.2-1.28l1.23-1.11h0Z"/>
      <path class="cls-1" d="m113.14,6.72c.53.52,1.19.91,1.92.91.47,0,1.18-.15,1.18-.65,0-.23-.14-.32-.25-.38-.29-.15-.75-.19-1.13-.25-.29-.05-.59-.11-.89-.2-.41-.11-.81-.28-1.1-.57-.29-.29-.49-.75-.49-1.24,0-1.09.94-2.21,2.78-2.21,1.56,0,2.49.67,2.95.99l-1.2,1.11c-.62-.48-1.2-.66-1.66-.66-.76,0-.94.3-.94.49,0,.38.42.46,1.05.57,1.33.24,2.87.59,2.87,2.16s-1.57,2.32-3.13,2.32c-1.84,0-2.78-.89-3.2-1.28l1.23-1.11h0Z"/>
      <path class="cls-1" d="m119.37,4.21c.04-.46.1-1,.7-1.47.61-.48,1.39-.58,2.16-.58s2.77.19,2.77,1.9v3.85c0,.71.04.81.19,1.04h-1.91v-.61c-.49.37-1.05.78-2.03.78-1.52,0-2.16-1.09-2.16-2.01,0-1.06.85-1.67,1.39-1.9.53-.23,1.78-.46,2.61-.61v-.35c-.03-.3-.05-.81-.75-.81-.86,0-.97.53-1.03.77h-1.95Zm2.47,1.99c-.33.13-.84.32-.84.82,0,.32.28.67.73.67.24,0,.47-.09.67-.22.64-.41.67-1.01.68-1.7l-1.25.42h0Z"/>
      <path class="cls-1" d="m132.54,7.39c-.24.38-.51.8-1.04,1.18-.51.36-1.15.59-1.9.59-1.27,0-3.28-.76-3.28-3.45,0-1.92,1.11-3.54,3.32-3.54.73,0,1.99.2,2.82,1.58l-1.44.82c-.11-.24-.24-.47-.56-.7-.19-.13-.43-.23-.73-.23-1.05,0-1.4,1.2-1.4,2,0,.87.43,1.97,1.47,1.97.1,0,.58,0,.99-.46.16-.19.23-.34.29-.53l1.47.76h0Z"/>
      <path class="cls-1" d="m134.8,0v3.04c.28-.28.85-.87,1.9-.87.48,0,1.01.14,1.4.47.58.49.68,1.11.68,1.97v4.34h-1.94v-3.46c0-.53-.01-.78-.09-1.01-.19-.6-.71-.66-.91-.66-.34,0-.63.17-.8.38-.25.34-.25.89-.25,1.45v3.29h-1.95V0h1.95Z"/>
      <path class="cls-1" d="m144.44,2.34h1.95v6.61h-1.95v-.63c-.19.22-.3.34-.66.52-.39.2-.82.3-1.25.3s-1.23-.06-1.68-.7c-.34-.48-.4-.87-.4-1.95V2.34h1.96v4.1c0,.29,0,.58.15.78.11.15.38.33.77.33.11,0,.38,0,.67-.16.42-.25.43-.58.44-.94V2.34h0Z"/>
      <path class="cls-1" d="m148.48,6.72c.53.52,1.19.91,1.92.91.47,0,1.18-.15,1.18-.65,0-.23-.14-.32-.25-.38-.29-.15-.75-.19-1.13-.25-.29-.05-.6-.11-.89-.2-.4-.11-.81-.28-1.1-.57-.29-.29-.49-.75-.49-1.24,0-1.09.94-2.21,2.78-2.21,1.56,0,2.49.67,2.95.99l-1.2,1.11c-.62-.48-1.2-.66-1.66-.66-.76,0-.94.3-.94.49,0,.38.42.46,1.05.57,1.33.24,2.87.59,2.87,2.16s-1.57,2.32-3.13,2.32c-1.84,0-2.78-.89-3.2-1.28l1.23-1.11h0Z"/>
      <path class="cls-1" d="m160.9,7.26c-.23.34-.46.67-.8.99-.57.53-1.43.94-2.49.94-1.96,0-3.34-1.25-3.34-3.42,0-1.59.78-3.64,3.39-3.64.39,0,1.53.04,2.38.95.86.92.91,2.21.94,2.96h-4.72c-.01.82.45,1.65,1.51,1.65s1.43-.7,1.67-1.16l1.47.75h0Zm-1.94-2.44c-.04-.28-.09-.65-.37-.94-.24-.24-.61-.37-.95-.37-.47,0-.8.23-.99.43-.27.29-.33.59-.39.87h2.7Z"/>
      <path class="cls-1" d="m162.35.43h1.94v2.06h1.28v1.19h-1.29v2.97c-.01.41-.01.75.51.75l.7-.03v1.52c-.42.06-.67.1-1.02.1-.67,0-1.41-.04-1.82-.65-.27-.39-.28-.86-.28-1.49v-3.19h-.96v-1.19h.96V.43h0Z"/>
      <path class="cls-1" d="m166.07.43h1.94v2.06h1.28v1.19h-1.29v2.97c-.01.41-.01.75.51.75l.7-.03v1.52c-.42.06-.67.1-1.03.1-.67,0-1.4-.04-1.82-.65-.27-.39-.28-.86-.28-1.49v-3.19h-.96v-1.19h.96V.43h0Z"/>
      <path class="cls-1" d="m170.65,6.72c.53.52,1.19.91,1.92.91.47,0,1.18-.15,1.18-.65,0-.23-.14-.32-.25-.38-.29-.15-.75-.19-1.13-.25-.29-.05-.6-.11-.89-.2-.4-.11-.81-.28-1.1-.57-.29-.29-.49-.75-.49-1.24,0-1.09.94-2.21,2.78-2.21,1.56,0,2.49.67,2.95.99l-1.2,1.11c-.62-.48-1.2-.66-1.66-.66-.76,0-.94.3-.94.49,0,.38.42.46,1.05.57,1.33.24,2.87.59,2.87,2.16s-1.57,2.32-3.13,2.32c-1.83,0-2.78-.89-3.2-1.28l1.23-1.11h0Z"/>
      <polygon class="cls-1" points="89.53 14.08 89.53 23.01 87.3 23.01 87.3 14.08 89.53 14.08 89.53 14.08"/>
      <path class="cls-1" d="m93.26,17c.19-.2.32-.35.66-.52.3-.13.73-.24,1.2-.24.39,0,.84.08,1.18.27.7.37.87.96.87,1.99v4.52h-1.94v-3.72c0-.59-.01-.81-.09-.99-.15-.35-.49-.51-.87-.51-1.02,0-1.02.82-1.02,1.65v3.57h-1.95v-6.59h1.96v.58h0Z"/>
      <path class="cls-1" d="m99.26,20.79c.53.52,1.19.91,1.92.91.47,0,1.18-.15,1.18-.65,0-.23-.14-.32-.25-.38-.29-.15-.75-.19-1.13-.25-.29-.05-.59-.11-.89-.2-.41-.11-.81-.28-1.1-.57-.29-.29-.49-.75-.49-1.24,0-1.09.94-2.21,2.78-2.21,1.56,0,2.49.67,2.95.99l-1.2,1.11c-.62-.48-1.2-.66-1.66-.66-.76,0-.94.3-.94.49,0,.38.42.46,1.05.57,1.33.24,2.87.59,2.87,2.16s-1.57,2.32-3.13,2.32c-1.84,0-2.78-.89-3.2-1.28l1.23-1.11h0Z"/>
      <path class="cls-1" d="m105.75,14.5h1.94v2.06h1.28v1.19h-1.29v2.97c-.01.4-.01.75.51.75l.7-.03v1.52c-.42.06-.67.1-1.03.1-.67,0-1.4-.04-1.82-.65-.27-.39-.28-.86-.28-1.49v-3.19h-.96v-1.19h.96v-2.05h0Z"/>
      <path class="cls-1" d="m110.01,14.07h1.92v1.51h-1.92v-1.51h0Zm0,2.33h1.92v6.62h-1.92v-6.62h0Z"/>
      <path class="cls-1" d="m113.92,14.5h1.94v2.06h1.28v1.19h-1.29v2.97c-.01.4-.01.75.51.75l.7-.03v1.52c-.42.06-.67.1-1.03.1-.67,0-1.4-.04-1.82-.65-.27-.39-.28-.86-.28-1.49v-3.19h-.96v-1.19h.96v-2.05h0Z"/>
      <path class="cls-1" d="m122.11,16.41h1.95v6.61h-1.95v-.63c-.19.21-.3.34-.66.52-.39.2-.82.3-1.25.3s-1.23-.06-1.68-.7c-.34-.48-.4-.87-.4-1.95v-4.15h1.96v4.1c0,.29,0,.58.15.78.11.15.38.33.77.33.11,0,.38,0,.67-.16.42-.25.43-.58.44-.94v-4.11h0Z"/>
      <path class="cls-1" d="m126.05,14.5h1.94v2.06h1.28v1.19h-1.29v2.97c-.01.4-.01.75.51.75l.7-.03v1.52c-.42.06-.67.1-1.03.1-.67,0-1.4-.04-1.82-.65-.27-.39-.28-.86-.28-1.49v-3.19h-.96v-1.19h.96v-2.05h0Z"/>
      <path class="cls-1" d="m136.46,21.33c-.23.34-.46.67-.8.99-.57.53-1.43.94-2.49.94-1.96,0-3.34-1.25-3.34-3.42,0-1.59.79-3.64,3.39-3.64.39,0,1.53.04,2.38.95.86.92.91,2.22.94,2.96h-4.72c-.01.82.46,1.65,1.51,1.65s1.43-.7,1.67-1.16l1.47.75h0Zm-1.94-2.44c-.04-.28-.09-.65-.37-.94-.24-.24-.61-.37-.95-.37-.47,0-.8.23-.99.43-.27.29-.33.6-.39.87h2.7Z"/>
      <path class="cls-1" d="m147.74,19.7c0,1.67-.96,3.51-3.54,3.51-1.86,0-3.56-1.06-3.56-3.51,0-2.03,1.28-3.63,3.81-3.49,2.7.15,3.29,2.29,3.29,3.49h0Zm-4.81-1.3c-.24.38-.33.84-.33,1.29,0,1.05.51,1.97,1.6,1.97s1.57-.85,1.57-1.89c0-.73-.18-1.3-.55-1.66-.4-.38-.86-.39-1.14-.37-.56.04-.89.23-1.15.65h0Z"/>
      <path class="cls-1" d="m149.32,15.75c0-.33.02-.77.28-1.13.24-.33.78-.67,1.7-.67.39,0,.79.06,1.16.11v1.45h-.47c-.73,0-.77.15-.76,1.04h1.3v1.19h-1.29v5.27h-1.94v-5.27h-1.04v-1.19h1.05v-.81h0Z"/>
      <polygon class="cls-1" points="84.85 28.27 91.73 28.27 91.73 30.04 89.42 30.04 89.42 37.22 87.18 37.22 87.18 30.04 84.85 30.04 84.85 28.27 84.85 28.27"/>
      <path class="cls-1" d="m97.88,35.53c-.23.34-.46.67-.8.99-.57.53-1.43.94-2.49.94-1.96,0-3.34-1.25-3.34-3.42,0-1.6.78-3.65,3.39-3.65.39,0,1.53.04,2.38.95.86.92.91,2.21.94,2.96h-4.72c-.01.82.46,1.65,1.51,1.65s1.43-.7,1.67-1.16l1.47.75h0Zm-1.94-2.44c-.04-.28-.09-.65-.37-.94-.24-.24-.61-.37-.95-.37-.47,0-.8.23-.99.43-.27.29-.33.6-.39.87h2.7Z"/>
      <path class="cls-1" d="m104.85,35.66c-.24.38-.51.8-1.04,1.18-.51.35-1.15.59-1.9.59-1.27,0-3.28-.76-3.28-3.45,0-1.92,1.11-3.54,3.32-3.54.73,0,1.99.2,2.82,1.58l-1.44.82c-.11-.24-.24-.47-.56-.7-.19-.13-.43-.23-.73-.23-1.05,0-1.4,1.2-1.4,2,0,.87.43,1.97,1.47,1.97.1,0,.58,0,.99-.45.16-.19.23-.34.29-.53l1.47.76h0Z"/>
      <path class="cls-1" d="m107.1,28.27v3.04c.28-.28.85-.87,1.9-.87.48,0,1.01.14,1.4.47.58.49.68,1.11.68,1.97v4.34h-1.94v-3.46c0-.53-.01-.78-.09-1.01-.19-.59-.71-.66-.91-.66-.34,0-.63.16-.8.38-.25.34-.25.89-.25,1.46v3.29h-1.95v-8.95h1.95Z"/>
      <path class="cls-1" d="m114.79,31.21c.19-.2.32-.35.66-.52.3-.13.73-.24,1.2-.24.39,0,.83.08,1.18.27.7.37.87.96.87,1.99v4.52h-1.94v-3.72c0-.59-.01-.81-.09-.99-.15-.35-.49-.51-.87-.51-1.03,0-1.03.82-1.03,1.65v3.57h-1.95v-6.59h1.96v.58h0Z"/>
      <path class="cls-1" d="m127.09,33.9c0,1.67-.96,3.51-3.54,3.51-1.86,0-3.56-1.06-3.56-3.51,0-2.03,1.28-3.63,3.81-3.49,2.7.15,3.29,2.29,3.29,3.49h0Zm-4.81-1.3c-.24.38-.33.84-.33,1.29,0,1.05.51,1.97,1.6,1.97s1.57-.85,1.57-1.89c0-.73-.18-1.3-.54-1.66-.4-.38-.86-.39-1.14-.37-.56.04-.88.23-1.15.65h0Z"/>
      <polygon class="cls-1" points="130.3 28.28 130.3 37.22 128.35 37.22 128.35 28.28 130.3 28.28 130.3 28.28"/>
      <path class="cls-1" d="m138.69,33.9c0,1.67-.96,3.51-3.54,3.51-1.86,0-3.56-1.06-3.56-3.51,0-2.03,1.28-3.63,3.81-3.49,2.7.15,3.29,2.29,3.29,3.49h0Zm-4.81-1.3c-.24.38-.33.84-.33,1.29,0,1.05.51,1.97,1.6,1.97s1.57-.85,1.57-1.89c0-.73-.18-1.3-.54-1.66-.41-.38-.86-.39-1.14-.37-.56.04-.89.23-1.15.65h0Z"/>
      <path class="cls-1" d="m143.97,36.34c-.38.25-.85.56-1.75.56-.54,0-1.08-.14-1.51-.43-.89-.57-1.23-1.59-1.23-2.73,0-1.33.62-3.24,2.81-3.24,1.01,0,1.48.44,1.77.72v-.62h1.82v6.35c-.03.72-.05,1.57-1.01,2.13-.67.41-1.66.51-2.25.51-1.32,0-2.18-.45-2.53-.82-.52-.52-.51-1.19-.51-1.54h2.01c.03.29.05.71.57.95.13.06.32.13.62.13,1.18,0,1.18-.7,1.18-1.24v-.71h0Zm-2.47-2.62c0,.56.04,1.71,1.24,1.71.99,0,1.21-.77,1.21-1.71,0-.32-.02-.97-.24-1.29-.15-.24-.51-.51-1.06-.48-.92.04-1.15.84-1.15,1.77h0Z"/>
      <path class="cls-1" d="m153.07,30.61l-2.33,7.14c-.15.43-.29.84-.62,1.2-.45.49-.9.52-1.4.53h-1.4v-1.54h.68c.32-.01.81-.01.81-.48,0-.16-.05-.33-.09-.47l-1.97-6.38h2.08l1.09,4.73,1.09-4.73h2.08Z"/>
      <polygon class="cls-2" points="38.36 37.2 38.36 11.84 46.2 11.84 46.2 37.2 38.36 37.2 38.36 37.2"/>
    </g>
  </g>
</svg>