<?xml version="1.0" encoding="UTF-8"?>
<svg id="Layer_2" data-name="Layer 2" xmlns="http://www.w3.org/2000/svg" viewBox="0 0 170.38 82.9">
  <defs>
    <style>
      .cls-1 {
        fill: #398dc9;
        stroke-width: 0px;
      }
    </style>
  </defs>
  <g id="Layer_1-2" data-name="Layer 1">
    <g>
      <path class="cls-1" d="M48.11,9.56c1.13,1.35,3.11,2.14,4.27,3.49-.83-4-3.92-7.26-7.57-8.04,1.78,1.34,2.17,3.2,3.29,4.55ZM4.25,19.69c2.51-5.47,6.27-4.31,7.85-9.52-.9,1.6-4.99,2.27-6.9,6.37.97-2.43.49-6.16,2.12-8.17-4.91,3.62-2.82,9.48-3.08,11.32h0ZM8.8,32.81c.45,2.13-.87,5.21,1.23,8.14-2.18-2.45-6.8-3.07-8.69-6.79,2.35,9.09,8.49,7.22,11.26,9.19-2.28-3.27-.41-5.45-3.8-10.55ZM8.09,38.51c-1.36-5.08,1.05-6.83-.78-11.71-.19,2.74-2.02,4.08-.78,9.11-2.18-4.26-5.55-5.84-6.53-8.75.07,7.97,6.47,9.16,8.09,11.36h0ZM17.93,47.03c-1.88-2.61-.6-4.08-5.9-8.83,1.12,1.73-.03,3.91,3.54,7.29-3.49-2.06-8.32-1.18-10.64-3.93,3.99,7.64,11.01,4.52,13,5.47ZM43.58,45.49c3.57-3.38,2.42-5.56,3.54-7.29-5.3,4.74-4.01,6.21-5.9,8.83,1.99-.95,9.01,2.17,13-5.47-2.33,2.76-7.15,1.87-10.64,3.93ZM49.11,40.95c2.11-2.94.78-6.01,1.23-8.14-3.39,5.1-1.53,7.27-3.8,10.55,2.77-1.98,8.91-.1,11.26-9.19-1.89,3.72-6.51,4.34-8.69,6.79ZM40.65,47.38c-2.07-.56-4.2-.82-5.8-.86-1.98-.05-3.75.33-5.29.9-1.53-.57-3.3-.94-5.29-.9-1.59.04-3.72.32-5.8.86-3.18.85-5.95,1.51-8.34.29,2.3,2.04,4.99,2.77,8.87,2.35,3.23-.35,5.84-1.96,8.88-1.94h.12c-3.21,1.62-5.02,3.91-5.02,3.91l1.47.2s1.55-3.11,5.1-3.92c3.56.81,5.1,3.92,5.1,3.92l1.47-.2s-1.81-2.29-5.02-3.91h.12c3.05-.02,5.65,1.59,8.88,1.94,3.88.42,6.57-.31,8.87-2.35-2.4,1.21-5.15.56-8.35-.29h.02ZM7.53,21.31c-1.32,2.52-3.36,3.1-3.14,8.3-1.1-4.63-3.73-6.35-3.7-9.3-1.83,7.71,3.06,8.63,4.32,11.86-.18-4.63,2.77-5.57,2.52-10.87ZM9.37,15.35c-.46.64-.78.91-2,1.92-1.66,1.37-2.99,3.17-3.55,5.8.13-2.83-1.62-6.89-.46-9.86-4.5,6.35.26,10.15.42,12.46,1.16-4.43,3.84-4.46,5.58-10.32ZM55.34,23.07c-.56-2.63-1.89-4.43-3.55-5.8-1.22-1-1.54-1.28-2-1.92,1.74,5.86,4.42,5.89,5.58,10.32.17-2.3,4.93-6.11.42-12.46,1.16,2.96-.58,7.03-.46,9.86ZM59.15,27.16c-.98,2.92-4.35,4.5-6.53,8.75,1.24-5.02-.6-6.36-.78-9.11-1.83,4.87.58,6.63-.78,11.71,1.62-2.2,8.02-3.38,8.09-11.36h0ZM51.62,21.31c-.25,5.3,2.71,6.23,2.52,10.87,1.26-3.23,6.15-4.15,4.32-11.86.03,2.96-2.6,4.68-3.7,9.3.22-5.21-1.82-5.78-3.14-8.3ZM11.04,9.56c1.13-1.35,1.52-3.21,3.29-4.55-3.65.78-6.74,4.04-7.57,8.04,1.16-1.35,3.14-2.15,4.27-3.49ZM47.05,10.17c1.59,5.21,5.34,4.06,7.85,9.52-.26-1.84,1.83-7.7-3.08-11.32,1.64,2.01,1.16,5.73,2.12,8.17-1.9-4.1-6-4.77-6.9-6.37h0ZM34.31,13.13c-.94-.39-1.95-.67-2.99-.81,0,.22-.01.45-.01.67.96.14,1.88.4,2.76.76.11-.18.2-.38.25-.61h0ZM33.55,6.68l.2-.18-.38-.16-1-.02-.26.18-.59-.05v.14c.37.02.74.06,1.03.11l.49-.05.52.02h0ZM31.62,28.31c0-.17-.22-.34-.56-.49h-.06c0,.14-.02.82-.02,1.15.41-.19.64-.38.64-.65h0ZM20,15.56c.02-.14.05-.25.09-.37-.13.03-.27.05-.41.04l.33.33ZM29.61,45.08c11.28,0,20.46-9.18,20.46-20.46,0-10.58-8.08-19.32-18.39-20.36,0,.04-.02.08-.02.12-.04.2-.08.38-.11.54,4.62.45,8.78,2.5,11.92,5.58l-2.26,2.26.09-.4-.29-.13-.41-.02.09-.26-.28-.92-.56-.62-1.76-.93-.15.16-.32.09c.61.89.93,1.92.93,2.97,0,.14,0,.27-.01.4l.88,1.1-.41.1.27.41-.77.77-.31-.59c-.15.41-.34.8-.58,1.15.06.05.11.1.17.16l-2.38,2.38c-.14-.14-.29-.27-.45-.4-.23.1-.46.21-.7.3.07.05.14.1.2.15l-.12.12-.27.15-.1.28-.17-.17-.5.17.14.22.35-.09.22.02.02-.12.17-.09.05-.1.31-.09h.25s.1.07.14.12l-.95.94-.07-.1-.99.17-.22.22-.22.02.61-.58-.22-.11-.57.77.17-.02v.28s.2.08.2.08l.04.3-.34-.07-.36.07-.86-.45s-.05,2.33-.07,3.49c2.04.69,4.21,1.68,4.21,4.28,0,1.15-.5,2.07-1.47,2.75h0s-.03.02-.05.03c0,0-.04.03-.06.04-.82.54-1.89.84-2.81,1.12l-.03,1.82c1.47.73,3.24,1.79,3.08,4.82-.02.74-.31.95-.56,1.02-.86.21-1.74.36-2.65.42,0,.23,0,.46-.01.67,3.94-.27,7.51-1.94,10.2-4.51l2.38,2.38c-3.56,3.42-8.4,5.53-13.71,5.53s-10.1-2.08-13.65-5.48l2.38-2.38c2.67,2.52,6.18,4.16,10.06,4.44,0-.21,0-.43-.01-.67-3.69-.29-7.03-1.85-9.58-4.25l.64-.64.87.1.46-.5,1.21.04.18-.42-.04-.18c1.76,1.33,3.88,2.22,6.2,2.46,0-.26,0-.49-.01-.67-2.55-.29-4.86-1.39-6.66-3.04l2.38-2.38c.58.52,1.23.95,1.93,1.29.05-.23.13-.44.24-.62-.62-.3-1.19-.69-1.7-1.14l2.38-2.38c.38.3.81.54,1.27.71,0-.23-.01-.49-.01-.72-.28-.13-.55-.28-.79-.46l.68-.67c-.23-.07-.48-.15-.71-.23l-.45.45c-.23-.25-.42-.54-.57-.85-.41-.18-.81-.38-1.17-.63-1.47-.96-2.21-2.33-2.21-4.04,0-1.31.37-2.3.96-3.08l-2.37-2.37c1.71-1.63,3.91-2.76,6.35-3.13,0-.23,0-.45-.01-.67-2.62.38-4.98,1.58-6.8,3.33l-.4-.4c-.09.16-.2.36-.32.62l.25.25c-2.04,2.18-3.31,5.08-3.36,8.28h-3.37c.05-4.12,1.7-7.88,4.35-10.66l1.07,1.07h.15c.19-.01.4-.07.61-.18l-1.36-1.36c.72-.69,1.5-1.32,2.34-1.87.07-.22.13-.42.17-.49.04-.08.26-.37.52-.69-1.28.7-2.45,1.58-3.49,2.58l-2.38-2.38c3.12-3.04,7.23-5.05,11.79-5.52-.02-.08-.03-.14-.03-.14-.03-.16-.06-.33-.1-.51-10.28,1.07-18.33,9.79-18.33,20.36,0,11.28,9.18,20.46,20.46,20.46l-.02-.02ZM34.02,30.93v-.02h0v.02ZM43.93,10.95c3.34,3.51,5.42,8.24,5.47,13.45h-3.36c-.03-2.58-.66-5.02-1.76-7.18l.03-.06.23.12.06-.18-.6-1.05-.71-.99-.84-.7c-.29-.36-.58-.7-.9-1.04l2.38-2.38h0ZM39.65,15.26l.81.03.19.23-.1.34,1.12.7.22-.03,1.44,1.64.59-.21c.91,1.96,1.43,4.13,1.46,6.42h-3.37c-.01-.88-.13-1.74-.31-2.56l.15-.21.21-1.05-.15-1.13-.41-1.3-.94-1.37.23.12.11-.11-.75-.51-.05.17.76,1.08.43.88.3.88.1.59.15.99-.28.02s-.33-.61-.42-.86l.15-.22-.29-.41v-.41l-.21-.26-.26.03c-.09-.17-.19-.34-.29-.5l.18.09.05-.05-.1-.21.22-.13-.1-.13-.33.13.12-.51-.19-.11-.17.41c-.37-.55-.77-1.07-1.23-1.55l.94-.92h0ZM38.97,23.15l.6-.33.62-.1.14-.3.34-.21.13-.29.11-.5c.05.18.09.36.14.53l-.33.97v.33s.46-.63.46-.63c.1.58.15,1.17.17,1.77h-2.95l-.07-.26.34-.27.07-.17.15-.11.4-.04.04-.18-.36-.23h0ZM34.93,20.83l.3-.07v-.07s-.31-.2-.31-.2l.1-.64.36-.36c.22.26.44.53.62.81l-.13.39-.33-.23-.25.07.12.23h.13l-.14.34-.1-.14-.38-.14h0ZM36.22,32l-.73-.21-.22.08-.41-.32-.38-.14c.19-.14.38-.28.56-.44l.6.42.46.24.23.23-.09.13h-.01ZM35.85,19.02l2.38-2.38c.56.6,1.05,1.27,1.47,1.98l-.3.08.02.53.89.56c.22.49.41.99.56,1.5l-.15.23-.32.21-.08.49-.22.12-.18.22-.19-.07h-.33s.19-.27.19-.27l.14-.67.22-.14-.64-.62-.48.17-.11.45-.3.33-.31-.26-.11-.27.18-.11.1.18.15-.05-.06-.3h-.21s-.01.11-.01.11l-.14.03-.74-.86-.25-.19.1-.1.22-.08-.21-.08s-.26.06-.29.06l.15.19h-.38c-.22-.34-.47-.66-.74-.97h.01ZM37.06,31.69l-.32-.32.25-.32.31-.63-.12-.18.21-.47-.02-.42-.13-.44-.29-.1-.11.25-.17-.05c.25-.4.52-.78.7-1.23l.3-.13.17-.23.08.1.21-.25-.17-.21.15-.04.27.11h.52s.31-.15.31-.15l.82-.22-.15-.27-.05-.33.44.19.17-.1-.08-.34-.54.2-.6-.12-.45-.93h2.57c-.11,2.96-1.33,5.64-3.25,7.65l-.36-.36.15-.48-.28-1.04-.55.84h0ZM37.52,38.25l.32-.68-.13-.3.46-.41v-.25l-.4-.25.33-.66.49-.64-.49-.53h-.37l-.23-.37c.2-.17.4-.33.58-.51l2.38,2.38c-.89.85-1.88,1.59-2.95,2.22h0ZM40.48,35.1l.26-.29-.25-1.3-.17-.07.11-.22-.56-.18-.11.46-.06.59-.12.11-1.03-1.03c2.04-2.12,3.33-4.98,3.44-8.12h3.37c-.11,4.07-1.78,7.76-4.43,10.5l-.46-.46h0ZM41.41,36.03c2.77-2.86,4.51-6.71,4.62-10.97h3.36c-.12,5.18-2.23,9.88-5.61,13.35l-2.38-2.38h0ZM21.17,32.77c-.25-.25-.48-.52-.7-.78l.1-.85-.36-.82-.09-1.28-.4-.77.09-.48-.48-.92-.42-.21.17-.49-.18-.39.17-.44h.46l.16-.27h.78l.13.23-.15.8-.1.14.29.64-.19.11-.14-.17-.06.06.13.38.23.45h.11s.06-.41.06-.41l-.11-.15v-.27s-.05-.56-.05-.56l.17-.99-.16-.27h.56c.11,2.06.97,3.93,2.31,5.33l-2.38,2.38h.02ZM18.95,26.2l-.32.5h-.54l-.04-.03c-.09-.52-.15-1.05-.17-1.6h1.01l-.25.81.31.32h0ZM20.05,23.89l.06-.67.4-.23.71.13.11.13c-.06.38-.1.76-.11,1.16h-.81l-.37-.51h0ZM23.47,26.4l.17-.09.44.33-.19.15.49.33-.03-.36.26-.44.27.29.28.41-.51.11.23.46.36-.19-.05-.15.26-.18.15-.73c.19.44.45.84.77,1.18l-2.38,2.38c-1.13-1.19-1.89-2.74-2.08-4.46l.49.52h.46s.59.42.59.42h0ZM21.03,16.59l2.38,2.38c-.5.54-.92,1.16-1.26,1.82h-.17s-.33.09-.33.09h-.11s-.36.32-.36.32l.45-.07.4-.1c-.02.05-.05.1-.07.15l-.36.22h-.17l-.52.4-.5-.04-.73,1.36.15.27-.4.44-.06.57h-1.5c.05-3.02,1.25-5.76,3.17-7.81h-.01ZM17.96,34.53l.76.44.15.11-.54.54c-.26-.26-.5-.54-.74-.82l.38-.28h0ZM17.21,25.07c.01.33.04.65.07.97l-.41.09-.09.42-.86,1.09.02,1.5-.88.29h-.48c-.45-1.38-.7-2.85-.75-4.36h3.37ZM13.88,29.42l-.2-.03-.19-.21-.95-.09.29.4-.88-.17.23-.21-.21-.21-.63.27-.22.42.09.96.72,1.74.35.54.2.07-.55-1.04-.12-.53.13-.13-.07-.29.33.05.51.77.13.05v-.56s.19.12.19.12l.05.3.53.14.22-.16.07.05v.41s.22.29.22.29l.29.06.62,1.05.38.1.12-.49c.66,1.08,1.44,2.09,2.32,2.99l-2.38,2.38c-3.41-3.47-5.55-8.19-5.66-13.4h3.36c.04,1.51.29,2.97.71,4.35v.03ZM15.33,10.9l2.38,2.38c-2.77,2.9-4.49,6.82-4.54,11.13h-3.36c.05-5.24,2.15-9.99,5.53-13.51ZM39.67,9.67l-.21-.33-.44-.22-.34.26.44.23.49.36.06-.3h0ZM37.64,19.16v.26s.6-.18.6-.18l.18-.36-.4-.53.21-.32.54.39.1-.08-.11-.08-.13-.23.22-.13-.22-.29-.51.26-.18.31-.1.28.22.38-.08.18-.36.14h0ZM13.32,34.25l.04-.15-.3-.66-.36-.13.62.95h0ZM27.07,21.61c0,.57.34.96.97,1.31v-.25l-.4-.4.21-.38.17-.05c-.01-.66-.03-1.39-.03-1.5h-.03c-.57.32-.89.71-.89,1.26h0Z"/>
      <path class="cls-1" d="M30.83,36.18c1.05.53,2.03,1.27,2.43,2.67.18-2.31-1.12-3.32-2.41-4l-.03,1.33h0Z"/>
      <path class="cls-1" d="M37.84,12.68c0-2.11-1.53-4.44-5.27-5.26-.27-.06-.7-.1-1.14-.13,0,.32-.02,1.04-.02,1.04,0,.23-.02,1.07-.03,1.25.34.03.6.07.72.1,2.18.52,2.95,1.76,2.95,3,0,2-1.71,2.75-3.81,3.32-.23.06-.46.12-.69.18-.64.16-1.29.31-1.94.49-.23.06-.46.13-.69.19-2.33.71-4.32,1.83-4.32,4.71s2.28,3.91,4.51,4.6c-.02-.82-.03-1.64-.05-2.47-.99-.46-1.68-1.07-1.68-2.09s.63-1.6,1.6-2.04c.21-.1.45-.18.69-.27.56-.19,1.18-.35,1.83-.51.23-.06.46-.11.69-.17,3.14-.76,6.65-1.74,6.65-5.95h0Z"/>
      <path class="cls-1" d="M26.57,32.76c0,1.15.85,1.78,1.7,2.25,0-.19-.03-1.98-.03-2,.02-.36.36-.57.64-.7.41-.19.82-.33,1.35-.52.25-.09.47-.17.7-.25,1.7-.52,3.67-1.17,3.67-3.24s-1.69-2.92-3.53-3.56c-.01.66-.03,1.62-.05,2.29.78.3,1.29.68,1.29,1.27,0,.74-.79,1.17-1.35,1.39-.23.09-.59.21-.69.24-.45.14-.94.3-1.39.47-.24.09-.47.19-.69.3-.8.41-1.62,1.01-1.62,2.06h0Z"/>
      <path class="cls-1" d="M27.73,7.61c-1.13.32-1.8.75-2.05.84-.73.25-1.77.29-2.84,1.45-.19.21-.65.79-.98,1.27-.32.46-.34,1.21-.57,1.61-.34.58-.26.91-.26.91v.02c0,.07-.07.38-.38.73-.36.4-.82.61-1.39.53.49.25,1.16-.1,1.16-.1,0,0-.13.37-.26.97.54-1.24,1.05-1.69,1.2-1.82.23.05.72.03,1.63-.49,1.02-.58,2.55-1.54,2.99-2.15.47-.65,1.11-1.08,1.81-1.36-.02-.91-.04-1.72-.06-2.41h0ZM23.27,11.64l-.53.11.78-1.2.74.02-.99,1.07Z"/>
      <path class="cls-1" d="M29.83,32.61c-.1.03-.36.14-.52.2-.17.06-.39.15-.39.21,0,.02.17,8.92.17,9.11,0,1.83.93,1.84.93,0,0-.13.19-9.65.19-9.65,0,0-.22.07-.38.13Z"/>
      <path class="cls-1" d="M28.86,29.67c.29-.1.58-.19.85-.27.21-.06.39-.12.57-.18.01-.56.17-8.31.2-9.72-.7.17-1.3.34-1.8.52.02,1.06.17,8.8.19,9.65Z"/>
      <path class="cls-1" d="M29.64,0c-2.62,0-1.51,3.89-1.3,5.16.01.06.21,8.79.25,10.79.4-.1.79-.2,1.17-.3.27-.07.54-.13.79-.19.04-1.93.23-10.26.24-10.32.15-1.36,1.53-5.14-1.16-5.14h0Z"/>
      <path class="cls-1" d="M72.51,12.4h-.04l-2.22,12.13h-3.05l-2.85-14.8h2.42l1.98,11.41h.04l2.12-11.41h3.15l2.1,11.41h.04l2.06-11.41h2.34l-2.91,14.8h-3.09l-2.1-12.13h0Z"/>
      <path class="cls-1" d="M84.91,13.44c2.12,0,4.56,1.17,4.56,5.62s-2.45,5.64-4.56,5.64-4.58-1.06-4.58-5.64,2.46-5.62,4.58-5.62ZM84.91,22.83c1.62,0,1.98-1.95,1.98-3.77s-.37-3.75-1.98-3.75-2,1.93-2,3.75.38,3.77,2,3.77Z"/>
      <path class="cls-1" d="M91.02,15.41c0-.68-.02-1.32-.08-1.8h2.26c.02.66.08,1.33.08,1.99h.04c.3-.85,1.09-2.16,2.65-2.16.16,0,.28.04.42.06v2.46c-.22-.06-.45-.1-.71-.1-1.03,0-2.16.66-2.16,2.69v5.98h-2.5v-9.12h0Z"/>
      <path class="cls-1" d="M97.98,8.63h2.5v15.91h-2.5v-15.91Z"/>
      <path class="cls-1" d="M110.93,8.63v14.04c0,.78.02,1.46.08,1.87h-2.34c-.04-.32-.08-.96-.08-1.7h-.06c-.41.93-1.15,1.87-2.77,1.87-2.58,0-3.65-2.59-3.65-5.62,0-3.56,1.35-5.64,3.6-5.64,1.5,0,2.32.89,2.69,1.74h.04v-6.55h2.5,0ZM106.45,22.77c1.47,0,1.98-1.68,1.98-3.73s-.57-3.67-1.94-3.67-1.88,1.42-1.88,3.6c0,2.53.38,3.8,1.84,3.8Z"/>
      <path class="cls-1" d="M119.18,9.73h2.58v6.02h4.18v-6.02h2.58v14.8h-2.58v-6.53h-4.18v6.53h-2.58v-14.8Z"/>
      <path class="cls-1" d="M138.12,24c-.53.23-1.61.7-3.11.7-3.36,0-4.81-2.52-4.81-5.47,0-3.26,1.64-5.79,4.29-5.79,2.24,0,4.16,1.38,4.16,5.83v.51h-6.02c0,1.87.71,2.99,2.65,2.99,1.54,0,2.26-.49,2.73-.85l.12,2.08ZM136.23,18.13c0-1.93-.61-2.9-1.74-2.9-1.31,0-1.86,1.46-1.86,2.9h3.6,0Z"/>
      <path class="cls-1" d="M140.89,14.24c.71-.34,1.7-.81,3.29-.81,3.23,0,3.98,1.66,3.98,4.39v4.77c0,.78.08,1.51.14,1.93h-2.26c-.12-.42-.14-.96-.14-1.48h-.04c-.62.89-1.42,1.66-2.91,1.66-1.62,0-3.11-1.17-3.11-3.2,0-2.97,2.3-3.71,5.48-3.71h.5v-.4c0-1.08-.5-2.08-1.94-2.08-1.25,0-2.36.64-2.85,1.06l-.14-2.12h0ZM145.81,19.19h-.22c-2.14,0-3.41.46-3.41,2.06,0,1,.62,1.68,1.6,1.68,1.5,0,2.04-1.17,2.04-3.12v-.61h0Z"/>
      <path class="cls-1" d="M150.62,8.63h2.5v15.91h-2.5v-15.91Z"/>
      <path class="cls-1" d="M156.26,11.36l2.5-.81v3.05h2.08v1.93h-2.08v5.66c0,1.17.4,1.51,1.13,1.51.44,0,.77-.13.95-.23v1.87c-.38.19-.93.36-1.68.36-1.86,0-2.91-.89-2.91-3.18v-5.98h-1.65v-1.93h1.65v-2.25h0Z"/>
      <path class="cls-1" d="M162.14,8.63h2.5v6.38h.06c.45-.68,1.03-1.57,2.58-1.57,2.37,0,3.07,1.84,3.07,4.05v7.04h-2.5v-6.55c0-1.67-.4-2.38-1.43-2.38-1.31,0-1.77,1.17-1.77,2.57v6.36h-2.5v-15.9h0Z"/>
      <path class="cls-1" d="M69.86,28.47c2.93,0,5.61,2.29,5.61,7.61s-2.69,7.61-5.61,7.61-5.61-2.29-5.61-7.61,2.69-7.61,5.61-7.61ZM69.86,41.61c1.64,0,2.95-1.46,2.95-5.53s-1.31-5.53-2.95-5.53-2.95,1.46-2.95,5.53,1.31,5.53,2.95,5.53Z"/>
      <path class="cls-1" d="M77.16,34.37c0-.68-.02-1.31-.08-1.8h2.26c.02.66.08,1.33.08,1.99h.04c.3-.85,1.09-2.17,2.65-2.17.16,0,.28.05.42.06v2.46c-.22-.06-.44-.1-.7-.1-1.03,0-2.16.66-2.16,2.69v5.98h-2.5v-9.12h0Z"/>
      <path class="cls-1" d="M84.09,45.18c.58.34,1.76.93,3.07.93,2.37,0,2.75-1.72,2.75-3.44v-1.04h-.04c-.4.85-1.11,1.84-2.74,1.84-1.45,0-3.64-1.02-3.64-5.43,0-3.01,1.03-5.66,3.76-5.66,1.51,0,2.22.91,2.75,1.87h.08c0-.57.06-1.12.08-1.7h2.26c-.04.57-.08,1.15-.08,1.72v8.06c0,3.41-.99,5.85-4.81,5.85-1.66,0-2.97-.45-3.57-.68l.14-2.33h-.01ZM87.98,41.55c1.58,0,2.2-1.19,2.2-3.67,0-2.29-.83-3.52-2.02-3.5-1.31.02-1.82,1.29-1.82,3.52,0,2.57.78,3.65,1.64,3.65Z"/>
      <path class="cls-1" d="M95.04,33.2c.71-.34,1.7-.81,3.29-.81,3.23,0,3.98,1.66,3.98,4.39v4.77c0,.78.08,1.51.14,1.93h-2.26c-.12-.42-.14-.96-.14-1.48h-.04c-.62.89-1.41,1.66-2.91,1.66-1.62,0-3.11-1.17-3.11-3.2,0-2.97,2.3-3.71,5.47-3.71h.5v-.4c0-1.08-.5-2.08-1.94-2.08-1.25,0-2.37.64-2.85,1.06l-.14-2.12ZM99.96,38.14h-.22c-2.14,0-3.41.47-3.41,2.06,0,1,.62,1.68,1.6,1.68,1.49,0,2.04-1.16,2.04-3.12v-.61h0Z"/>
      <path class="cls-1" d="M104.83,34.37c0-.68-.02-1.31-.08-1.8h2.34c.02.55.08,1.12.08,1.68h.06-.02c.37-.66,1.07-1.84,2.77-1.84,2.36,0,3.07,1.84,3.07,4.05v7.04h-2.5v-6.55c0-1.67-.41-2.38-1.43-2.38-1.31,0-1.78,1.16-1.78,2.57v6.36h-2.5v-9.12h0Z"/>
      <path class="cls-1" d="M115.3,27.92h2.58v2.59h-2.58v-2.59ZM115.34,32.56h2.5v10.92h-2.5v-10.92Z"/>
      <path class="cls-1" d="M120.18,41.21l4.44-6.66h-4.3v-1.99h6.8v2.25l-4.36,6.68h4.5v1.99h-7.09v-2.27h0Z"/>
      <path class="cls-1" d="M129.64,33.2c.71-.34,1.7-.81,3.29-.81,3.23,0,3.98,1.66,3.98,4.39v4.77c0,.78.08,1.51.14,1.93h-2.26c-.12-.42-.14-.96-.14-1.48h-.04c-.62.89-1.42,1.66-2.9,1.66-1.61,0-3.11-1.17-3.11-3.2,0-2.97,2.3-3.71,5.47-3.71h.5v-.4c0-1.08-.5-2.08-1.94-2.08-1.25,0-2.37.64-2.85,1.06l-.14-2.12h0ZM134.56,38.14h-.22c-2.14,0-3.41.47-3.41,2.06,0,1,.62,1.68,1.6,1.68,1.5,0,2.04-1.16,2.04-3.12v-.61h0Z"/>
      <path class="cls-1" d="M139.79,30.32l2.5-.81v3.05h2.08v1.93h-2.08v5.66c0,1.17.41,1.51,1.13,1.51.45,0,.77-.13.95-.23v1.87c-.38.19-.93.36-1.68.36-1.86,0-2.91-.89-2.91-3.18v-5.98h-1.66v-1.93h1.66v-2.25h0Z"/>
      <path class="cls-1" d="M146.09,27.92h2.58v2.59h-2.58v-2.59ZM146.41,32.56h2.5v10.92h-2.5v-10.92Z"/>
      <path class="cls-1" d="M155.43,32.39c2.12,0,4.57,1.17,4.57,5.62s-2.45,5.64-4.57,5.64-4.58-1.06-4.58-5.64,2.46-5.62,4.58-5.62ZM155.43,41.78c1.62,0,1.98-1.95,1.98-3.77s-.36-3.75-1.98-3.75-2,1.93-2,3.75.38,3.77,2,3.77Z"/>
      <path class="cls-1" d="M162.17,34.37c0-.68-.02-1.31-.08-1.8h2.34c.02.55.08,1.12.08,1.68h.06-.02c.36-.66,1.07-1.84,2.77-1.84,2.36,0,3.07,1.84,3.07,4.05v7.04h-2.5v-6.55c0-1.67-.41-2.38-1.44-2.38-1.31,0-1.78,1.16-1.78,2.57v6.36h-2.5v-9.12Z"/>
      <path class="cls-1" d="M5.56,65.58h6.12v1.43h-4.46v4.18h4.26v1.43h-4.26v4.67h4.71v1.43h-6.36v-13.14h0Z"/>
      <path class="cls-1" d="M20.78,76.65c0,.7.06,1.39.07,2.07h-1.52l-.06-1.43h-.04c-.51,1.09-1.32,1.56-2.43,1.56-1.68,0-2.81-.96-2.81-3.07v-6.66h1.58v6.19c0,1.52.57,2.18,1.58,2.18,1.24,0,2.03-.86,2.03-2.6v-5.78h1.58v7.53h0Z"/>
      <path class="cls-1" d="M23.12,71.19c0-.7-.06-1.39-.07-2.07h1.52l.06,1.51h.04c.51-1.17,1.32-1.64,2.73-1.64v1.56c-.19-.04-.4-.06-.6-.06-1.23,0-2.09,1.05-2.09,3.14v5.08h-1.58v-7.53h0Z"/>
      <path class="cls-1" d="M32.12,68.98c2.54,0,3.86,1.92,3.86,4.93s-1.32,4.93-3.86,4.93-3.86-1.92-3.86-4.93,1.32-4.93,3.86-4.93ZM32.12,77.57c1.51,0,2.21-1.24,2.21-3.65s-.7-3.65-2.21-3.65-2.21,1.24-2.21,3.65.7,3.65,2.21,3.65Z"/>
      <path class="cls-1" d="M37.68,70.88c0-.58-.06-1.19-.07-1.77h1.52l.06,1.41h.04c.41-.75,1.13-1.55,2.52-1.55,1.98,0,3.31,1.62,3.31,4.93s-1.33,4.93-3.31,4.93c-1.09,0-1.81-.44-2.45-1.45h-.04v5.38h-1.58v-11.9ZM41.37,77.57c1.45,0,2.11-1.24,2.11-3.65s-.66-3.65-2.11-3.65-2.11,1.24-2.11,3.65.66,3.65,2.11,3.65Z"/>
      <path class="cls-1" d="M48.11,74.39c0,2.22.86,3.26,2.62,3.26.79,0,1.66-.4,2.2-.79l.07,1.43c-.75.36-1.73.57-2.69.57-2.54,0-3.86-1.92-3.86-4.93s1.32-4.93,3.71-4.93c2.17,0,3.37,1.73,3.37,4.55v.85h-5.42.01ZM51.95,73.19c0-1.99-.62-3-1.88-3-1.01,0-1.92.75-1.96,3h3.84Z"/>
      <path class="cls-1" d="M55.7,69.77c.79-.51,1.77-.79,2.71-.79,1.41,0,2.26.6,2.56.9.41.41.83,1,.83,2.35v5.01c0,.57.04,1.13.07,1.47h-1.43l-.09-1.3h-.04c-.44.73-1.23,1.43-2.69,1.43-1.58,0-2.77-.92-2.77-2.77s1.23-3.24,4.52-3.24h.92v-.44c0-.72-.06-1.13-.36-1.54-.32-.44-.94-.6-1.6-.6-.98,0-1.92.4-2.47,1l-.17-1.49ZM60.29,74.01c-.28-.04-.68-.04-1.11-.04-1.86,0-2.75.88-2.75,1.99,0,1.01.53,1.67,1.62,1.67,1.37,0,2.24-1.11,2.24-2.43v-1.2h0Z"/>
      <path class="cls-1" d="M64.07,71.19c0-.7-.06-1.39-.07-2.07h1.52l.06,1.43h.04c.51-1.09,1.32-1.56,2.43-1.56,1.67,0,2.81.96,2.81,3.07v6.66h-1.58v-6.19c0-1.52-.57-2.18-1.58-2.18-1.24,0-2.03.86-2.03,2.6v5.78h-1.58v-7.53h0Z"/>
      <path class="cls-1" d="M78.04,65.58h3.37c1.39,0,2.17.34,2.77.9.68.64.98,1.55.98,2.5,0,1.39-.66,2.73-2.6,3.14v.04c.79.15,1.17.53,1.43,1.28l1.84,5.27h-1.79l-1.51-4.44c-.38-1.09-.85-1.51-2.09-1.51h-.75v5.95h-1.66v-13.14h0ZM79.69,71.42h1.28c1.77,0,2.45-1.17,2.45-2.31,0-1.47-.96-2.17-2.41-2.17h-1.32v4.48h0Z"/>
      <path class="cls-1" d="M88.73,74.39c0,2.22.86,3.26,2.62,3.26.79,0,1.66-.4,2.2-.79l.07,1.43c-.75.36-1.73.57-2.69.57-2.54,0-3.86-1.92-3.86-4.93s1.32-4.93,3.71-4.93c2.17,0,3.37,1.73,3.37,4.55v.85h-5.42.01ZM92.56,73.19c0-1.99-.62-3-1.88-3-1.02,0-1.92.75-1.96,3h3.84Z"/>
      <path class="cls-1" d="M102.85,79.13c0,2.65-1.99,3.76-4.1,3.76-.81,0-2.11-.3-2.81-.58l.07-1.6c.68.45,1.77.83,2.63.83,1.94,0,2.69-1.15,2.69-2.81v-1.51h-.04c-.62,1.09-1.47,1.62-2.52,1.62-1.98,0-3.31-1.62-3.31-4.93s1.33-4.93,3.48-4.93c.96,0,1.83.6,2.35,1.52h.04l.06-1.39h1.52c-.02.57-.07,1.17-.07,1.75v8.26h0ZM99.16,77.57c1.45,0,2.11-1.24,2.11-3.65s-.66-3.65-2.11-3.65-2.11,1.24-2.11,3.65.66,3.65,2.11,3.65Z"/>
      <path class="cls-1" d="M106.83,65.16v1.88h-1.73v-1.88h1.73ZM105.18,69.12h1.58v9.6h-1.58v-9.6Z"/>
      <path class="cls-1" d="M112.63,68.98c2.54,0,3.86,1.92,3.86,4.93s-1.32,4.93-3.86,4.93-3.86-1.92-3.86-4.93,1.32-4.93,3.86-4.93ZM112.63,77.57c1.51,0,2.21-1.24,2.21-3.65s-.7-3.65-2.21-3.65-2.2,1.24-2.2,3.65.7,3.65,2.2,3.65Z"/>
      <path class="cls-1" d="M118.35,71.19c0-.7-.06-1.39-.07-2.07h1.52l.06,1.43h.04c.51-1.09,1.32-1.56,2.43-1.56,1.67,0,2.81.96,2.81,3.07v6.66h-1.58v-6.19c0-1.52-.57-2.18-1.58-2.18-1.24,0-2.03.86-2.03,2.6v5.78h-1.58v-7.53h0Z"/>
      <path class="cls-1" d="M170.38,57.9H5.55v.8h164.83v-.8Z"/>
    </g>
  </g>
</svg>