<?xml version="1.0" encoding="UTF-8"?>
<svg id="Layer_2" data-name="Layer 2" xmlns="http://www.w3.org/2000/svg" viewBox="0 0 227.3 226.9">
  <defs>
    <style>
      .cls-1 {
        fill: #be0336;
        stroke-width: 0px;
      }
    </style>
  </defs>
  <g id="Layer_1-2" data-name="Layer 1">
    <g id="Layer_2-2" data-name="Layer 2">
      <g id="Layer_1-2" data-name="Layer 1-2">
        <path class="cls-1" d="M118.1,179.7s0,.1.1.1c.3.3,2.1.4,3.3.4,4.8,0,11.9-2.3,16.5-4.2,16.4-6.7,30.7-19.7,38-35.9.4-1,.5-1.6.9-2,.7-.7,1.8,0,5.1-.8,4.6-1.1,8.7-3.5,11.9-7,1.8-1.8,3.3-3.8,4.7-6,6.2-10,8.6-23.6,8.6-35.1,0-19-6.7-37.5-17.8-53-1.7-2.4-3.5-4.7-5.4-7-.6-.7-1.9-2.9-2.9-3h0c-.6,0-.7,2-.7,3.1v.8c-.2,2.8-.2,5.6-.2,8.3,0,4.6.2,9.2.5,13.7,1,14.9,3.6,29.6,9,43.7.8,2.2,1.9,3.5,2.4,3.5.1,0,.2-.1.2-.4,0-.1,0-.3-.1-.4-.1-.7-.6-1.8-.9-2.7-1.3-3.8-2.3-7.6-3.1-11.5-2.5-11.4-3.7-23-3.8-34.6,0-3.1.1-6.2.3-9.2,9.2,12.9,16.9,28.8,16.9,44.9,0,10.8-3.4,24.1-11.3,31.9-2.5,2.5-5.5,4.5-8.9,5.7,1.1-5.5,1.7-11,1.6-16.6.1-12.6-2.7-25-8-36.4-2.6-5.1-5.5-10.1-8.6-15-.2-.2-.4-.3-.6-.3s-.4.1-.5.2c-1.1,1-6.3,19.2-6.3,39.8-.1,8,.8,16,2.8,23.8,1.1,4.5,2.9,8.7,5.4,12.6.6.9,1.2,1.2,1.2,1.8,0,1.3-5.3,8.6-6.6,10.2-15.5,19.7-42.4,35.1-43.5,36.3-.1.2-.2.2-.2.3ZM165.6,119.1c-1.9-3.1-2.3-8.2-2.3-12.7-.1-12.2,1.5-24.3,4.9-36,5.5,9.9,8.6,19.8,8.6,31.1,0,7.8-1.4,15.5-4,22.8-2.9-.9-5.5-2.7-7.2-5.2M75.4,136.7c0-9.9-1.8-12.1-1.8-18.2,0-2.5,1.4-11.9,3.2-13.7.2-.2.4-.3.6-.3s.3.1.4.2c1.8,1.8,2.1,17.5,2.1,20.9,0,4.7-.8,10-.8,15.1,0,2.4.2,4.8.7,7.2,1.7,7.8,9,11.7,16.3,11.7,2,0,4.1-.3,6-.9,6.6-2.1,12.5-6.2,17.5-11.2,2.4-2.5,4.7-5.1,6.8-7.9.5-.7,1.1-1.5,1.7-2.1.5-.6,1.3-1,2.2-1,1.4,0,5.1,1.7,8.5,1.7,2.3,0,4.4-.9,6-2.5.5-.4.8-.9,1.1-1.5,1.5-2.8,5-10.4,5-11.3v-.1c.1,0,.1.1.2.1.4.6.5,1.3.4,2-.1,2.3-.5,4.6-1,6.9-.5,2.7-1.2,5.4-2,8-1.6,5.3-4.2,11.4-9.6,13.7-1.1.5-2.4.7-3.6.7-5.5,0-7.2-3.6-9.3-3.6-.2,0-.4.1-.6.2,0,0-4.4,5.6-5.5,6.9-6.2,7.2-14.5,16.1-24.4,17.4-.9.1-1.8.2-2.7.2-4.2,0-11.3-1.5-14.9-7.6-2.8-4.7-2.9-13.6-2.9-15.7,0-5.3.4-10.2.4-15.3ZM150.9,111.3c1.1,1,1.9,2,1.9,2.4-.3.7-.8,1.3-1.4,1.8-1.8,1.8-4.7,4.2-5.3,4.2-1-.6-1.9-1.3-2.7-2.2-1.7-1.7-3.5-3.8-3.5-4.2.3-.6.8-1.2,1.3-1.7,1.8-1.8,4.7-4.2,5.3-4.2h.1c.5.4,2.7,2.3,4.3,3.9ZM227.3,82.1c0,23.3-10.2,47.1-24.6,65.9-4.1,5.3-8.5,10.3-13.2,15-24.5,24.4-55.7,41.8-68.2,54.4-1.7,1.7-3.4,3.6-4.8,5.6-.6,1.2-1.4,2.4-2.2,3.5-.2.2-.4.3-.6.4-.2,0-.4-.1-.5-.3-1.1-1.1-2.8-4.5-3.6-5.7-2.3-3.2-4.9-6.2-7.7-8.9-9.2-9.2-21-17.6-30.8-24.6-9.4-6.8-20.4-13.3-28.6-21.5-5.1-5.1-9.6-13.2-9.6-20.9,0-5.8,2.7-10.5,6.7-14.6,1.8-1.8,3.8-3.5,6-4.9.2-.1.4-.3.6-.5.2-.2.4-.5.4-.8-.2-.7-.4-1.4-.7-2.1-.7-2.5-1.1-5.1-1.1-7.7,0-7.2,3.2-13.2,8.4-18.3,7.7-7.7,19.1-12.8,27-16.7,0-4.3-.4-9.2-3.4-12.2-.3-.3-.6-.6-1-.9-1,1-1.9,1.9-2.9,2.8-9.3,8.3-20.5,15.3-32.9,15.3-6.8,0-13.6-2.2-18.3-6.9-3.8-3.9-6.1-9.1-6.5-14.6-.1-.6.1-1.1.4-1.6.1-.1.2-.1.2-.1.3,0,.5.2.7.4.7.7,1.5,2.2,2.5,3.2,4.5,4.5,10.8,6.3,17.2,6.3,14.1,0,26.5-8.5,36.3-18.5,11.6-12,20.8-26.2,26.9-41.7,1.8-4.6,2.2-6.9,2.7-7.4,0-.1.1-.1.2-.1s.2.1.3.2c.2.2.3.4.5.6,4.8,7.4,6.1,17.7,6.1,26.6,0,1.2,0,5.3-.6,5.9,0,0-.1.1-.2.1s-.2,0-.2-.1c-.2-.3-.4-.6-.5-.9-1.7-4.3-2.7-9.1-3.7-13.7-2.9,7.2-6.4,14.3-10.5,21-2.2,3.7-4.5,7.3-7.1,10.7-1.1,1.5-2.3,3-3.5,4.5-.9,1.1-1.5,1.5-1.5,2.1.1.5.3,1,.6,1.5,2.5,3.9,2.9,8.6,2.9,13.2v2.5c0,1.3-.1,2.8-.1,4.3,0,3.7.4,7.7,2.7,9.7,1.5,1.4,3.5,2.1,5.6,2.2.9,0,1.7-.2,2.5-.6,1.4-.8,2.2-3.7,3-3.7.3,0,.6.5.9,2,1.2,5.9,6.5,6.9,12,6.9h.9c12.9-.2,26.8-5.7,35.2-15.7-8.8,3.4-18.2,5.2-27.7,5.3h-2.7c-5,0-11.4-.5-13.4-5.4-.5-1.2-.7-2.6-.7-3.9,0-4.6,2.6-9.3,4.9-12.8,4.5-6.7,10.6-12.2,17.7-16,3-1.7,9.7-5.2,14.9-5.2,2.6,0,4.8.9,6,3.4.5,1.2.7,2.5.7,3.8-.1,2.5-.5,5-1.3,7.5-.1.5-1.7,6.6-3,6.6h-.1c-.4-.1-.5-.5-.5-1.1,0-.9.3-2.2.3-3.4.1-.9-.2-1.8-1-2.3-1.4-.7-3-1-4.5-1-2.5.1-4.9.6-7.2,1.5-8.1,3-15.2,8.1-20.8,14.6,2.1,1.8,7.4,2.2,11.9,2.2,1.7,0,3.3-.1,4.6-.1,6.1-.4,12.1-1.4,18-3,2.3-.6,7.3-2.5,8.1-2.8h.1c.5,0,.6.9.6,2,0,1.3-.1,2.5-.3,3.8-.5,4.9-2.1,9.6-4.7,13.8-5.4,9-14.6,15.2-24.5,18.6-4.8,1.7-9.8,2.6-14.9,2.8-5.7,0-10.8-1.8-12.4-7.5-1.3,1.3-3.1,2-5,1.9-2.4,0-4.7-.8-6.6-2.2-3.2-2.5-4.2-7.1-4.4-10.9-6.8,3.4-13.6,7-19.4,11.9-5,4.2-10.8,10.9-10.8,17.9v.4c5-2.8,12.7-6.3,14.5-12.4.2-.5.3-.7.5-.7.5,0,1,1.5,1.3,2.1.8,2.3,1.4,4.7,1.5,7.1v1.5c0,6.4-2.8,11.5-8.1,15.4-5.8,4.2-13.2,6.6-18.1,12-1,1-1.9,1.8-1.9,2.6.1.6.4,1.1.8,1.4,1.7,1.5,3.5,2.9,5.3,4.3,3.3,2.5,6.7,4.9,10,7.3,7,5,14,10.1,20.9,15.3,12.7,9.6,25.7,20,34.3,33.5,5.5-9.4,15.6-16.1,24.2-22.4,16.1-11.8,34.5-24.1,50.8-40.4,7.3-7.2,13.8-15.2,19.4-23.7,11-17,17.4-36.7,17.4-56.4,0-14.3-6.7-27.2-16.6-37.2-4-4-8.4-7.5-13.3-10.3-9.3-5.6-20-8.6-30.9-8.7-12.9-.2-25.3,4.9-34.5,14-2.9,2.9-5.4,6.1-7.4,9.7-.5,1.1-1.1,2.2-1.8,3.3-.1.1-.2.1-.3.2-.1,0-.2-.1-.3-.2-.7-.7-1.7-3.5-1.7-6.7,0-6.5,3.2-14.9,9.1-20.8C133.4,4.1,145.8.2,158.2.2c17.3,0,33.3,7.5,45.1,19.3,6.5,6.5,11.7,14.3,15.2,22.8,5.6,12.8,8.8,26.2,8.8,39.8ZM159.3,39l.2.2c1.4,1.2,3.2,1.8,5.1,1.7.9,0,1.8-.1,2.7-.2,1-.1,1.7-.5,2.2-.5q.2,0,.3.1c.2.2.2.5.2.8v.7c-.4,3.5-2.8,4.4-4.4,6-1,1-4.9,5.5-5.7,6.2,0,0-.2.1-.1.1-.1-.1-.2-.1-.3-.2-.2-.2-.3-.5-.3-.8,0-2.1,2.9-6.1,3.4-6.7-1.5,0-2.9-.6-4-1.6-1.1-1.2-1.7-2.7-1.6-4.3,0-2.3.9-4.4,2.4-6,1.5-1.5,3.6-2.3,5.7-2.3.6-.1,1.2.1,1.7.5.3.4.5.8.5,1.3-.1,1.2-.4,2.3-1.1,3.3-.4.3-.9.5-1.4.4h-1c-1.6-.1-3.2.4-4.5,1.3h0ZM128.5,132c-.6,0-3.6-2.5-5.4-4.3-.2-.2-1.3-1.3-1.3-1.6s1.9-2.6,3.5-4.2c.3-.3,2.2-2.2,2.6-2.2.6,0,3.6,2.5,5.4,4.3.3.3,1.3,1.3,1.3,1.7s-.8,1.3-1.9,2.4c-1.5,1.6-3.7,3.5-4.2,3.9.1,0,0,0,0,0h0ZM94.8,124.4c-.6,0-3.6-2.5-5.4-4.2-.2-.2-1.3-1.3-1.3-1.6,0-.8,5.4-6.4,6.2-6.4.6,0,3.6,2.5,5.4,4.3.3.3,1.3,1.3,1.3,1.7s-.8,1.3-1.9,2.4c-1.6,1.5-3.8,3.4-4.3,3.8q.1,0,0,0ZM142.8,40.2c-.9,0-6.7-5.2-6.7-5.9s5.4-6.4,6.2-6.4,6.7,5.2,6.7,6c0,1-5.4,5.7-6.2,6.3.1,0,0,0,0,0h0ZM28,140.2h0l-1-1.3h0l1,1.3c.5.9.8,2,.7,3.2,0,2.5-.9,5-1.4,5-.3-.1-.6-.3-.9-.6-1.6-1.9-3.1-4-4.4-6.2-4.4-6.7-8.2-13.8-11.4-21.2C4.2,105.3,0,88.8,0,72.6c0-21.2,7.7-39,20.4-51.7C33.9,7.7,52,.2,70.8,0c5.5,0,11,.7,16.3,2.2,1.3.4,4.6.9,5.9,2.1.4.4.6.9.6,1.4,0,1.8-1.6,4.4-2.4,5.7-.5.9-1.1,1.6-1.7,2.4-.7.7-1.6,1.1-2.7,1.1-.4,0-.8,0-1.2-.1-3.7-.7-7.4-1-11.2-1-18.1.2-35.4,7.2-48.6,19.5-13.5,13-21.2,31-21.3,49.9,0,22,11,39.8,23.5,57"/>
      </g>
    </g>
  </g>
</svg>