<svg width="14" height="15" viewBox="0 0 14 15" fill="none" xmlns="http://www.w3.org/2000/svg">
<path id="Vector" d="M4.78922 8.39466C4.92389 8.12533 4.99989 7.82133 4.99989 7.5C4.99989 7.17866 4.92389 6.87466 4.78922 6.60533M4.78922 8.39466C4.58769 8.79759 4.25602 9.12067 3.84795 9.31157C3.43988 9.50247 2.97931 9.55 2.54085 9.44646C2.10239 9.34293 1.71174 9.09439 1.43217 8.74111C1.15259 8.38783 1.00049 7.95051 1.00049 7.5C1.00049 7.04948 1.15259 6.61216 1.43217 6.25888C1.71174 5.9056 2.10239 5.65706 2.54085 5.55353C2.97931 5.44999 3.43988 5.49752 3.84795 5.68842C4.25602 5.87932 4.58769 6.2024 4.78922 6.60533M4.78922 8.39466L9.21056 10.6053M4.78922 6.60533L9.21056 4.39466M9.21056 10.6053C8.97328 11.0799 8.93423 11.6293 9.10201 12.1326C9.2698 12.636 9.63066 13.052 10.1052 13.2893C10.5798 13.5266 11.1292 13.5657 11.6325 13.3979C12.1359 13.2301 12.5519 12.8692 12.7892 12.3947C13.0265 11.9201 13.0655 11.3707 12.8978 10.8674C12.73 10.364 12.3691 9.94794 11.8946 9.71066C11.6596 9.59317 11.4038 9.52312 11.1417 9.50449C10.8797 9.48587 10.6165 9.51904 10.3673 9.60212C9.86392 9.7699 9.44784 10.1308 9.21056 10.6053ZM9.21056 4.39466C9.32804 4.6296 9.49066 4.83909 9.68911 5.01118C9.88756 5.18327 10.118 5.31459 10.3672 5.39763C10.6164 5.48068 10.8795 5.51383 11.1415 5.49519C11.4035 5.47655 11.6593 5.40648 11.8942 5.289C12.1292 5.17151 12.3386 5.00889 12.5107 4.81044C12.6828 4.61199 12.8141 4.38159 12.8972 4.13238C12.9802 3.88318 13.0134 3.62006 12.9948 3.35805C12.9761 3.09604 12.906 2.84026 12.7886 2.60533C12.5513 2.13086 12.1352 1.77008 11.6319 1.60236C11.1287 1.43464 10.5794 1.47371 10.1049 1.71099C9.63042 1.94828 9.26964 2.36432 9.10192 2.86761C8.9342 3.37089 8.97328 3.92019 9.21056 4.39466Z" stroke="#444444" stroke-width="2" stroke-linecap="round" stroke-linejoin="round"/>
</svg>
